<?xml version="1.0" encoding="UTF-8" standalone="no"?>
<!DOCTYPE svg PUBLIC "-//W3C//DTD SVG 1.1//EN"
 "http://www.w3.org/Graphics/SVG/1.1/DTD/svg11.dtd">
<!-- Generated by graphviz version 9.0.0 (20230911.1827)
 -->
<!-- Title: ocdfg Pages: 1 -->
<svg width="2607pt" height="514pt"
 viewBox="0.00 0.00 2607.06 514.00" xmlns="http://www.w3.org/2000/svg" xmlns:xlink="http://www.w3.org/1999/xlink">
<g id="graph0" class="graph" transform="scale(1 1) rotate(0) translate(4 510)">
<title>ocdfg</title>
<polygon fill="white" stroke="none" points="-4,4 -4,-510 2603.06,-510 2603.06,4 -4,4"/>
<!-- dd6f59ae&#45;c9bc&#45;45ac&#45;9ca6&#45;7ae324f0cb90 -->
<g id="node1" class="node">
<title>dd6f59ae&#45;c9bc&#45;45ac&#45;9ca6&#45;7ae324f0cb90</title>
<polygon fill="none" stroke="black" points="452.29,-203 182.04,-203 182.04,-167 452.29,-167 452.29,-203"/>
<text text-anchor="middle" x="317.17" y="-179.57" font-family="Times New Roman,serif" font-size="14.00">Check asset quality/Check&#45;In asset to storage</text>
</g>
<!-- dd6f59ae&#45;c9bc&#45;45ac&#45;9ca6&#45;7ae324f0cb90&#45;&gt;dd6f59ae&#45;c9bc&#45;45ac&#45;9ca6&#45;7ae324f0cb90 -->
<g id="edge9" class="edge">
<title>dd6f59ae&#45;c9bc&#45;45ac&#45;9ca6&#45;7ae324f0cb90&#45;&gt;dd6f59ae&#45;c9bc&#45;45ac&#45;9ca6&#45;7ae324f0cb90</title>
<path fill="none" stroke="#f2aa47" d="M303.27,-203.15C301.13,-212.54 305.76,-221 317.17,-221 323.58,-221 327.85,-218.32 329.98,-214.31"/>
<polygon fill="#f2aa47" stroke="#f2aa47" points="333.44,-214.95 330.92,-204.66 326.47,-214.27 333.44,-214.95"/>
<text text-anchor="middle" x="317.17" y="-223.9" font-family="Times New Roman,serif" font-size="8.00" fill="#f2aa47">admin_user EC=15s</text>
</g>
<!-- dd6f59ae&#45;c9bc&#45;45ac&#45;9ca6&#45;7ae324f0cb90&#45;&gt;dd6f59ae&#45;c9bc&#45;45ac&#45;9ca6&#45;7ae324f0cb90 -->
<g id="edge12" class="edge">
<title>dd6f59ae&#45;c9bc&#45;45ac&#45;9ca6&#45;7ae324f0cb90&#45;&gt;dd6f59ae&#45;c9bc&#45;45ac&#45;9ca6&#45;7ae324f0cb90</title>
<path fill="none" stroke="#68ca6a" d="M293.88,-203.26C281.8,-220.4 289.56,-239 317.17,-239 339.38,-239 348.75,-226.96 345.26,-213.32"/>
<polygon fill="#68ca6a" stroke="#68ca6a" points="348.58,-212.14 341.11,-204.62 342.26,-215.16 348.58,-212.14"/>
<text text-anchor="middle" x="317.17" y="-241.9" font-family="Times New Roman,serif" font-size="8.00" fill="#68ca6a">it_working_desk EC=15s</text>
</g>
<!-- 89c7ded0&#45;0b9a&#45;44c4&#45;b339&#45;de1749cbf9c2 -->
<g id="node3" class="node">
<title>89c7ded0&#45;0b9a&#45;44c4&#45;b339&#45;de1749cbf9c2</title>
<polygon fill="none" stroke="black" points="887.17,-308 732.42,-308 732.42,-272 887.17,-272 887.17,-308"/>
<text text-anchor="middle" x="809.79" y="-284.57" font-family="Times New Roman,serif" font-size="14.00">Handover asset to admin</text>
</g>
<!-- dd6f59ae&#45;c9bc&#45;45ac&#45;9ca6&#45;7ae324f0cb90&#45;&gt;89c7ded0&#45;0b9a&#45;44c4&#45;b339&#45;de1749cbf9c2 -->
<g id="edge13" class="edge">
<title>dd6f59ae&#45;c9bc&#45;45ac&#45;9ca6&#45;7ae324f0cb90&#45;&gt;89c7ded0&#45;0b9a&#45;44c4&#45;b339&#45;de1749cbf9c2</title>
<path fill="none" stroke="#68ca6a" d="M452.63,-200.81C486.69,-208.74 522.08,-220.64 552.04,-238.5 562.46,-244.71 559.34,-253.3 570.04,-259 615.87,-283.43 673.46,-291.45 720.59,-293.23"/>
<polygon fill="#68ca6a" stroke="#68ca6a" points="720.42,-296.72 730.51,-293.51 720.62,-289.73 720.42,-296.72"/>
<text text-anchor="middle" x="511.17" y="-240.9" font-family="Times New Roman,serif" font-size="8.00" fill="#68ca6a">it_working_desk EC=9s</text>
</g>
<!-- 9185213f&#45;a08c&#45;4a31&#45;b1ae&#45;50074435c8ce -->
<g id="node5" class="node">
<title>9185213f&#45;a08c&#45;4a31&#45;b1ae&#45;50074435c8ce</title>
<polygon fill="none" stroke="black" points="1049.54,-45 570.04,-45 570.04,-9 1049.54,-9 1049.54,-45"/>
<text text-anchor="middle" x="809.79" y="-21.57" font-family="Times New Roman,serif" font-size="14.00">Pick asset from self service desk/Pick asset from warehouse/Move asset to storage</text>
</g>
<!-- dd6f59ae&#45;c9bc&#45;45ac&#45;9ca6&#45;7ae324f0cb90&#45;&gt;9185213f&#45;a08c&#45;4a31&#45;b1ae&#45;50074435c8ce -->
<g id="edge3" class="edge">
<title>dd6f59ae&#45;c9bc&#45;45ac&#45;9ca6&#45;7ae324f0cb90&#45;&gt;9185213f&#45;a08c&#45;4a31&#45;b1ae&#45;50074435c8ce</title>
<path fill="none" stroke="#f2aa47" d="M336.97,-166.73C364.01,-141.63 416.57,-97.15 470.29,-75.5 499.85,-63.59 531.9,-54.54 564.09,-47.67"/>
<polygon fill="#f2aa47" stroke="#f2aa47" points="564.44,-51.18 573.53,-45.74 563.03,-44.32 564.44,-51.18"/>
<text text-anchor="middle" x="511.17" y="-78.9" font-family="Times New Roman,serif" font-size="8.00" fill="#f2aa47">admin_user EC=1s</text>
</g>
<!-- 470c3a77&#45;41b2&#45;46b5&#45;98ac&#45;2436c5cad914 -->
<g id="node6" class="node">
<title>470c3a77&#45;41b2&#45;46b5&#45;98ac&#45;2436c5cad914</title>
<polygon fill="none" stroke="black" points="1655.79,-103 1153.79,-103 1153.79,-67 1655.79,-67 1655.79,-103"/>
<text text-anchor="middle" x="1404.79" y="-79.58" font-family="Times New Roman,serif" font-size="14.00">Unpack asset/Test asset quality and functionality/Install and configure asset/Label asset</text>
</g>
<!-- dd6f59ae&#45;c9bc&#45;45ac&#45;9ca6&#45;7ae324f0cb90&#45;&gt;470c3a77&#45;41b2&#45;46b5&#45;98ac&#45;2436c5cad914 -->
<g id="edge1" class="edge">
<title>dd6f59ae&#45;c9bc&#45;45ac&#45;9ca6&#45;7ae324f0cb90&#45;&gt;470c3a77&#45;41b2&#45;46b5&#45;98ac&#45;2436c5cad914</title>
<path fill="none" stroke="#f2aa47" d="M452.01,-166.53C490.11,-161.6 531.67,-156.53 570.04,-152.5 678.17,-141.15 945.03,-119.99 1147.96,-104.37"/>
<polygon fill="#f2aa47" stroke="#f2aa47" points="1148.19,-107.86 1157.89,-103.61 1147.65,-100.89 1148.19,-107.86"/>
<text text-anchor="middle" x="809.79" y="-155.9" font-family="Times New Roman,serif" font-size="8.00" fill="#f2aa47">admin_user EC=4s</text>
</g>
<!-- 1e9d05da&#45;3031&#45;4314&#45;ab62&#45;2b7a911f15e0 -->
<g id="node7" class="node">
<title>1e9d05da&#45;3031&#45;4314&#45;ab62&#45;2b7a911f15e0</title>
<polygon fill="none" stroke="black" points="1449.54,-423 1360.04,-423 1360.04,-387 1449.54,-387 1449.54,-423"/>
<text text-anchor="middle" x="1404.79" y="-399.57" font-family="Times New Roman,serif" font-size="14.00">checkin from</text>
</g>
<!-- dd6f59ae&#45;c9bc&#45;45ac&#45;9ca6&#45;7ae324f0cb90&#45;&gt;1e9d05da&#45;3031&#45;4314&#45;ab62&#45;2b7a911f15e0 -->
<g id="edge10" class="edge">
<title>dd6f59ae&#45;c9bc&#45;45ac&#45;9ca6&#45;7ae324f0cb90&#45;&gt;1e9d05da&#45;3031&#45;4314&#45;ab62&#45;2b7a911f15e0</title>
<path fill="none" stroke="#f2aa47" d="M334.53,-203.23C371.7,-243.14 467.23,-337.58 570.04,-374 642.86,-399.8 1173.38,-404.13 1348.14,-404.85"/>
<polygon fill="#f2aa47" stroke="#f2aa47" points="1348.08,-408.35 1358.1,-404.89 1348.11,-401.35 1348.08,-408.35"/>
<text text-anchor="middle" x="809.79" y="-403.9" font-family="Times New Roman,serif" font-size="8.00" fill="#f2aa47">admin_user EC=28s</text>
</g>
<!-- ee99086c&#45;0bbb&#45;444e&#45;87ce&#45;729515f8791d -->
<g id="node2" class="node">
<title>ee99086c&#45;0bbb&#45;444e&#45;87ce&#45;729515f8791d</title>
<polygon fill="none" stroke="black" points="1908.8,-258 1759.3,-258 1759.3,-222 1908.8,-222 1908.8,-258"/>
<text text-anchor="middle" x="1834.05" y="-234.57" font-family="Times New Roman,serif" font-size="14.00">Enter room/Leave room</text>
</g>
<!-- ee99086c&#45;0bbb&#45;444e&#45;87ce&#45;729515f8791d&#45;&gt;89c7ded0&#45;0b9a&#45;44c4&#45;b339&#45;de1749cbf9c2 -->
<g id="edge23" class="edge">
<title>ee99086c&#45;0bbb&#45;444e&#45;87ce&#45;729515f8791d&#45;&gt;89c7ded0&#45;0b9a&#45;44c4&#45;b339&#45;de1749cbf9c2</title>
<path fill="none" stroke="#36ff8f" d="M1758.86,-240.67C1633.91,-242.14 1373.58,-246.58 1153.79,-259.5 1067.01,-264.6 968.16,-273.75 898.94,-280.7"/>
<polygon fill="#36ff8f" stroke="#36ff8f" points="898.77,-277.2 889.17,-281.68 899.47,-284.16 898.77,-277.2"/>
<text text-anchor="middle" x="1404.79" y="-261.9" font-family="Times New Roman,serif" font-size="8.00" fill="#36ff8f">target_user EC=0ns</text>
</g>
<!-- 73629ddf&#45;548a&#45;4466&#45;9ddb&#45;6c89bb5df93d -->
<g id="node8" class="node">
<title>73629ddf&#45;548a&#45;4466&#45;9ddb&#45;6c89bb5df93d</title>
<polygon fill="none" stroke="black" points="2444.06,-258 2281.81,-258 2281.81,-222 2444.06,-222 2444.06,-258"/>
<text text-anchor="middle" x="2362.93" y="-234.57" font-family="Times New Roman,serif" font-size="14.00">reed_switch_door_closed</text>
</g>
<!-- ee99086c&#45;0bbb&#45;444e&#45;87ce&#45;729515f8791d&#45;&gt;73629ddf&#45;548a&#45;4466&#45;9ddb&#45;6c89bb5df93d -->
<g id="edge19" class="edge">
<title>ee99086c&#45;0bbb&#45;444e&#45;87ce&#45;729515f8791d&#45;&gt;73629ddf&#45;548a&#45;4466&#45;9ddb&#45;6c89bb5df93d</title>
<path fill="none" stroke="#01b788" d="M1909.04,-232.34C1916.31,-231.79 1923.57,-231.33 1930.56,-231 2078.51,-224.04 2115.85,-224.23 2263.81,-231 2265.87,-231.09 2267.95,-231.2 2270.04,-231.31"/>
<polygon fill="#01b788" stroke="#01b788" points="2269.68,-234.8 2279.87,-231.92 2270.11,-227.81 2269.68,-234.8"/>
<text text-anchor="middle" x="2072.43" y="-230.9" font-family="Times New Roman,serif" font-size="8.00" fill="#01b788">door EC=0ns</text>
</g>
<!-- 2afa7df8&#45;5f0a&#45;4084&#45;8606&#45;47b058d0bff3 -->
<g id="node9" class="node">
<title>2afa7df8&#45;5f0a&#45;4084&#45;8606&#45;47b058d0bff3</title>
<polygon fill="none" stroke="black" points="2155.81,-292 1989.06,-292 1989.06,-256 2155.81,-256 2155.81,-292"/>
<text text-anchor="middle" x="2072.43" y="-268.57" font-family="Times New Roman,serif" font-size="14.00">reed_switch_door_opened</text>
</g>
<!-- ee99086c&#45;0bbb&#45;444e&#45;87ce&#45;729515f8791d&#45;&gt;2afa7df8&#45;5f0a&#45;4084&#45;8606&#45;47b058d0bff3 -->
<g id="edge21" class="edge">
<title>ee99086c&#45;0bbb&#45;444e&#45;87ce&#45;729515f8791d&#45;&gt;2afa7df8&#45;5f0a&#45;4084&#45;8606&#45;47b058d0bff3</title>
<path fill="none" stroke="#01b788" d="M1909.18,-235.2C1929.36,-235.12 1951.15,-236.17 1971.06,-239.5 1986.56,-242.09 2002.88,-246.78 2017.74,-251.89"/>
<polygon fill="#01b788" stroke="#01b788" points="2016.26,-255.08 2026.85,-255.15 2018.62,-248.49 2016.26,-255.08"/>
<text text-anchor="middle" x="1950.81" y="-241.9" font-family="Times New Roman,serif" font-size="8.00" fill="#01b788">door EC=2s</text>
</g>
<!-- 89c7ded0&#45;0b9a&#45;44c4&#45;b339&#45;de1749cbf9c2&#45;&gt;dd6f59ae&#45;c9bc&#45;45ac&#45;9ca6&#45;7ae324f0cb90 -->
<g id="edge14" class="edge">
<title>89c7ded0&#45;0b9a&#45;44c4&#45;b339&#45;de1749cbf9c2&#45;&gt;dd6f59ae&#45;c9bc&#45;45ac&#45;9ca6&#45;7ae324f0cb90</title>
<path fill="none" stroke="#68ca6a" d="M732.03,-286.77C662.66,-282.44 558.26,-272.34 470.29,-249 433.38,-239.2 393.67,-222.26 364.08,-208.27"/>
<polygon fill="#68ca6a" stroke="#68ca6a" points="365.95,-205.28 355.42,-204.11 362.92,-211.59 365.95,-205.28"/>
<text text-anchor="middle" x="511.17" y="-266.9" font-family="Times New Roman,serif" font-size="8.00" fill="#68ca6a">it_working_desk EC=3s</text>
</g>
<!-- 89c7ded0&#45;0b9a&#45;44c4&#45;b339&#45;de1749cbf9c2&#45;&gt;89c7ded0&#45;0b9a&#45;44c4&#45;b339&#45;de1749cbf9c2 -->
<g id="edge15" class="edge">
<title>89c7ded0&#45;0b9a&#45;44c4&#45;b339&#45;de1749cbf9c2&#45;&gt;89c7ded0&#45;0b9a&#45;44c4&#45;b339&#45;de1749cbf9c2</title>
<path fill="none" stroke="#68ca6a" d="M783.39,-308.15C779.33,-317.54 788.13,-326 809.79,-326 821.98,-326 830.09,-323.32 834.14,-319.31"/>
<polygon fill="#68ca6a" stroke="#68ca6a" points="837.55,-320.11 835.92,-309.64 830.67,-318.84 837.55,-320.11"/>
<text text-anchor="middle" x="809.79" y="-328.9" font-family="Times New Roman,serif" font-size="8.00" fill="#68ca6a">it_working_desk EC=3s</text>
</g>
<!-- 89c7ded0&#45;0b9a&#45;44c4&#45;b339&#45;de1749cbf9c2&#45;&gt;89c7ded0&#45;0b9a&#45;44c4&#45;b339&#45;de1749cbf9c2 -->
<g id="edge24" class="edge">
<title>89c7ded0&#45;0b9a&#45;44c4&#45;b339&#45;de1749cbf9c2&#45;&gt;89c7ded0&#45;0b9a&#45;44c4&#45;b339&#45;de1749cbf9c2</title>
<path fill="none" stroke="#36ff8f" d="M765.54,-308.26C742.59,-325.4 757.35,-344 809.79,-344 854.04,-344 871.46,-330.76 862.04,-316.32"/>
<polygon fill="#36ff8f" stroke="#36ff8f" points="864.63,-313.97 855.11,-309.33 859.66,-318.9 864.63,-313.97"/>
<text text-anchor="middle" x="809.79" y="-346.9" font-family="Times New Roman,serif" font-size="8.00" fill="#36ff8f">target_user EC=2s</text>
</g>
<!-- 89c7ded0&#45;0b9a&#45;44c4&#45;b339&#45;de1749cbf9c2&#45;&gt;1e9d05da&#45;3031&#45;4314&#45;ab62&#45;2b7a911f15e0 -->
<g id="edge25" class="edge">
<title>89c7ded0&#45;0b9a&#45;44c4&#45;b339&#45;de1749cbf9c2&#45;&gt;1e9d05da&#45;3031&#45;4314&#45;ab62&#45;2b7a911f15e0</title>
<path fill="none" stroke="#36ff8f" d="M871.55,-308.41C939.65,-328.39 1053.68,-359.85 1153.79,-378 1220.14,-390.03 1297.44,-397.37 1348.32,-401.3"/>
<polygon fill="#36ff8f" stroke="#36ff8f" points="1347.97,-404.79 1358.2,-402.05 1348.49,-397.81 1347.97,-404.79"/>
<text text-anchor="middle" x="1101.67" y="-376.9" font-family="Times New Roman,serif" font-size="8.00" fill="#36ff8f">target_user EC=35s</text>
</g>
<!-- d57c9a6e&#45;6712&#45;4879&#45;a12c&#45;3595900686c4 -->
<g id="node21" class="node">
<title>d57c9a6e&#45;6712&#45;4879&#45;a12c&#45;3595900686c4</title>
<polygon fill="none" stroke="none" points="1459.29,-369 1350.29,-369 1350.29,-333 1459.29,-333 1459.29,-369"/>
<polyline fill="none" stroke="black" points="1350.29,-333 1459.29,-333"/>
<text text-anchor="middle" x="1404.79" y="-345.57" font-family="Times New Roman,serif" font-size="14.00" fill="#68ca6a">it_working_desk</text>
</g>
<!-- 89c7ded0&#45;0b9a&#45;44c4&#45;b339&#45;de1749cbf9c2&#45;&gt;d57c9a6e&#45;6712&#45;4879&#45;a12c&#45;3595900686c4 -->
<g id="edge40" class="edge">
<title>89c7ded0&#45;0b9a&#45;44c4&#45;b339&#45;de1749cbf9c2&#45;&gt;d57c9a6e&#45;6712&#45;4879&#45;a12c&#45;3595900686c4</title>
<path fill="none" stroke="#68ca6a" d="M887.4,-297.88C1005.04,-309.98 1228.09,-332.93 1338.5,-344.28"/>
<polygon fill="#68ca6a" stroke="#68ca6a" points="1337.98,-347.75 1348.29,-345.29 1338.7,-340.79 1337.98,-347.75"/>
</g>
<!-- 2cfb2438&#45;088d&#45;4676&#45;b72a&#45;40b3f083c7b8 -->
<g id="node27" class="node">
<title>2cfb2438&#45;088d&#45;4676&#45;b72a&#45;40b3f083c7b8</title>
<polygon fill="none" stroke="none" points="1443.54,-315 1366.04,-315 1366.04,-279 1443.54,-279 1443.54,-315"/>
<polyline fill="none" stroke="black" points="1366.04,-279 1443.54,-279"/>
<text text-anchor="middle" x="1404.79" y="-291.57" font-family="Times New Roman,serif" font-size="14.00" fill="#36ff8f">target_user</text>
</g>
<!-- 89c7ded0&#45;0b9a&#45;44c4&#45;b339&#45;de1749cbf9c2&#45;&gt;2cfb2438&#45;088d&#45;4676&#45;b72a&#45;40b3f083c7b8 -->
<g id="edge46" class="edge">
<title>89c7ded0&#45;0b9a&#45;44c4&#45;b339&#45;de1749cbf9c2&#45;&gt;2cfb2438&#45;088d&#45;4676&#45;b72a&#45;40b3f083c7b8</title>
<path fill="none" stroke="#36ff8f" d="M887.4,-290.9C1011.01,-292.36 1251.01,-295.2 1354.42,-296.42"/>
<polygon fill="#36ff8f" stroke="#36ff8f" points="1354.2,-299.91 1364.24,-296.53 1354.29,-292.92 1354.2,-299.91"/>
</g>
<!-- d6848be9&#45;e068&#45;40f6&#45;8c9b&#45;22e34cfb1246 -->
<g id="node4" class="node">
<title>d6848be9&#45;e068&#45;40f6&#45;8c9b&#45;22e34cfb1246</title>
<polygon fill="none" stroke="black" points="1903.55,-479 1764.55,-479 1764.55,-443 1903.55,-443 1903.55,-479"/>
<text text-anchor="middle" x="1834.05" y="-455.57" font-family="Times New Roman,serif" font-size="14.00">Move asset to storage</text>
</g>
<!-- a7b6eed1&#45;4b0a&#45;4d46&#45;992c&#45;6e9878daf456 -->
<g id="node19" class="node">
<title>a7b6eed1&#45;4b0a&#45;4d46&#45;992c&#45;6e9878daf456</title>
<polygon fill="none" stroke="none" points="2112.68,-506 2032.18,-506 2032.18,-470 2112.68,-470 2112.68,-506"/>
<polyline fill="none" stroke="black" points="2032.18,-470 2112.68,-470"/>
<text text-anchor="middle" x="2072.43" y="-482.57" font-family="Times New Roman,serif" font-size="14.00" fill="#f2aa47">admin_user</text>
</g>
<!-- d6848be9&#45;e068&#45;40f6&#45;8c9b&#45;22e34cfb1246&#45;&gt;a7b6eed1&#45;4b0a&#45;4d46&#45;992c&#45;6e9878daf456 -->
<g id="edge38" class="edge">
<title>d6848be9&#45;e068&#45;40f6&#45;8c9b&#45;22e34cfb1246&#45;&gt;a7b6eed1&#45;4b0a&#45;4d46&#45;992c&#45;6e9878daf456</title>
<path fill="none" stroke="#f2aa47" d="M1903.74,-468.85C1941.09,-473.11 1986.5,-478.3 2020.64,-482.2"/>
<polygon fill="#f2aa47" stroke="#f2aa47" points="2019.92,-485.64 2030.25,-483.3 2020.71,-478.68 2019.92,-485.64"/>
</g>
<!-- bfec131d&#45;185d&#45;4a5e&#45;9845&#45;ebc7c2908b00 -->
<g id="node23" class="node">
<title>bfec131d&#45;185d&#45;4a5e&#45;9845&#45;ebc7c2908b00</title>
<polygon fill="none" stroke="none" points="2126.18,-452 2018.68,-452 2018.68,-416 2126.18,-416 2126.18,-452"/>
<polyline fill="none" stroke="black" points="2018.68,-416 2126.18,-416"/>
<text text-anchor="middle" x="2072.43" y="-428.57" font-family="Times New Roman,serif" font-size="14.00" fill="#456754">monitor_storage</text>
</g>
<!-- d6848be9&#45;e068&#45;40f6&#45;8c9b&#45;22e34cfb1246&#45;&gt;bfec131d&#45;185d&#45;4a5e&#45;9845&#45;ebc7c2908b00 -->
<g id="edge42" class="edge">
<title>d6848be9&#45;e068&#45;40f6&#45;8c9b&#45;22e34cfb1246&#45;&gt;bfec131d&#45;185d&#45;4a5e&#45;9845&#45;ebc7c2908b00</title>
<path fill="none" stroke="#456754" d="M1903.74,-453.15C1936.42,-449.42 1975.26,-444.99 2007.33,-441.32"/>
<polygon fill="#456754" stroke="#456754" points="2007.33,-444.85 2016.86,-440.23 2006.53,-437.89 2007.33,-444.85"/>
</g>
<!-- 9185213f&#45;a08c&#45;4a31&#45;b1ae&#45;50074435c8ce&#45;&gt;dd6f59ae&#45;c9bc&#45;45ac&#45;9ca6&#45;7ae324f0cb90 -->
<g id="edge5" class="edge">
<title>9185213f&#45;a08c&#45;4a31&#45;b1ae&#45;50074435c8ce&#45;&gt;dd6f59ae&#45;c9bc&#45;45ac&#45;9ca6&#45;7ae324f0cb90</title>
<path fill="none" stroke="#f2aa47" d="M717.23,-45.47C648.32,-60.55 552.07,-84.13 470.29,-113.5 432.95,-126.91 392.36,-146.25 362.51,-161.43"/>
<polygon fill="#f2aa47" stroke="#f2aa47" points="361.06,-158.24 353.76,-165.92 364.26,-164.46 361.06,-158.24"/>
<text text-anchor="middle" x="511.17" y="-116.9" font-family="Times New Roman,serif" font-size="8.00" fill="#f2aa47">admin_user EC=1s</text>
</g>
<!-- 9185213f&#45;a08c&#45;4a31&#45;b1ae&#45;50074435c8ce&#45;&gt;9185213f&#45;a08c&#45;4a31&#45;b1ae&#45;50074435c8ce -->
<g id="edge4" class="edge">
<title>9185213f&#45;a08c&#45;4a31&#45;b1ae&#45;50074435c8ce&#45;&gt;9185213f&#45;a08c&#45;4a31&#45;b1ae&#45;50074435c8ce</title>
<path fill="none" stroke="#f2aa47" d="M783.39,-45.15C779.33,-54.54 788.13,-63 809.79,-63 821.98,-63 830.09,-60.32 834.14,-56.31"/>
<polygon fill="#f2aa47" stroke="#f2aa47" points="837.55,-57.11 835.92,-46.64 830.67,-55.84 837.55,-57.11"/>
<text text-anchor="middle" x="809.79" y="-65.9" font-family="Times New Roman,serif" font-size="8.00" fill="#f2aa47">admin_user EC=3s</text>
</g>
<!-- 9185213f&#45;a08c&#45;4a31&#45;b1ae&#45;50074435c8ce&#45;&gt;9185213f&#45;a08c&#45;4a31&#45;b1ae&#45;50074435c8ce -->
<g id="edge16" class="edge">
<title>9185213f&#45;a08c&#45;4a31&#45;b1ae&#45;50074435c8ce&#45;&gt;9185213f&#45;a08c&#45;4a31&#45;b1ae&#45;50074435c8ce</title>
<path fill="none" stroke="#63d425" d="M765.54,-45.26C742.59,-62.4 757.35,-81 809.79,-81 854.04,-81 871.46,-67.76 862.04,-53.32"/>
<polygon fill="#63d425" stroke="#63d425" points="864.63,-50.97 855.11,-46.33 859.66,-55.9 864.63,-50.97"/>
<text text-anchor="middle" x="809.79" y="-83.9" font-family="Times New Roman,serif" font-size="8.00" fill="#63d425">self_service_storage EC=38s</text>
</g>
<!-- 9185213f&#45;a08c&#45;4a31&#45;b1ae&#45;50074435c8ce&#45;&gt;470c3a77&#45;41b2&#45;46b5&#45;98ac&#45;2436c5cad914 -->
<g id="edge8" class="edge">
<title>9185213f&#45;a08c&#45;4a31&#45;b1ae&#45;50074435c8ce&#45;&gt;470c3a77&#45;41b2&#45;46b5&#45;98ac&#45;2436c5cad914</title>
<path fill="none" stroke="#f2aa47" d="M929.13,-45.46C972.57,-51.74 1022.21,-58.35 1067.54,-63 1091.75,-65.49 1116.96,-67.74 1142.23,-69.78"/>
<polygon fill="#f2aa47" stroke="#f2aa47" points="1141.68,-73.25 1151.93,-70.56 1142.24,-66.27 1141.68,-73.25"/>
<text text-anchor="middle" x="1101.67" y="-71.9" font-family="Times New Roman,serif" font-size="8.00" fill="#f2aa47">admin_user EC=4s</text>
</g>
<!-- 9f47ba60&#45;5e85&#45;4b60&#45;a6ea&#45;784eb4536798 -->
<g id="node26" class="node">
<title>9f47ba60&#45;5e85&#45;4b60&#45;a6ea&#45;784eb4536798</title>
<polygon fill="none" stroke="none" points="1469.79,-36 1339.79,-36 1339.79,0 1469.79,0 1469.79,-36"/>
<polyline fill="none" stroke="black" points="1339.79,0 1469.79,0"/>
<text text-anchor="middle" x="1404.79" y="-12.57" font-family="Times New Roman,serif" font-size="14.00" fill="#63d425">self_service_storage</text>
</g>
<!-- 9185213f&#45;a08c&#45;4a31&#45;b1ae&#45;50074435c8ce&#45;&gt;9f47ba60&#45;5e85&#45;4b60&#45;a6ea&#45;784eb4536798 -->
<g id="edge45" class="edge">
<title>9185213f&#45;a08c&#45;4a31&#45;b1ae&#45;50074435c8ce&#45;&gt;9f47ba60&#45;5e85&#45;4b60&#45;a6ea&#45;784eb4536798</title>
<path fill="none" stroke="#63d425" d="M1049.85,-23.37C1149.33,-21.86 1257.78,-20.22 1328.06,-19.15"/>
<polygon fill="#63d425" stroke="#63d425" points="1327.97,-22.65 1337.92,-19 1327.87,-15.65 1327.97,-22.65"/>
</g>
<!-- 470c3a77&#45;41b2&#45;46b5&#45;98ac&#45;2436c5cad914&#45;&gt;dd6f59ae&#45;c9bc&#45;45ac&#45;9ca6&#45;7ae324f0cb90 -->
<g id="edge2" class="edge">
<title>470c3a77&#45;41b2&#45;46b5&#45;98ac&#45;2436c5cad914&#45;&gt;dd6f59ae&#45;c9bc&#45;45ac&#45;9ca6&#45;7ae324f0cb90</title>
<path fill="none" stroke="#f2aa47" d="M1337.51,-103.49C1266.82,-122.28 1151.25,-150.38 1049.54,-163 847.58,-188.05 611.98,-190.36 463.92,-188.59"/>
<polygon fill="#f2aa47" stroke="#f2aa47" points="464.09,-185.09 454.05,-188.46 464,-192.09 464.09,-185.09"/>
<text text-anchor="middle" x="809.79" y="-190.9" font-family="Times New Roman,serif" font-size="8.00" fill="#f2aa47">admin_user EC=2s</text>
</g>
<!-- 470c3a77&#45;41b2&#45;46b5&#45;98ac&#45;2436c5cad914&#45;&gt;9185213f&#45;a08c&#45;4a31&#45;b1ae&#45;50074435c8ce -->
<g id="edge7" class="edge">
<title>470c3a77&#45;41b2&#45;46b5&#45;98ac&#45;2436c5cad914&#45;&gt;9185213f&#45;a08c&#45;4a31&#45;b1ae&#45;50074435c8ce</title>
<path fill="none" stroke="#f2aa47" d="M1260.66,-66.5C1220.31,-61.6 1176.37,-56.55 1135.79,-52.5 1111.51,-50.08 1086.18,-47.75 1060.86,-45.54"/>
<polygon fill="#f2aa47" stroke="#f2aa47" points="1061.39,-42.08 1051.13,-44.71 1060.79,-49.05 1061.39,-42.08"/>
<text text-anchor="middle" x="1101.67" y="-55.9" font-family="Times New Roman,serif" font-size="8.00" fill="#f2aa47">admin_user EC=17s</text>
</g>
<!-- 470c3a77&#45;41b2&#45;46b5&#45;98ac&#45;2436c5cad914&#45;&gt;470c3a77&#45;41b2&#45;46b5&#45;98ac&#45;2436c5cad914 -->
<g id="edge6" class="edge">
<title>470c3a77&#45;41b2&#45;46b5&#45;98ac&#45;2436c5cad914&#45;&gt;470c3a77&#45;41b2&#45;46b5&#45;98ac&#45;2436c5cad914</title>
<path fill="none" stroke="#f2aa47" d="M1377.58,-103.15C1373.39,-112.54 1382.46,-121 1404.79,-121 1417.35,-121 1425.72,-118.32 1429.89,-114.31"/>
<polygon fill="#f2aa47" stroke="#f2aa47" points="1433.3,-115.12 1431.72,-104.64 1426.42,-113.81 1433.3,-115.12"/>
<text text-anchor="middle" x="1404.79" y="-123.9" font-family="Times New Roman,serif" font-size="8.00" fill="#f2aa47">admin_user EC=2s</text>
</g>
<!-- 470c3a77&#45;41b2&#45;46b5&#45;98ac&#45;2436c5cad914&#45;&gt;470c3a77&#45;41b2&#45;46b5&#45;98ac&#45;2436c5cad914 -->
<g id="edge17" class="edge">
<title>470c3a77&#45;41b2&#45;46b5&#45;98ac&#45;2436c5cad914&#45;&gt;470c3a77&#45;41b2&#45;46b5&#45;98ac&#45;2436c5cad914</title>
<path fill="none" stroke="#c54ec2" d="M1359.18,-103.26C1335.52,-120.4 1350.73,-139 1404.79,-139 1450.83,-139 1468.69,-125.51 1458.37,-110.92"/>
<polygon fill="#c54ec2" stroke="#c54ec2" points="1461.13,-108.72 1451.5,-104.31 1456.28,-113.76 1461.13,-108.72"/>
<text text-anchor="middle" x="1404.79" y="-141.9" font-family="Times New Roman,serif" font-size="8.00" fill="#c54ec2">repair_desk EC=5s</text>
</g>
<!-- 6e8e084b&#45;c396&#45;4ce2&#45;b258&#45;4900690f5376 -->
<g id="node25" class="node">
<title>6e8e084b&#45;c396&#45;4ce2&#45;b258&#45;4900690f5376</title>
<polygon fill="none" stroke="none" points="1874.68,-103 1793.43,-103 1793.43,-67 1874.68,-67 1874.68,-103"/>
<polyline fill="none" stroke="black" points="1793.43,-67 1874.68,-67"/>
<text text-anchor="middle" x="1834.05" y="-79.58" font-family="Times New Roman,serif" font-size="14.00" fill="#c54ec2">repair_desk</text>
</g>
<!-- 470c3a77&#45;41b2&#45;46b5&#45;98ac&#45;2436c5cad914&#45;&gt;6e8e084b&#45;c396&#45;4ce2&#45;b258&#45;4900690f5376 -->
<g id="edge44" class="edge">
<title>470c3a77&#45;41b2&#45;46b5&#45;98ac&#45;2436c5cad914&#45;&gt;6e8e084b&#45;c396&#45;4ce2&#45;b258&#45;4900690f5376</title>
<path fill="none" stroke="#c54ec2" d="M1656.18,-85C1703.71,-85 1748.74,-85 1781.46,-85"/>
<polygon fill="#c54ec2" stroke="#c54ec2" points="1781.43,-88.5 1791.43,-85 1781.43,-81.5 1781.43,-88.5"/>
</g>
<!-- 1e9d05da&#45;3031&#45;4314&#45;ab62&#45;2b7a911f15e0&#45;&gt;ee99086c&#45;0bbb&#45;444e&#45;87ce&#45;729515f8791d -->
<g id="edge26" class="edge">
<title>1e9d05da&#45;3031&#45;4314&#45;ab62&#45;2b7a911f15e0&#45;&gt;ee99086c&#45;0bbb&#45;444e&#45;87ce&#45;729515f8791d</title>
<path fill="none" stroke="#36ff8f" d="M1449.95,-409.26C1502.05,-412.31 1589.89,-411.17 1655.79,-378 1714.16,-348.62 1701.51,-306.74 1755.54,-270 1758.96,-267.67 1762.59,-265.49 1766.34,-263.45"/>
<polygon fill="#36ff8f" stroke="#36ff8f" points="1767.74,-266.66 1775.11,-259.05 1764.61,-260.4 1767.74,-266.66"/>
<text text-anchor="middle" x="1705.67" y="-368.9" font-family="Times New Roman,serif" font-size="8.00" fill="#36ff8f">target_user EC=6s</text>
</g>
<!-- 1e9d05da&#45;3031&#45;4314&#45;ab62&#45;2b7a911f15e0&#45;&gt;d6848be9&#45;e068&#45;40f6&#45;8c9b&#45;22e34cfb1246 -->
<g id="edge11" class="edge">
<title>1e9d05da&#45;3031&#45;4314&#45;ab62&#45;2b7a911f15e0&#45;&gt;d6848be9&#45;e068&#45;40f6&#45;8c9b&#45;22e34cfb1246</title>
<path fill="none" stroke="#f2aa47" d="M1449.84,-410.14C1513.43,-417.64 1634.62,-432.25 1737.54,-446.5 1742.54,-447.19 1747.67,-447.92 1752.85,-448.67"/>
<polygon fill="#f2aa47" stroke="#f2aa47" points="1752.32,-452.13 1762.72,-450.11 1753.33,-445.2 1752.32,-452.13"/>
<text text-anchor="middle" x="1705.67" y="-448.9" font-family="Times New Roman,serif" font-size="8.00" fill="#f2aa47">admin_user EC=7s</text>
</g>
<!-- 556e3ee9&#45;eda7&#45;4654&#45;a095&#45;857f2b35fc51 -->
<g id="node22" class="node">
<title>556e3ee9&#45;eda7&#45;4654&#45;a095&#45;857f2b35fc51</title>
<polygon fill="none" stroke="none" points="1871.3,-423 1796.8,-423 1796.8,-387 1871.3,-387 1871.3,-423"/>
<polyline fill="none" stroke="black" points="1796.8,-387 1871.3,-387"/>
<text text-anchor="middle" x="1834.05" y="-399.57" font-family="Times New Roman,serif" font-size="14.00" fill="#2c9c17">item_asset</text>
</g>
<!-- 1e9d05da&#45;3031&#45;4314&#45;ab62&#45;2b7a911f15e0&#45;&gt;556e3ee9&#45;eda7&#45;4654&#45;a095&#45;857f2b35fc51 -->
<g id="edge41" class="edge">
<title>1e9d05da&#45;3031&#45;4314&#45;ab62&#45;2b7a911f15e0&#45;&gt;556e3ee9&#45;eda7&#45;4654&#45;a095&#45;857f2b35fc51</title>
<path fill="none" stroke="#2c9c17" d="M1449.91,-405C1530.67,-405 1701.63,-405 1785.13,-405"/>
<polygon fill="#2c9c17" stroke="#2c9c17" points="1785.04,-408.5 1795.04,-405 1785.04,-401.5 1785.04,-408.5"/>
</g>
<!-- 73629ddf&#45;548a&#45;4466&#45;9ddb&#45;6c89bb5df93d&#45;&gt;ee99086c&#45;0bbb&#45;444e&#45;87ce&#45;729515f8791d -->
<g id="edge20" class="edge">
<title>73629ddf&#45;548a&#45;4466&#45;9ddb&#45;6c89bb5df93d&#45;&gt;ee99086c&#45;0bbb&#45;444e&#45;87ce&#45;729515f8791d</title>
<path fill="none" stroke="#01b788" d="M2281.4,-225.67C2275.45,-224.73 2269.54,-223.83 2263.81,-223 2142.83,-205.53 2110.75,-198.95 1989.06,-210.5 1966.57,-212.63 1942.48,-216.48 1920.19,-220.71"/>
<polygon fill="#01b788" stroke="#01b788" points="1919.69,-217.25 1910.54,-222.59 1921.03,-224.12 1919.69,-217.25"/>
<text text-anchor="middle" x="2072.43" y="-212.9" font-family="Times New Roman,serif" font-size="8.00" fill="#01b788">door EC=50s</text>
</g>
<!-- 73629ddf&#45;548a&#45;4466&#45;9ddb&#45;6c89bb5df93d&#45;&gt;2afa7df8&#45;5f0a&#45;4084&#45;8606&#45;47b058d0bff3 -->
<g id="edge28" class="edge">
<title>73629ddf&#45;548a&#45;4466&#45;9ddb&#45;6c89bb5df93d&#45;&gt;2afa7df8&#45;5f0a&#45;4084&#45;8606&#45;47b058d0bff3</title>
<path fill="none" stroke="#02077b" d="M2281.35,-249.9C2275.41,-250.61 2269.52,-251.32 2263.81,-252 2232.32,-255.74 2197.9,-259.75 2167.09,-263.3"/>
<polygon fill="#02077b" stroke="#02077b" points="2166.95,-259.8 2157.41,-264.42 2167.75,-266.75 2166.95,-259.8"/>
<text text-anchor="middle" x="2218.81" y="-264.9" font-family="Times New Roman,serif" font-size="8.00" fill="#02077b">reed_switch_door EC=52s</text>
</g>
<!-- 87c71e78&#45;e1c7&#45;4657&#45;b12f&#45;545b13fab4dd -->
<g id="node20" class="node">
<title>87c71e78&#45;e1c7&#45;4657&#45;b12f&#45;545b13fab4dd</title>
<polygon fill="none" stroke="none" points="2567.06,-285 2513.06,-285 2513.06,-249 2567.06,-249 2567.06,-285"/>
<polyline fill="none" stroke="black" points="2513.06,-249 2567.06,-249"/>
<text text-anchor="middle" x="2540.06" y="-261.57" font-family="Times New Roman,serif" font-size="14.00" fill="#01b788">door</text>
</g>
<!-- 73629ddf&#45;548a&#45;4466&#45;9ddb&#45;6c89bb5df93d&#45;&gt;87c71e78&#45;e1c7&#45;4657&#45;b12f&#45;545b13fab4dd -->
<g id="edge39" class="edge">
<title>73629ddf&#45;548a&#45;4466&#45;9ddb&#45;6c89bb5df93d&#45;&gt;87c71e78&#45;e1c7&#45;4657&#45;b12f&#45;545b13fab4dd</title>
<path fill="none" stroke="#01b788" d="M2444.32,-252.39C2464.34,-255.48 2484.86,-258.64 2501.66,-261.23"/>
<polygon fill="#01b788" stroke="#01b788" points="2500.74,-264.63 2511.15,-262.7 2501.8,-257.71 2500.74,-264.63"/>
</g>
<!-- 6416aa55&#45;17a5&#45;408e&#45;8f53&#45;46395c989def -->
<g id="node24" class="node">
<title>6416aa55&#45;17a5&#45;408e&#45;8f53&#45;46395c989def</title>
<polygon fill="none" stroke="none" points="2599.06,-231 2481.06,-231 2481.06,-195 2599.06,-195 2599.06,-231"/>
<polyline fill="none" stroke="black" points="2481.06,-195 2599.06,-195"/>
<text text-anchor="middle" x="2540.06" y="-207.57" font-family="Times New Roman,serif" font-size="14.00" fill="#02077b">reed_switch_door</text>
</g>
<!-- 73629ddf&#45;548a&#45;4466&#45;9ddb&#45;6c89bb5df93d&#45;&gt;6416aa55&#45;17a5&#45;408e&#45;8f53&#45;46395c989def -->
<g id="edge43" class="edge">
<title>73629ddf&#45;548a&#45;4466&#45;9ddb&#45;6c89bb5df93d&#45;&gt;6416aa55&#45;17a5&#45;408e&#45;8f53&#45;46395c989def</title>
<path fill="none" stroke="#02077b" d="M2444.32,-227.61C2452.73,-226.31 2461.22,-225 2469.5,-223.72"/>
<polygon fill="#02077b" stroke="#02077b" points="2469.76,-227.23 2479.11,-222.24 2468.7,-220.31 2469.76,-227.23"/>
</g>
<!-- 2afa7df8&#45;5f0a&#45;4084&#45;8606&#45;47b058d0bff3&#45;&gt;ee99086c&#45;0bbb&#45;444e&#45;87ce&#45;729515f8791d -->
<g id="edge18" class="edge">
<title>2afa7df8&#45;5f0a&#45;4084&#45;8606&#45;47b058d0bff3&#45;&gt;ee99086c&#45;0bbb&#45;444e&#45;87ce&#45;729515f8791d</title>
<path fill="none" stroke="#01b788" d="M1988.92,-262.13C1966.73,-258.94 1942.69,-255.48 1920.35,-252.27"/>
<polygon fill="#01b788" stroke="#01b788" points="1921.09,-248.84 1910.69,-250.88 1920.09,-255.77 1921.09,-248.84"/>
<text text-anchor="middle" x="1950.81" y="-261.9" font-family="Times New Roman,serif" font-size="8.00" fill="#01b788">door EC=5s</text>
</g>
<!-- 2afa7df8&#45;5f0a&#45;4084&#45;8606&#45;47b058d0bff3&#45;&gt;73629ddf&#45;548a&#45;4466&#45;9ddb&#45;6c89bb5df93d -->
<g id="edge22" class="edge">
<title>2afa7df8&#45;5f0a&#45;4084&#45;8606&#45;47b058d0bff3&#45;&gt;73629ddf&#45;548a&#45;4466&#45;9ddb&#45;6c89bb5df93d</title>
<path fill="none" stroke="#01b788" d="M2120.44,-255.51C2137.03,-249.86 2156,-244.38 2173.81,-241.5 2204.96,-236.45 2239.4,-235 2270.21,-235.15"/>
<polygon fill="#01b788" stroke="#01b788" points="2269.83,-238.65 2279.87,-235.26 2269.91,-231.65 2269.83,-238.65"/>
<text text-anchor="middle" x="2218.81" y="-243.9" font-family="Times New Roman,serif" font-size="8.00" fill="#01b788">door EC=3s</text>
</g>
<!-- 2afa7df8&#45;5f0a&#45;4084&#45;8606&#45;47b058d0bff3&#45;&gt;73629ddf&#45;548a&#45;4466&#45;9ddb&#45;6c89bb5df93d -->
<g id="edge27" class="edge">
<title>2afa7df8&#45;5f0a&#45;4084&#45;8606&#45;47b058d0bff3&#45;&gt;73629ddf&#45;548a&#45;4466&#45;9ddb&#45;6c89bb5df93d</title>
<path fill="none" stroke="#02077b" d="M2156.22,-289.24C2189.92,-292.86 2229.06,-293.74 2263.81,-286 2283.92,-281.52 2304.78,-272.46 2322.07,-263.55"/>
<polygon fill="#02077b" stroke="#02077b" points="2323.29,-266.86 2330.47,-259.07 2320,-260.69 2323.29,-266.86"/>
<text text-anchor="middle" x="2218.81" y="-293.9" font-family="Times New Roman,serif" font-size="8.00" fill="#02077b">reed_switch_door EC=4s</text>
</g>
<!-- f7378077&#45;bec7&#45;4ac5&#45;bb00&#45;4da941941b8d -->
<g id="node10" class="node">
<title>f7378077&#45;bec7&#45;4ac5&#45;bb00&#45;4da941941b8d</title>
<ellipse fill="#f2aa47" stroke="black" cx="72.52" cy="-212" rx="53.56" ry="18"/>
<text text-anchor="middle" x="72.52" y="-206.57" font-family="Times New Roman,serif" font-size="14.00">admin_user</text>
</g>
<!-- f7378077&#45;bec7&#45;4ac5&#45;bb00&#45;4da941941b8d&#45;&gt;dd6f59ae&#45;c9bc&#45;45ac&#45;9ca6&#45;7ae324f0cb90 -->
<g id="edge29" class="edge">
<title>f7378077&#45;bec7&#45;4ac5&#45;bb00&#45;4da941941b8d&#45;&gt;dd6f59ae&#45;c9bc&#45;45ac&#45;9ca6&#45;7ae324f0cb90</title>
<path fill="none" stroke="#f2aa47" d="M123.8,-206.41C137.92,-204.83 154.02,-203.04 170.76,-201.18"/>
<polygon fill="#f2aa47" stroke="#f2aa47" points="170.78,-204.7 180.33,-200.11 170.01,-197.74 170.78,-204.7"/>
</g>
<!-- 426cf1c5&#45;a129&#45;4d40&#45;9f80&#45;b6bae1a18424 -->
<g id="node11" class="node">
<title>426cf1c5&#45;a129&#45;4d40&#45;9f80&#45;b6bae1a18424</title>
<ellipse fill="#01b788" stroke="black" cx="1834.05" cy="-351" rx="28.61" ry="18"/>
<text text-anchor="middle" x="1834.05" y="-345.57" font-family="Times New Roman,serif" font-size="14.00">door</text>
</g>
<!-- 426cf1c5&#45;a129&#45;4d40&#45;9f80&#45;b6bae1a18424&#45;&gt;2afa7df8&#45;5f0a&#45;4084&#45;8606&#45;47b058d0bff3 -->
<g id="edge30" class="edge">
<title>426cf1c5&#45;a129&#45;4d40&#45;9f80&#45;b6bae1a18424&#45;&gt;2afa7df8&#45;5f0a&#45;4084&#45;8606&#45;47b058d0bff3</title>
<path fill="none" stroke="#01b788" d="M1859.9,-342.91C1893.84,-331.85 1955.98,-311.61 2004.16,-295.91"/>
<polygon fill="#01b788" stroke="#01b788" points="2004.97,-299.33 2013.4,-292.9 2002.81,-292.67 2004.97,-299.33"/>
</g>
<!-- 0f098475&#45;291e&#45;4834&#45;9efc&#45;9af33eee754f -->
<g id="node12" class="node">
<title>0f098475&#45;291e&#45;4834&#45;9efc&#45;9af33eee754f</title>
<ellipse fill="#68ca6a" stroke="black" cx="72.52" cy="-158" rx="72.52" ry="18"/>
<text text-anchor="middle" x="72.52" y="-152.57" font-family="Times New Roman,serif" font-size="14.00">it_working_desk</text>
</g>
<!-- 0f098475&#45;291e&#45;4834&#45;9efc&#45;9af33eee754f&#45;&gt;dd6f59ae&#45;c9bc&#45;45ac&#45;9ca6&#45;7ae324f0cb90 -->
<g id="edge31" class="edge">
<title>0f098475&#45;291e&#45;4834&#45;9efc&#45;9af33eee754f&#45;&gt;dd6f59ae&#45;c9bc&#45;45ac&#45;9ca6&#45;7ae324f0cb90</title>
<path fill="none" stroke="#68ca6a" d="M139.5,-165.34C149.29,-166.43 159.7,-167.59 170.36,-168.78"/>
<polygon fill="#68ca6a" stroke="#68ca6a" points="169.73,-172.23 180.05,-169.85 170.5,-165.27 169.73,-172.23"/>
</g>
<!-- ffd10fea&#45;b2fd&#45;4fd1&#45;b471&#45;7de3b16173b0 -->
<g id="node13" class="node">
<title>ffd10fea&#45;b2fd&#45;4fd1&#45;b471&#45;7de3b16173b0</title>
<ellipse fill="#2c9c17" stroke="black" cx="809.79" cy="-450" rx="49.57" ry="18"/>
<text text-anchor="middle" x="809.79" y="-444.57" font-family="Times New Roman,serif" font-size="14.00">item_asset</text>
</g>
<!-- ffd10fea&#45;b2fd&#45;4fd1&#45;b471&#45;7de3b16173b0&#45;&gt;1e9d05da&#45;3031&#45;4314&#45;ab62&#45;2b7a911f15e0 -->
<g id="edge32" class="edge">
<title>ffd10fea&#45;b2fd&#45;4fd1&#45;b471&#45;7de3b16173b0&#45;&gt;1e9d05da&#45;3031&#45;4314&#45;ab62&#45;2b7a911f15e0</title>
<path fill="none" stroke="#2c9c17" d="M858.82,-446.36C967.71,-438.09 1232.87,-417.97 1348.43,-409.2"/>
<polygon fill="#2c9c17" stroke="#2c9c17" points="1348.58,-412.7 1358.28,-408.45 1348.05,-405.72 1348.58,-412.7"/>
</g>
<!-- 59ebfdd8&#45;227e&#45;4874&#45;adce&#45;c654d85db439 -->
<g id="node14" class="node">
<title>59ebfdd8&#45;227e&#45;4874&#45;adce&#45;c654d85db439</title>
<ellipse fill="#456754" stroke="black" cx="1404.79" cy="-464" rx="71.52" ry="18"/>
<text text-anchor="middle" x="1404.79" y="-458.57" font-family="Times New Roman,serif" font-size="14.00">monitor_storage</text>
</g>
<!-- 59ebfdd8&#45;227e&#45;4874&#45;adce&#45;c654d85db439&#45;&gt;d6848be9&#45;e068&#45;40f6&#45;8c9b&#45;22e34cfb1246 -->
<g id="edge33" class="edge">
<title>59ebfdd8&#45;227e&#45;4874&#45;adce&#45;c654d85db439&#45;&gt;d6848be9&#45;e068&#45;40f6&#45;8c9b&#45;22e34cfb1246</title>
<path fill="none" stroke="#456754" d="M1476.34,-463.5C1552.36,-462.97 1673.11,-462.12 1752.73,-461.56"/>
<polygon fill="#456754" stroke="#456754" points="1752.67,-465.06 1762.65,-461.49 1752.62,-458.06 1752.67,-465.06"/>
</g>
<!-- 033d64ed&#45;1254&#45;48a1&#45;9a69&#45;cf6e1a547bd4 -->
<g id="node15" class="node">
<title>033d64ed&#45;1254&#45;48a1&#45;9a69&#45;cf6e1a547bd4</title>
<ellipse fill="#02077b" stroke="black" cx="1834.05" cy="-297" rx="78.51" ry="18"/>
<text text-anchor="middle" x="1834.05" y="-291.57" font-family="Times New Roman,serif" font-size="14.00">reed_switch_door</text>
</g>
<!-- 033d64ed&#45;1254&#45;48a1&#45;9a69&#45;cf6e1a547bd4&#45;&gt;2afa7df8&#45;5f0a&#45;4084&#45;8606&#45;47b058d0bff3 -->
<g id="edge34" class="edge">
<title>033d64ed&#45;1254&#45;48a1&#45;9a69&#45;cf6e1a547bd4&#45;&gt;2afa7df8&#45;5f0a&#45;4084&#45;8606&#45;47b058d0bff3</title>
<path fill="none" stroke="#02077b" d="M1909.21,-291.52C1929.3,-289.89 1951.02,-288.01 1971.06,-286 1973.13,-285.79 1975.22,-285.58 1977.34,-285.36"/>
<polygon fill="#02077b" stroke="#02077b" points="1977.67,-288.84 1987.25,-284.3 1976.93,-281.88 1977.67,-288.84"/>
</g>
<!-- a656bbe1&#45;5e59&#45;446c&#45;a21e&#45;142add68b4fe -->
<g id="node16" class="node">
<title>a656bbe1&#45;5e59&#45;446c&#45;a21e&#45;142add68b4fe</title>
<ellipse fill="#c54ec2" stroke="black" cx="809.79" cy="-232" rx="54.06" ry="18"/>
<text text-anchor="middle" x="809.79" y="-226.57" font-family="Times New Roman,serif" font-size="14.00">repair_desk</text>
</g>
<!-- a656bbe1&#45;5e59&#45;446c&#45;a21e&#45;142add68b4fe&#45;&gt;470c3a77&#45;41b2&#45;46b5&#45;98ac&#45;2436c5cad914 -->
<g id="edge35" class="edge">
<title>a656bbe1&#45;5e59&#45;446c&#45;a21e&#45;142add68b4fe&#45;&gt;470c3a77&#45;41b2&#45;46b5&#45;98ac&#45;2436c5cad914</title>
<path fill="none" stroke="#c54ec2" d="M859.19,-239.75C926.74,-247.93 1050.57,-253.12 1135.79,-199 1148.92,-190.66 1141.67,-178.74 1153.79,-169 1191.62,-138.58 1240.99,-118.95 1285.85,-106.39"/>
<polygon fill="#c54ec2" stroke="#c54ec2" points="1286.64,-109.8 1295.39,-103.82 1284.82,-103.05 1286.64,-109.8"/>
</g>
<!-- cff8253a&#45;e212&#45;46fe&#45;9b7d&#45;fa4285c4ddb3 -->
<g id="node17" class="node">
<title>cff8253a&#45;e212&#45;46fe&#45;9b7d&#45;fa4285c4ddb3</title>
<ellipse fill="#63d425" stroke="black" cx="317.17" cy="-27" rx="86.49" ry="18"/>
<text text-anchor="middle" x="317.17" y="-21.57" font-family="Times New Roman,serif" font-size="14.00">self_service_storage</text>
</g>
<!-- cff8253a&#45;e212&#45;46fe&#45;9b7d&#45;fa4285c4ddb3&#45;&gt;9185213f&#45;a08c&#45;4a31&#45;b1ae&#45;50074435c8ce -->
<g id="edge36" class="edge">
<title>cff8253a&#45;e212&#45;46fe&#45;9b7d&#45;fa4285c4ddb3&#45;&gt;9185213f&#45;a08c&#45;4a31&#45;b1ae&#45;50074435c8ce</title>
<path fill="none" stroke="#63d425" d="M403.91,-27C447.34,-27 502.55,-27 558.14,-27"/>
<polygon fill="#63d425" stroke="#63d425" points="558.11,-30.5 568.11,-27 558.11,-23.5 558.11,-30.5"/>
</g>
<!-- 12a7dda2&#45;f6dc&#45;4c0d&#45;8d89&#45;bb10d2b99f28 -->
<g id="node18" class="node">
<title>12a7dda2&#45;f6dc&#45;4c0d&#45;8d89&#45;bb10d2b99f28</title>
<ellipse fill="#36ff8f" stroke="black" cx="1404.79" cy="-196" rx="51.56" ry="18"/>
<text text-anchor="middle" x="1404.79" y="-190.57" font-family="Times New Roman,serif" font-size="14.00">target_user</text>
</g>
<!-- 12a7dda2&#45;f6dc&#45;4c0d&#45;8d89&#45;bb10d2b99f28&#45;&gt;ee99086c&#45;0bbb&#45;444e&#45;87ce&#45;729515f8791d -->
<g id="edge37" class="edge">
<title>12a7dda2&#45;f6dc&#45;4c0d&#45;8d89&#45;bb10d2b99f28&#45;&gt;ee99086c&#45;0bbb&#45;444e&#45;87ce&#45;729515f8791d</title>
<path fill="none" stroke="#36ff8f" d="M1454.8,-201.05C1526.2,-208.4 1659.84,-222.16 1747.63,-231.2"/>
<polygon fill="#36ff8f" stroke="#36ff8f" points="1747.09,-234.67 1757.4,-232.21 1747.81,-227.7 1747.09,-234.67"/>
</g>
</g>
</svg>
