<?xml version="1.0" encoding="UTF-8" standalone="no"?>
<!DOCTYPE svg PUBLIC "-//W3C//DTD SVG 1.1//EN"
 "http://www.w3.org/Graphics/SVG/1.1/DTD/svg11.dtd">
<!-- Generated by graphviz version 9.0.0 (20230911.1827)
 -->
<!-- Title: ocdfg Pages: 1 -->
<svg width="2850pt" height="525pt"
 viewBox="0.00 0.00 2849.56 525.00" xmlns="http://www.w3.org/2000/svg" xmlns:xlink="http://www.w3.org/1999/xlink">
<g id="graph0" class="graph" transform="scale(1 1) rotate(0) translate(4 521)">
<title>ocdfg</title>
<polygon fill="white" stroke="none" points="-4,4 -4,-521 2845.56,-521 2845.56,4 -4,4"/>
<!-- ab39c2df&#45;1788&#45;416a&#45;81fd&#45;2bfb940171fa -->
<g id="node1" class="node">
<title>ab39c2df&#45;1788&#45;416a&#45;81fd&#45;2bfb940171fa</title>
<polygon fill="#d0d0ff" stroke="black" points="530.04,-201.75 259.79,-201.75 259.79,-162.25 530.04,-162.25 530.04,-201.75"/>
<text text-anchor="middle" x="394.92" y="-184.45" font-family="Times New Roman,serif" font-size="14.00">Check asset quality/Check&#45;In asset to storage</text>
<text text-anchor="middle" x="394.92" y="-168.7" font-family="Times New Roman,serif" font-size="14.00">E=8</text>
</g>
<!-- ab39c2df&#45;1788&#45;416a&#45;81fd&#45;2bfb940171fa&#45;&gt;ab39c2df&#45;1788&#45;416a&#45;81fd&#45;2bfb940171fa -->
<g id="edge9" class="edge">
<title>ab39c2df&#45;1788&#45;416a&#45;81fd&#45;2bfb940171fa&#45;&gt;ab39c2df&#45;1788&#45;416a&#45;81fd&#45;2bfb940171fa</title>
<path fill="none" stroke="#f2aa47" stroke-width="1.32" d="M377.23,-202.2C375.3,-211.56 381.19,-219.75 394.92,-219.75 402.21,-219.75 407.29,-217.44 410.16,-213.87"/>
<polygon fill="#f2aa47" stroke="#f2aa47" stroke-width="1.32" points="413.57,-214.66 412.2,-204.15 406.72,-213.22 413.57,-214.66"/>
<text text-anchor="middle" x="394.92" y="-222.65" font-family="Times New Roman,serif" font-size="8.00" fill="#f2aa47">admin_user EC=3</text>
</g>
<!-- ab39c2df&#45;1788&#45;416a&#45;81fd&#45;2bfb940171fa&#45;&gt;ab39c2df&#45;1788&#45;416a&#45;81fd&#45;2bfb940171fa -->
<g id="edge12" class="edge">
<title>ab39c2df&#45;1788&#45;416a&#45;81fd&#45;2bfb940171fa&#45;&gt;ab39c2df&#45;1788&#45;416a&#45;81fd&#45;2bfb940171fa</title>
<path fill="none" stroke="#68ca6a" stroke-width="2.6" d="M364.78,-202.01C351.03,-219.38 361.08,-237.75 394.92,-237.75 420.56,-237.75 432.54,-227.2 430.85,-214.53"/>
<polygon fill="#68ca6a" stroke="#68ca6a" stroke-width="2.6" points="434.09,-213.18 426.71,-205.58 427.74,-216.12 434.09,-213.18"/>
<text text-anchor="middle" x="394.92" y="-240.65" font-family="Times New Roman,serif" font-size="8.00" fill="#68ca6a">it_working_desk EC=5</text>
</g>
<!-- 0e0c2aed&#45;b501&#45;4968&#45;96e9&#45;6381b3673f75 -->
<g id="node3" class="node">
<title>0e0c2aed&#45;b501&#45;4968&#45;96e9&#45;6381b3673f75</title>
<polygon fill="#e4e4ff" stroke="black" points="974.67,-311.75 819.92,-311.75 819.92,-272.25 974.67,-272.25 974.67,-311.75"/>
<text text-anchor="middle" x="897.29" y="-294.45" font-family="Times New Roman,serif" font-size="14.00">Handover asset to admin</text>
<text text-anchor="middle" x="897.29" y="-278.7" font-family="Times New Roman,serif" font-size="14.00">E=5</text>
</g>
<!-- ab39c2df&#45;1788&#45;416a&#45;81fd&#45;2bfb940171fa&#45;&gt;0e0c2aed&#45;b501&#45;4968&#45;96e9&#45;6381b3673f75 -->
<g id="edge13" class="edge">
<title>ab39c2df&#45;1788&#45;416a&#45;81fd&#45;2bfb940171fa&#45;&gt;0e0c2aed&#45;b501&#45;4968&#45;96e9&#45;6381b3673f75</title>
<path fill="none" stroke="#68ca6a" stroke-width="1.8" d="M530.27,-199.56C567.18,-207.94 606.19,-220.3 639.54,-238.5 649.34,-243.85 647.55,-251.04 657.54,-256 703.63,-278.86 760.41,-288.08 807.04,-291.48"/>
<polygon fill="#68ca6a" stroke="#68ca6a" stroke-width="1.8" points="806.67,-294.96 816.87,-292.1 807.11,-287.98 806.67,-294.96"/>
<text text-anchor="middle" x="593.79" y="-240.9" font-family="Times New Roman,serif" font-size="8.00" fill="#68ca6a">it_working_desk EC=3</text>
</g>
<!-- 4ce5ddee&#45;4414&#45;4605&#45;87c5&#45;22ced5d9cef4 -->
<g id="node5" class="node">
<title>4ce5ddee&#45;4414&#45;4605&#45;87c5&#45;22ced5d9cef4</title>
<polygon fill="#ebebff" stroke="black" points="1137.04,-41.75 657.54,-41.75 657.54,-2.25 1137.04,-2.25 1137.04,-41.75"/>
<text text-anchor="middle" x="897.29" y="-24.45" font-family="Times New Roman,serif" font-size="14.00">Pick asset from self service desk/Pick asset from warehouse/Move asset to storage</text>
<text text-anchor="middle" x="897.29" y="-8.7" font-family="Times New Roman,serif" font-size="14.00">E=4</text>
</g>
<!-- ab39c2df&#45;1788&#45;416a&#45;81fd&#45;2bfb940171fa&#45;&gt;4ce5ddee&#45;4414&#45;4605&#45;87c5&#45;22ced5d9cef4 -->
<g id="edge3" class="edge">
<title>ab39c2df&#45;1788&#45;416a&#45;81fd&#45;2bfb940171fa&#45;&gt;4ce5ddee&#45;4414&#45;4605&#45;87c5&#45;22ced5d9cef4</title>
<path fill="none" stroke="#f2aa47" d="M416.54,-161.81C444.04,-136.2 495.39,-92.82 548.04,-71.5 578.94,-58.99 612.5,-49.56 646.18,-42.47"/>
<polygon fill="#f2aa47" stroke="#f2aa47" points="646.53,-45.98 655.63,-40.56 645.13,-39.12 646.53,-45.98"/>
<text text-anchor="middle" x="593.79" y="-74.9" font-family="Times New Roman,serif" font-size="8.00" fill="#f2aa47">admin_user EC=1</text>
</g>
<!-- 77d66745&#45;cacb&#45;4a8e&#45;8c29&#45;2dab1f5abee0 -->
<g id="node6" class="node">
<title>77d66745&#45;cacb&#45;4a8e&#45;8c29&#45;2dab1f5abee0</title>
<polygon fill="#9b9bff" stroke="black" points="1766.54,-105.75 1264.54,-105.75 1264.54,-66.25 1766.54,-66.25 1766.54,-105.75"/>
<text text-anchor="middle" x="1515.54" y="-88.45" font-family="Times New Roman,serif" font-size="14.00">Unpack asset/Test asset quality and functionality/Install and configure asset/Label asset</text>
<text text-anchor="middle" x="1515.54" y="-72.7" font-family="Times New Roman,serif" font-size="14.00">E=16</text>
</g>
<!-- ab39c2df&#45;1788&#45;416a&#45;81fd&#45;2bfb940171fa&#45;&gt;77d66745&#45;cacb&#45;4a8e&#45;8c29&#45;2dab1f5abee0 -->
<g id="edge1" class="edge">
<title>ab39c2df&#45;1788&#45;416a&#45;81fd&#45;2bfb940171fa&#45;&gt;77d66745&#45;cacb&#45;4a8e&#45;8c29&#45;2dab1f5abee0</title>
<path fill="none" stroke="#f2aa47" stroke-width="1.32" d="M530.21,-164.02C571.05,-158.9 616.09,-153.61 657.54,-149.5 856.82,-129.75 1082.71,-113.26 1252.54,-102.03"/>
<polygon fill="#f2aa47" stroke="#f2aa47" stroke-width="1.32" points="1252.67,-105.53 1262.42,-101.38 1252.21,-98.55 1252.67,-105.53"/>
<text text-anchor="middle" x="897.29" y="-152.9" font-family="Times New Roman,serif" font-size="8.00" fill="#f2aa47">admin_user EC=3</text>
</g>
<!-- 074a5727&#45;9654&#45;4c85&#45;93e3&#45;d386432483c5 -->
<g id="node7" class="node">
<title>074a5727&#45;9654&#45;4c85&#45;93e3&#45;d386432483c5</title>
<polygon fill="#ffffff" stroke="black" points="1560.29,-429.75 1470.79,-429.75 1470.79,-390.25 1560.29,-390.25 1560.29,-429.75"/>
<text text-anchor="middle" x="1515.54" y="-412.45" font-family="Times New Roman,serif" font-size="14.00">checkin from</text>
<text text-anchor="middle" x="1515.54" y="-396.7" font-family="Times New Roman,serif" font-size="14.00">E=1</text>
</g>
<!-- ab39c2df&#45;1788&#45;416a&#45;81fd&#45;2bfb940171fa&#45;&gt;074a5727&#45;9654&#45;4c85&#45;93e3&#45;d386432483c5 -->
<g id="edge10" class="edge">
<title>ab39c2df&#45;1788&#45;416a&#45;81fd&#45;2bfb940171fa&#45;&gt;074a5727&#45;9654&#45;4c85&#45;93e3&#45;d386432483c5</title>
<path fill="none" stroke="#f2aa47" d="M414.1,-202.17C453.53,-244.25 551.88,-340.6 657.54,-378 732.66,-404.58 1281.38,-409.08 1459.14,-409.85"/>
<polygon fill="#f2aa47" stroke="#f2aa47" points="1459.02,-413.34 1469.03,-409.89 1459.05,-406.34 1459.02,-413.34"/>
<text text-anchor="middle" x="897.29" y="-408.9" font-family="Times New Roman,serif" font-size="8.00" fill="#f2aa47">admin_user EC=1</text>
</g>
<!-- d9826148&#45;2057&#45;4b33&#45;ae63&#45;64737a3f64f8 -->
<g id="node2" class="node">
<title>d9826148&#45;2057&#45;4b33&#45;ae63&#45;64737a3f64f8</title>
<polygon fill="#f8f8ff" stroke="black" points="2035.3,-259.75 1885.8,-259.75 1885.8,-220.25 2035.3,-220.25 2035.3,-259.75"/>
<text text-anchor="middle" x="1960.55" y="-242.45" font-family="Times New Roman,serif" font-size="14.00">Enter room/Leave room</text>
<text text-anchor="middle" x="1960.55" y="-226.7" font-family="Times New Roman,serif" font-size="14.00">E=2</text>
</g>
<!-- d9826148&#45;2057&#45;4b33&#45;ae63&#45;64737a3f64f8&#45;&gt;0e0c2aed&#45;b501&#45;4968&#45;96e9&#45;6381b3673f75 -->
<g id="edge23" class="edge">
<title>d9826148&#45;2057&#45;4b33&#45;ae63&#45;64737a3f64f8&#45;&gt;0e0c2aed&#45;b501&#45;4968&#45;96e9&#45;6381b3673f75</title>
<path fill="none" stroke="#36ff8f" stroke-width="1.8" d="M1885.44,-241.23C1758.32,-243.61 1490.54,-249.75 1264.54,-262.5 1169.87,-267.84 1061.65,-276.93 987.54,-283.61"/>
<polygon fill="#36ff8f" stroke="#36ff8f" stroke-width="1.8" points="987.39,-280.11 977.74,-284.49 988.02,-287.08 987.39,-280.11"/>
<text text-anchor="middle" x="1515.54" y="-264.9" font-family="Times New Roman,serif" font-size="8.00" fill="#36ff8f">target_user EC=2</text>
</g>
<!-- 181c2b11&#45;2838&#45;4e78&#45;9271&#45;ff319031d65d -->
<g id="node8" class="node">
<title>181c2b11&#45;2838&#45;4e78&#45;9271&#45;ff319031d65d</title>
<polygon fill="#f8f8ff" stroke="black" points="2605.06,-259.75 2442.81,-259.75 2442.81,-220.25 2605.06,-220.25 2605.06,-259.75"/>
<text text-anchor="middle" x="2523.93" y="-242.45" font-family="Times New Roman,serif" font-size="14.00">reed_switch_door_closed</text>
<text text-anchor="middle" x="2523.93" y="-226.7" font-family="Times New Roman,serif" font-size="14.00">E=2</text>
</g>
<!-- d9826148&#45;2057&#45;4b33&#45;ae63&#45;64737a3f64f8&#45;&gt;181c2b11&#45;2838&#45;4e78&#45;9271&#45;ff319031d65d -->
<g id="edge19" class="edge">
<title>d9826148&#45;2057&#45;4b33&#45;ae63&#45;64737a3f64f8&#45;&gt;181c2b11&#45;2838&#45;4e78&#45;9271&#45;ff319031d65d</title>
<path fill="none" stroke="#01b788" d="M2035.78,-230.61C2042.96,-229.95 2050.14,-229.4 2057.06,-229 2118.65,-225.46 2236.07,-221.7 2424.81,-231 2426.87,-231.1 2428.95,-231.21 2431.04,-231.33"/>
<polygon fill="#01b788" stroke="#01b788" points="2430.67,-234.82 2440.87,-231.96 2431.12,-227.83 2430.67,-234.82"/>
<text text-anchor="middle" x="2240.93" y="-228.9" font-family="Times New Roman,serif" font-size="8.00" fill="#01b788">door EC=1</text>
</g>
<!-- fe135b47&#45;f09b&#45;4cbc&#45;a1bb&#45;2cc626c972b3 -->
<g id="node9" class="node">
<title>fe135b47&#45;f09b&#45;4cbc&#45;a1bb&#45;2cc626c972b3</title>
<polygon fill="#f8f8ff" stroke="black" points="2324.31,-293.75 2157.56,-293.75 2157.56,-254.25 2324.31,-254.25 2324.31,-293.75"/>
<text text-anchor="middle" x="2240.93" y="-276.45" font-family="Times New Roman,serif" font-size="14.00">reed_switch_door_opened</text>
<text text-anchor="middle" x="2240.93" y="-260.7" font-family="Times New Roman,serif" font-size="14.00">E=2</text>
</g>
<!-- d9826148&#45;2057&#45;4b33&#45;ae63&#45;64737a3f64f8&#45;&gt;fe135b47&#45;f09b&#45;4cbc&#45;a1bb&#45;2cc626c972b3 -->
<g id="edge21" class="edge">
<title>d9826148&#45;2057&#45;4b33&#45;ae63&#45;64737a3f64f8&#45;&gt;fe135b47&#45;f09b&#45;4cbc&#45;a1bb&#45;2cc626c972b3</title>
<path fill="none" stroke="#01b788" d="M2035.62,-234.26C2067.76,-233.19 2105.72,-233.85 2139.56,-239.5 2153.33,-241.8 2167.73,-245.76 2181.2,-250.2"/>
<polygon fill="#01b788" stroke="#01b788" points="2179.74,-253.39 2190.33,-253.34 2182.02,-246.78 2179.74,-253.39"/>
<text text-anchor="middle" x="2098.31" y="-241.9" font-family="Times New Roman,serif" font-size="8.00" fill="#01b788">door EC=1</text>
</g>
<!-- 0e0c2aed&#45;b501&#45;4968&#45;96e9&#45;6381b3673f75&#45;&gt;ab39c2df&#45;1788&#45;416a&#45;81fd&#45;2bfb940171fa -->
<g id="edge14" class="edge">
<title>0e0c2aed&#45;b501&#45;4968&#45;96e9&#45;6381b3673f75&#45;&gt;ab39c2df&#45;1788&#45;416a&#45;81fd&#45;2bfb940171fa</title>
<path fill="none" stroke="#68ca6a" stroke-width="1.4" d="M819.64,-288.96C748.24,-284.62 639.37,-274.16 548.04,-249 511.9,-239.04 473.27,-221.94 443.98,-207.5"/>
<polygon fill="#68ca6a" stroke="#68ca6a" stroke-width="1.4" points="445.64,-204.42 435.13,-203.07 442.5,-210.68 445.64,-204.42"/>
<text text-anchor="middle" x="593.79" y="-269.9" font-family="Times New Roman,serif" font-size="8.00" fill="#68ca6a">it_working_desk EC=2</text>
</g>
<!-- 0e0c2aed&#45;b501&#45;4968&#45;96e9&#45;6381b3673f75&#45;&gt;0e0c2aed&#45;b501&#45;4968&#45;96e9&#45;6381b3673f75 -->
<g id="edge15" class="edge">
<title>0e0c2aed&#45;b501&#45;4968&#45;96e9&#45;6381b3673f75&#45;&gt;0e0c2aed&#45;b501&#45;4968&#45;96e9&#45;6381b3673f75</title>
<path fill="none" stroke="#68ca6a" stroke-width="1.4" d="M869.4,-312.2C866.36,-321.56 875.66,-329.75 897.29,-329.75 909.12,-329.75 917.27,-327.3 921.72,-323.55"/>
<polygon fill="#68ca6a" stroke="#68ca6a" stroke-width="1.4" points="924.99,-324.81 924.56,-314.22 918.3,-322.77 924.99,-324.81"/>
<text text-anchor="middle" x="897.29" y="-332.65" font-family="Times New Roman,serif" font-size="8.00" fill="#68ca6a">it_working_desk EC=2</text>
</g>
<!-- 0e0c2aed&#45;b501&#45;4968&#45;96e9&#45;6381b3673f75&#45;&gt;0e0c2aed&#45;b501&#45;4968&#45;96e9&#45;6381b3673f75 -->
<g id="edge24" class="edge">
<title>0e0c2aed&#45;b501&#45;4968&#45;96e9&#45;6381b3673f75&#45;&gt;0e0c2aed&#45;b501&#45;4968&#45;96e9&#45;6381b3673f75</title>
<path fill="none" stroke="#36ff8f" stroke-width="2.6" d="M849.78,-312.01C828.1,-329.38 843.94,-347.75 897.29,-347.75 939.8,-347.75 958.5,-336.08 953.37,-322.55"/>
<polygon fill="#36ff8f" stroke="#36ff8f" stroke-width="2.6" points="956.31,-320.62 947.29,-315.06 950.87,-325.03 956.31,-320.62"/>
<text text-anchor="middle" x="897.29" y="-350.65" font-family="Times New Roman,serif" font-size="8.00" fill="#36ff8f">target_user EC=3</text>
</g>
<!-- 0e0c2aed&#45;b501&#45;4968&#45;96e9&#45;6381b3673f75&#45;&gt;074a5727&#45;9654&#45;4c85&#45;93e3&#45;d386432483c5 -->
<g id="edge25" class="edge">
<title>0e0c2aed&#45;b501&#45;4968&#45;96e9&#45;6381b3673f75&#45;&gt;074a5727&#45;9654&#45;4c85&#45;93e3&#45;d386432483c5</title>
<path fill="none" stroke="#36ff8f" d="M970.01,-312.2C1043.45,-332.22 1161.16,-362.51 1264.54,-381 1330.98,-392.88 1408.26,-400.98 1459.11,-405.54"/>
<polygon fill="#36ff8f" stroke="#36ff8f" points="1458.72,-409.02 1468.99,-406.41 1459.33,-402.05 1458.72,-409.02"/>
<text text-anchor="middle" x="1200.79" y="-379.9" font-family="Times New Roman,serif" font-size="8.00" fill="#36ff8f">target_user EC=1</text>
</g>
<!-- 48698a64&#45;6f76&#45;42aa&#45;a226&#45;d91ad0255901 -->
<g id="node21" class="node">
<title>48698a64&#45;6f76&#45;42aa&#45;a226&#45;d91ad0255901</title>
<polygon fill="none" stroke="none" points="1570.04,-372 1461.04,-372 1461.04,-336 1570.04,-336 1570.04,-372"/>
<polyline fill="none" stroke="black" points="1461.04,-336 1570.04,-336"/>
<text text-anchor="middle" x="1515.54" y="-348.57" font-family="Times New Roman,serif" font-size="14.00" fill="#68ca6a">it_working_desk</text>
</g>
<!-- 0e0c2aed&#45;b501&#45;4968&#45;96e9&#45;6381b3673f75&#45;&gt;48698a64&#45;6f76&#45;42aa&#45;a226&#45;d91ad0255901 -->
<g id="edge40" class="edge">
<title>0e0c2aed&#45;b501&#45;4968&#45;96e9&#45;6381b3673f75&#45;&gt;48698a64&#45;6f76&#45;42aa&#45;a226&#45;d91ad0255901</title>
<path fill="none" stroke="#68ca6a" d="M975.09,-299.73C1097.53,-312.05 1334.8,-335.92 1449.43,-347.45"/>
<polygon fill="#68ca6a" stroke="#68ca6a" points="1448.99,-350.92 1459.29,-348.44 1449.69,-343.96 1448.99,-350.92"/>
<text text-anchor="middle" x="1200.79" y="-328.9" font-family="Times New Roman,serif" font-size="8.00" fill="#68ca6a">it_working_desk EC=1</text>
</g>
<!-- 2f4edf99&#45;a995&#45;4395&#45;9100&#45;01e0007d5ec5 -->
<g id="node27" class="node">
<title>2f4edf99&#45;a995&#45;4395&#45;9100&#45;01e0007d5ec5</title>
<polygon fill="none" stroke="none" points="1554.29,-318 1476.79,-318 1476.79,-282 1554.29,-282 1554.29,-318"/>
<polyline fill="none" stroke="black" points="1476.79,-282 1554.29,-282"/>
<text text-anchor="middle" x="1515.54" y="-294.57" font-family="Times New Roman,serif" font-size="14.00" fill="#36ff8f">target_user</text>
</g>
<!-- 0e0c2aed&#45;b501&#45;4968&#45;96e9&#45;6381b3673f75&#45;&gt;2f4edf99&#45;a995&#45;4395&#45;9100&#45;01e0007d5ec5 -->
<g id="edge46" class="edge">
<title>0e0c2aed&#45;b501&#45;4968&#45;96e9&#45;6381b3673f75&#45;&gt;2f4edf99&#45;a995&#45;4395&#45;9100&#45;01e0007d5ec5</title>
<path fill="none" stroke="#36ff8f" d="M975.09,-293C1103.38,-294.66 1357.73,-297.96 1464.99,-299.36"/>
<polygon fill="#36ff8f" stroke="#36ff8f" points="1464.86,-302.86 1474.91,-299.49 1464.95,-295.86 1464.86,-302.86"/>
<text text-anchor="middle" x="1200.79" y="-298.9" font-family="Times New Roman,serif" font-size="8.00" fill="#36ff8f">target_user EC=1</text>
</g>
<!-- 7e3f5594&#45;777c&#45;46af&#45;90b0&#45;70e2b5859ce5 -->
<g id="node4" class="node">
<title>7e3f5594&#45;777c&#45;46af&#45;90b0&#45;70e2b5859ce5</title>
<polygon fill="#ffffff" stroke="black" points="2030.05,-491.75 1891.05,-491.75 1891.05,-452.25 2030.05,-452.25 2030.05,-491.75"/>
<text text-anchor="middle" x="1960.55" y="-474.45" font-family="Times New Roman,serif" font-size="14.00">Move asset to storage</text>
<text text-anchor="middle" x="1960.55" y="-458.7" font-family="Times New Roman,serif" font-size="14.00">E=1</text>
</g>
<!-- 46db9f40&#45;e54a&#45;4d4f&#45;97ca&#45;7c7a7c4dac73 -->
<g id="node19" class="node">
<title>46db9f40&#45;e54a&#45;4d4f&#45;97ca&#45;7c7a7c4dac73</title>
<polygon fill="none" stroke="none" points="2281.18,-517 2200.68,-517 2200.68,-481 2281.18,-481 2281.18,-517"/>
<polyline fill="none" stroke="black" points="2200.68,-481 2281.18,-481"/>
<text text-anchor="middle" x="2240.93" y="-493.57" font-family="Times New Roman,serif" font-size="14.00" fill="#f2aa47">admin_user</text>
</g>
<!-- 7e3f5594&#45;777c&#45;46af&#45;90b0&#45;70e2b5859ce5&#45;&gt;46db9f40&#45;e54a&#45;4d4f&#45;97ca&#45;7c7a7c4dac73 -->
<g id="edge38" class="edge">
<title>7e3f5594&#45;777c&#45;46af&#45;90b0&#45;70e2b5859ce5&#45;&gt;46db9f40&#45;e54a&#45;4d4f&#45;97ca&#45;7c7a7c4dac73</title>
<path fill="none" stroke="#f2aa47" d="M2030.36,-478.67C2079.43,-483.43 2144.34,-489.73 2188.84,-494.04"/>
<polygon fill="#f2aa47" stroke="#f2aa47" points="2188.46,-497.52 2198.75,-495.01 2189.14,-490.56 2188.46,-497.52"/>
<text text-anchor="middle" x="2098.31" y="-490.9" font-family="Times New Roman,serif" font-size="8.00" fill="#f2aa47">admin_user EC=1</text>
</g>
<!-- 5c0d2f35&#45;88e2&#45;4a15&#45;980c&#45;7023f7367128 -->
<g id="node23" class="node">
<title>5c0d2f35&#45;88e2&#45;4a15&#45;980c&#45;7023f7367128</title>
<polygon fill="none" stroke="none" points="2294.68,-463 2187.18,-463 2187.18,-427 2294.68,-427 2294.68,-463"/>
<polyline fill="none" stroke="black" points="2187.18,-427 2294.68,-427"/>
<text text-anchor="middle" x="2240.93" y="-439.57" font-family="Times New Roman,serif" font-size="14.00" fill="#456754">monitor_storage</text>
</g>
<!-- 7e3f5594&#45;777c&#45;46af&#45;90b0&#45;70e2b5859ce5&#45;&gt;5c0d2f35&#45;88e2&#45;4a15&#45;980c&#45;7023f7367128 -->
<g id="edge42" class="edge">
<title>7e3f5594&#45;777c&#45;46af&#45;90b0&#45;70e2b5859ce5&#45;&gt;5c0d2f35&#45;88e2&#45;4a15&#45;980c&#45;7023f7367128</title>
<path fill="none" stroke="#456754" d="M2030.36,-465.33C2074.7,-461.03 2131.98,-455.47 2175.44,-451.26"/>
<polygon fill="#456754" stroke="#456754" points="2175.62,-454.75 2185.24,-450.31 2174.94,-447.79 2175.62,-454.75"/>
<text text-anchor="middle" x="2098.31" y="-464.9" font-family="Times New Roman,serif" font-size="8.00" fill="#456754">monitor_storage EC=1</text>
</g>
<!-- 4ce5ddee&#45;4414&#45;4605&#45;87c5&#45;22ced5d9cef4&#45;&gt;ab39c2df&#45;1788&#45;416a&#45;81fd&#45;2bfb940171fa -->
<g id="edge5" class="edge">
<title>4ce5ddee&#45;4414&#45;4605&#45;87c5&#45;22ced5d9cef4&#45;&gt;ab39c2df&#45;1788&#45;416a&#45;81fd&#45;2bfb940171fa</title>
<path fill="none" stroke="#f2aa47" d="M808.75,-42.23C722.04,-62.64 595.53,-93.48 548.04,-110.5 512.04,-123.4 473.03,-141.83 443.53,-156.75"/>
<polygon fill="#f2aa47" stroke="#f2aa47" points="442.18,-153.51 434.86,-161.17 445.36,-159.74 442.18,-153.51"/>
<text text-anchor="middle" x="593.79" y="-113.9" font-family="Times New Roman,serif" font-size="8.00" fill="#f2aa47">admin_user EC=1</text>
</g>
<!-- 4ce5ddee&#45;4414&#45;4605&#45;87c5&#45;22ced5d9cef4&#45;&gt;4ce5ddee&#45;4414&#45;4605&#45;87c5&#45;22ced5d9cef4 -->
<g id="edge4" class="edge">
<title>4ce5ddee&#45;4414&#45;4605&#45;87c5&#45;22ced5d9cef4&#45;&gt;4ce5ddee&#45;4414&#45;4605&#45;87c5&#45;22ced5d9cef4</title>
<path fill="none" stroke="#f2aa47" d="M869.4,-42.2C866.36,-51.56 875.66,-59.75 897.29,-59.75 909.46,-59.75 917.73,-57.16 922.09,-53.23"/>
<polygon fill="#f2aa47" stroke="#f2aa47" points="925.44,-54.23 924.77,-43.65 918.7,-52.34 925.44,-54.23"/>
<text text-anchor="middle" x="897.29" y="-62.65" font-family="Times New Roman,serif" font-size="8.00" fill="#f2aa47">admin_user EC=1</text>
</g>
<!-- 4ce5ddee&#45;4414&#45;4605&#45;87c5&#45;22ced5d9cef4&#45;&gt;4ce5ddee&#45;4414&#45;4605&#45;87c5&#45;22ced5d9cef4 -->
<g id="edge16" class="edge">
<title>4ce5ddee&#45;4414&#45;4605&#45;87c5&#45;22ced5d9cef4&#45;&gt;4ce5ddee&#45;4414&#45;4605&#45;87c5&#45;22ced5d9cef4</title>
<path fill="none" stroke="#63d425" stroke-width="2.6" d="M849.78,-42.01C828.1,-59.38 843.94,-77.75 897.29,-77.75 939.8,-77.75 958.5,-66.08 953.37,-52.55"/>
<polygon fill="#63d425" stroke="#63d425" stroke-width="2.6" points="956.31,-50.62 947.29,-45.06 950.87,-55.03 956.31,-50.62"/>
<text text-anchor="middle" x="897.29" y="-80.65" font-family="Times New Roman,serif" font-size="8.00" fill="#63d425">self_service_storage EC=3</text>
</g>
<!-- 4ce5ddee&#45;4414&#45;4605&#45;87c5&#45;22ced5d9cef4&#45;&gt;77d66745&#45;cacb&#45;4a8e&#45;8c29&#45;2dab1f5abee0 -->
<g id="edge8" class="edge">
<title>4ce5ddee&#45;4414&#45;4605&#45;87c5&#45;22ced5d9cef4&#45;&gt;77d66745&#45;cacb&#45;4a8e&#45;8c29&#45;2dab1f5abee0</title>
<path fill="none" stroke="#f2aa47" stroke-width="1.16" d="M1006.64,-42.22C1052.31,-50.09 1106.12,-58.52 1155.04,-64 1186.59,-67.54 1219.76,-70.54 1252.67,-73.07"/>
<polygon fill="#f2aa47" stroke="#f2aa47" stroke-width="1.16" points="1252.31,-76.55 1262.55,-73.82 1252.84,-69.57 1252.31,-76.55"/>
<text text-anchor="middle" x="1200.79" y="-75.9" font-family="Times New Roman,serif" font-size="8.00" fill="#f2aa47">admin_user EC=2</text>
</g>
<!-- 5bd407ef&#45;f190&#45;4963&#45;8637&#45;9fd2c7793c6b -->
<g id="node26" class="node">
<title>5bd407ef&#45;f190&#45;4963&#45;8637&#45;9fd2c7793c6b</title>
<polygon fill="none" stroke="none" points="1580.54,-36 1450.54,-36 1450.54,0 1580.54,0 1580.54,-36"/>
<polyline fill="none" stroke="black" points="1450.54,0 1580.54,0"/>
<text text-anchor="middle" x="1515.54" y="-12.57" font-family="Times New Roman,serif" font-size="14.00" fill="#63d425">self_service_storage</text>
</g>
<!-- 4ce5ddee&#45;4414&#45;4605&#45;87c5&#45;22ced5d9cef4&#45;&gt;5bd407ef&#45;f190&#45;4963&#45;8637&#45;9fd2c7793c6b -->
<g id="edge45" class="edge">
<title>4ce5ddee&#45;4414&#45;4605&#45;87c5&#45;22ced5d9cef4&#45;&gt;5bd407ef&#45;f190&#45;4963&#45;8637&#45;9fd2c7793c6b</title>
<path fill="none" stroke="#63d425" d="M1137.46,-19.63C1143.38,-19.58 1149.25,-19.54 1155.04,-19.5 1253.09,-18.82 1366.18,-18.41 1438.93,-18.19"/>
<polygon fill="#63d425" stroke="#63d425" points="1438.75,-21.69 1448.74,-18.16 1438.73,-14.69 1438.75,-21.69"/>
<text text-anchor="middle" x="1200.79" y="-22.9" font-family="Times New Roman,serif" font-size="8.00" fill="#63d425">self_service_storage EC=1</text>
</g>
<!-- 77d66745&#45;cacb&#45;4a8e&#45;8c29&#45;2dab1f5abee0&#45;&gt;ab39c2df&#45;1788&#45;416a&#45;81fd&#45;2bfb940171fa -->
<g id="edge2" class="edge">
<title>77d66745&#45;cacb&#45;4a8e&#45;8c29&#45;2dab1f5abee0&#45;&gt;ab39c2df&#45;1788&#45;416a&#45;81fd&#45;2bfb940171fa</title>
<path fill="none" stroke="#f2aa47" stroke-width="1.32" d="M1432.3,-106.17C1356.23,-123.85 1239.75,-148.49 1137.04,-160 931.53,-183.04 692.1,-185.82 542.24,-184.7"/>
<polygon fill="#f2aa47" stroke="#f2aa47" stroke-width="1.32" points="542.29,-181.2 532.27,-184.62 542.24,-188.2 542.29,-181.2"/>
<text text-anchor="middle" x="897.29" y="-187.9" font-family="Times New Roman,serif" font-size="8.00" fill="#f2aa47">admin_user EC=3</text>
</g>
<!-- 77d66745&#45;cacb&#45;4a8e&#45;8c29&#45;2dab1f5abee0&#45;&gt;4ce5ddee&#45;4414&#45;4605&#45;87c5&#45;22ced5d9cef4 -->
<g id="edge7" class="edge">
<title>77d66745&#45;cacb&#45;4a8e&#45;8c29&#45;2dab1f5abee0&#45;&gt;4ce5ddee&#45;4414&#45;4605&#45;87c5&#45;22ced5d9cef4</title>
<path fill="none" stroke="#f2aa47" stroke-width="1.16" d="M1354.49,-65.78C1318.97,-61.52 1281.5,-57.2 1246.54,-53.5 1213.59,-50.01 1178.86,-46.58 1144.61,-43.34"/>
<polygon fill="#f2aa47" stroke="#f2aa47" stroke-width="1.16" points="1145.05,-39.86 1134.76,-42.41 1144.39,-46.83 1145.05,-39.86"/>
<text text-anchor="middle" x="1200.79" y="-56.9" font-family="Times New Roman,serif" font-size="8.00" fill="#f2aa47">admin_user EC=2</text>
</g>
<!-- 77d66745&#45;cacb&#45;4a8e&#45;8c29&#45;2dab1f5abee0&#45;&gt;77d66745&#45;cacb&#45;4a8e&#45;8c29&#45;2dab1f5abee0 -->
<g id="edge6" class="edge">
<title>77d66745&#45;cacb&#45;4a8e&#45;8c29&#45;2dab1f5abee0&#45;&gt;77d66745&#45;cacb&#45;4a8e&#45;8c29&#45;2dab1f5abee0</title>
<path fill="none" stroke="#f2aa47" stroke-width="2.6" d="M1487.17,-106.2C1484.07,-115.56 1493.53,-123.75 1515.54,-123.75 1526.2,-123.75 1533.92,-121.83 1538.69,-118.78"/>
<polygon fill="#f2aa47" stroke="#f2aa47" stroke-width="2.6" points="1541.81,-120.41 1542.41,-109.83 1535.34,-117.72 1541.81,-120.41"/>
<text text-anchor="middle" x="1515.54" y="-126.65" font-family="Times New Roman,serif" font-size="8.00" fill="#f2aa47">admin_user EC=11</text>
</g>
<!-- 77d66745&#45;cacb&#45;4a8e&#45;8c29&#45;2dab1f5abee0&#45;&gt;77d66745&#45;cacb&#45;4a8e&#45;8c29&#45;2dab1f5abee0 -->
<g id="edge17" class="edge">
<title>77d66745&#45;cacb&#45;4a8e&#45;8c29&#45;2dab1f5abee0&#45;&gt;77d66745&#45;cacb&#45;4a8e&#45;8c29&#45;2dab1f5abee0</title>
<path fill="none" stroke="#c54ec2" stroke-width="2.6" d="M1467.2,-106.01C1445.16,-123.38 1461.27,-141.75 1515.54,-141.75 1558.79,-141.75 1577.81,-130.08 1572.59,-116.55"/>
<polygon fill="#c54ec2" stroke="#c54ec2" stroke-width="2.6" points="1575.45,-114.52 1566.38,-109.04 1570.05,-118.98 1575.45,-114.52"/>
<text text-anchor="middle" x="1515.54" y="-144.65" font-family="Times New Roman,serif" font-size="8.00" fill="#c54ec2">repair_desk EC=15</text>
</g>
<!-- ecb61fbd&#45;5e9e&#45;4319&#45;b1e6&#45;19c83142b6c8 -->
<g id="node25" class="node">
<title>ecb61fbd&#45;5e9e&#45;4319&#45;b1e6&#45;19c83142b6c8</title>
<polygon fill="none" stroke="none" points="2001.18,-104 1919.93,-104 1919.93,-68 2001.18,-68 2001.18,-104"/>
<polyline fill="none" stroke="black" points="1919.93,-68 2001.18,-68"/>
<text text-anchor="middle" x="1960.55" y="-80.58" font-family="Times New Roman,serif" font-size="14.00" fill="#c54ec2">repair_desk</text>
</g>
<!-- 77d66745&#45;cacb&#45;4a8e&#45;8c29&#45;2dab1f5abee0&#45;&gt;ecb61fbd&#45;5e9e&#45;4319&#45;b1e6&#45;19c83142b6c8 -->
<g id="edge44" class="edge">
<title>77d66745&#45;cacb&#45;4a8e&#45;8c29&#45;2dab1f5abee0&#45;&gt;ecb61fbd&#45;5e9e&#45;4319&#45;b1e6&#45;19c83142b6c8</title>
<path fill="none" stroke="#c54ec2" d="M1766.85,-86C1820.62,-86 1872.09,-86 1908.29,-86"/>
<polygon fill="#c54ec2" stroke="#c54ec2" points="1907.97,-89.5 1917.97,-86 1907.97,-82.5 1907.97,-89.5"/>
<text text-anchor="middle" x="1824.29" y="-88.9" font-family="Times New Roman,serif" font-size="8.00" fill="#c54ec2">repair_desk EC=1</text>
</g>
<!-- 074a5727&#45;9654&#45;4c85&#45;93e3&#45;d386432483c5&#45;&gt;d9826148&#45;2057&#45;4b33&#45;ae63&#45;64737a3f64f8 -->
<g id="edge26" class="edge">
<title>074a5727&#45;9654&#45;4c85&#45;93e3&#45;d386432483c5&#45;&gt;d9826148&#45;2057&#45;4b33&#45;ae63&#45;64737a3f64f8</title>
<path fill="none" stroke="#36ff8f" d="M1560.73,-412.89C1612.47,-414.5 1699.59,-411.63 1766.54,-381 1829.9,-352.02 1823.89,-313.38 1882.04,-275 1887.33,-271.51 1893.03,-268.21 1898.84,-265.12"/>
<polygon fill="#36ff8f" stroke="#36ff8f" points="1899.99,-268.46 1907.34,-260.83 1896.83,-262.22 1899.99,-268.46"/>
<text text-anchor="middle" x="1824.29" y="-372.9" font-family="Times New Roman,serif" font-size="8.00" fill="#36ff8f">target_user EC=1</text>
</g>
<!-- 074a5727&#45;9654&#45;4c85&#45;93e3&#45;d386432483c5&#45;&gt;7e3f5594&#45;777c&#45;46af&#45;90b0&#45;70e2b5859ce5 -->
<g id="edge11" class="edge">
<title>074a5727&#45;9654&#45;4c85&#45;93e3&#45;d386432483c5&#45;&gt;7e3f5594&#45;777c&#45;46af&#45;90b0&#45;70e2b5859ce5</title>
<path fill="none" stroke="#f2aa47" d="M1560.7,-416.14C1626.71,-425.32 1755.01,-443.19 1864.04,-458.5 1869.03,-459.2 1874.16,-459.92 1879.33,-460.65"/>
<polygon fill="#f2aa47" stroke="#f2aa47" points="1878.8,-464.11 1889.19,-462.04 1879.78,-457.18 1878.8,-464.11"/>
<text text-anchor="middle" x="1824.29" y="-460.9" font-family="Times New Roman,serif" font-size="8.00" fill="#f2aa47">admin_user EC=1</text>
</g>
<!-- 0af29a28&#45;f1f5&#45;4a5c&#45;88b2&#45;dc2780644d15 -->
<g id="node22" class="node">
<title>0af29a28&#45;f1f5&#45;4a5c&#45;88b2&#45;dc2780644d15</title>
<polygon fill="none" stroke="none" points="1997.8,-428 1923.3,-428 1923.3,-392 1997.8,-392 1997.8,-428"/>
<polyline fill="none" stroke="black" points="1923.3,-392 1997.8,-392"/>
<text text-anchor="middle" x="1960.55" y="-404.57" font-family="Times New Roman,serif" font-size="14.00" fill="#2c9c17">item_asset</text>
</g>
<!-- 074a5727&#45;9654&#45;4c85&#45;93e3&#45;d386432483c5&#45;&gt;0af29a28&#45;f1f5&#45;4a5c&#45;88b2&#45;dc2780644d15 -->
<g id="edge41" class="edge">
<title>074a5727&#45;9654&#45;4c85&#45;93e3&#45;d386432483c5&#45;&gt;0af29a28&#45;f1f5&#45;4a5c&#45;88b2&#45;dc2780644d15</title>
<path fill="none" stroke="#2c9c17" d="M1560.64,-410C1644.23,-410 1825.1,-410 1911.59,-410"/>
<polygon fill="#2c9c17" stroke="#2c9c17" points="1911.39,-413.5 1921.39,-410 1911.39,-406.5 1911.39,-413.5"/>
<text text-anchor="middle" x="1824.29" y="-412.9" font-family="Times New Roman,serif" font-size="8.00" fill="#2c9c17">item_asset EC=1</text>
</g>
<!-- 181c2b11&#45;2838&#45;4e78&#45;9271&#45;ff319031d65d&#45;&gt;d9826148&#45;2057&#45;4b33&#45;ae63&#45;64737a3f64f8 -->
<g id="edge20" class="edge">
<title>181c2b11&#45;2838&#45;4e78&#45;9271&#45;ff319031d65d&#45;&gt;d9826148&#45;2057&#45;4b33&#45;ae63&#45;64737a3f64f8</title>
<path fill="none" stroke="#01b788" d="M2442.39,-225.73C2436.45,-224.77 2430.54,-223.85 2424.81,-223 2263.14,-198.96 2218.66,-196.54 2057.06,-221 2053.7,-221.51 2050.28,-222.05 2046.83,-222.63"/>
<polygon fill="#01b788" stroke="#01b788" points="2046.48,-219.14 2037.22,-224.29 2047.67,-226.03 2046.48,-219.14"/>
<text text-anchor="middle" x="2240.93" y="-211.9" font-family="Times New Roman,serif" font-size="8.00" fill="#01b788">door EC=1</text>
</g>
<!-- 181c2b11&#45;2838&#45;4e78&#45;9271&#45;ff319031d65d&#45;&gt;fe135b47&#45;f09b&#45;4cbc&#45;a1bb&#45;2cc626c972b3 -->
<g id="edge28" class="edge">
<title>181c2b11&#45;2838&#45;4e78&#45;9271&#45;ff319031d65d&#45;&gt;fe135b47&#45;f09b&#45;4cbc&#45;a1bb&#45;2cc626c972b3</title>
<path fill="none" stroke="#02077b" d="M2442.34,-249.87C2436.41,-250.59 2430.52,-251.31 2424.81,-252 2395.94,-255.5 2364.51,-259.29 2335.98,-262.72"/>
<polygon fill="#02077b" stroke="#02077b" points="2335.79,-259.22 2326.28,-263.89 2336.63,-266.17 2335.79,-259.22"/>
<text text-anchor="middle" x="2383.56" y="-263.9" font-family="Times New Roman,serif" font-size="8.00" fill="#02077b">reed_switch_door EC=1</text>
</g>
<!-- 7405a238&#45;7082&#45;44f6&#45;bb78&#45;3d5c0f5007e9 -->
<g id="node20" class="node">
<title>7405a238&#45;7082&#45;44f6&#45;bb78&#45;3d5c0f5007e9</title>
<polygon fill="none" stroke="none" points="2809.56,-285 2755.56,-285 2755.56,-249 2809.56,-249 2809.56,-285"/>
<polyline fill="none" stroke="black" points="2755.56,-249 2809.56,-249"/>
<text text-anchor="middle" x="2782.56" y="-261.57" font-family="Times New Roman,serif" font-size="14.00" fill="#01b788">door</text>
</g>
<!-- 181c2b11&#45;2838&#45;4e78&#45;9271&#45;ff319031d65d&#45;&gt;7405a238&#45;7082&#45;44f6&#45;bb78&#45;3d5c0f5007e9 -->
<g id="edge39" class="edge">
<title>181c2b11&#45;2838&#45;4e78&#45;9271&#45;ff319031d65d&#45;&gt;7405a238&#45;7082&#45;44f6&#45;bb78&#45;3d5c0f5007e9</title>
<path fill="none" stroke="#01b788" d="M2605.43,-248.47C2651.85,-253.35 2708.02,-259.26 2744.25,-263.07"/>
<polygon fill="#01b788" stroke="#01b788" points="2743.45,-266.51 2753.76,-264.08 2744.19,-259.55 2743.45,-266.51"/>
<text text-anchor="middle" x="2664.31" y="-260.9" font-family="Times New Roman,serif" font-size="8.00" fill="#01b788">door EC=1</text>
</g>
<!-- 99c1ea4d&#45;26c7&#45;4089&#45;a5db&#45;778c4ba31806 -->
<g id="node24" class="node">
<title>99c1ea4d&#45;26c7&#45;4089&#45;a5db&#45;778c4ba31806</title>
<polygon fill="none" stroke="none" points="2841.56,-231 2723.56,-231 2723.56,-195 2841.56,-195 2841.56,-231"/>
<polyline fill="none" stroke="black" points="2723.56,-195 2841.56,-195"/>
<text text-anchor="middle" x="2782.56" y="-207.57" font-family="Times New Roman,serif" font-size="14.00" fill="#02077b">reed_switch_door</text>
</g>
<!-- 181c2b11&#45;2838&#45;4e78&#45;9271&#45;ff319031d65d&#45;&gt;99c1ea4d&#45;26c7&#45;4089&#45;a5db&#45;778c4ba31806 -->
<g id="edge43" class="edge">
<title>181c2b11&#45;2838&#45;4e78&#45;9271&#45;ff319031d65d&#45;&gt;99c1ea4d&#45;26c7&#45;4089&#45;a5db&#45;778c4ba31806</title>
<path fill="none" stroke="#02077b" d="M2605.43,-231.53C2639.61,-227.93 2679.09,-223.78 2711.99,-220.32"/>
<polygon fill="#02077b" stroke="#02077b" points="2712.25,-223.81 2721.83,-219.28 2711.51,-216.85 2712.25,-223.81"/>
<text text-anchor="middle" x="2664.31" y="-230.9" font-family="Times New Roman,serif" font-size="8.00" fill="#02077b">reed_switch_door EC=1</text>
</g>
<!-- fe135b47&#45;f09b&#45;4cbc&#45;a1bb&#45;2cc626c972b3&#45;&gt;d9826148&#45;2057&#45;4b33&#45;ae63&#45;64737a3f64f8 -->
<g id="edge18" class="edge">
<title>fe135b47&#45;f09b&#45;4cbc&#45;a1bb&#45;2cc626c972b3&#45;&gt;d9826148&#45;2057&#45;4b33&#45;ae63&#45;64737a3f64f8</title>
<path fill="none" stroke="#01b788" d="M2157.08,-264.13C2125.74,-260.37 2089.75,-256.02 2057.06,-252 2053.68,-251.59 2050.24,-251.16 2046.77,-250.73"/>
<polygon fill="#01b788" stroke="#01b788" points="2047.44,-247.29 2037.09,-249.53 2046.58,-254.23 2047.44,-247.29"/>
<text text-anchor="middle" x="2098.31" y="-263.9" font-family="Times New Roman,serif" font-size="8.00" fill="#01b788">door EC=1</text>
</g>
<!-- fe135b47&#45;f09b&#45;4cbc&#45;a1bb&#45;2cc626c972b3&#45;&gt;181c2b11&#45;2838&#45;4e78&#45;9271&#45;ff319031d65d -->
<g id="edge22" class="edge">
<title>fe135b47&#45;f09b&#45;4cbc&#45;a1bb&#45;2cc626c972b3&#45;&gt;181c2b11&#45;2838&#45;4e78&#45;9271&#45;ff319031d65d</title>
<path fill="none" stroke="#01b788" d="M2294.06,-253.8C2309.37,-248.78 2326.31,-244.09 2342.31,-241.5 2371,-236.85 2402.6,-235.37 2431.23,-235.37"/>
<polygon fill="#01b788" stroke="#01b788" points="2430.93,-238.87 2440.95,-235.44 2430.98,-231.87 2430.93,-238.87"/>
<text text-anchor="middle" x="2383.56" y="-243.9" font-family="Times New Roman,serif" font-size="8.00" fill="#01b788">door EC=1</text>
</g>
<!-- fe135b47&#45;f09b&#45;4cbc&#45;a1bb&#45;2cc626c972b3&#45;&gt;181c2b11&#45;2838&#45;4e78&#45;9271&#45;ff319031d65d -->
<g id="edge27" class="edge">
<title>fe135b47&#45;f09b&#45;4cbc&#45;a1bb&#45;2cc626c972b3&#45;&gt;181c2b11&#45;2838&#45;4e78&#45;9271&#45;ff319031d65d</title>
<path fill="none" stroke="#02077b" stroke-width="2.6" d="M2324.63,-289.28C2356.27,-292.56 2392.51,-293.19 2424.81,-286 2442.78,-282 2461.34,-274.33 2477.43,-266.39"/>
<polygon fill="#02077b" stroke="#02077b" stroke-width="2.6" points="2478.96,-269.54 2486.24,-261.84 2475.75,-263.32 2478.96,-269.54"/>
<text text-anchor="middle" x="2383.56" y="-293.9" font-family="Times New Roman,serif" font-size="8.00" fill="#02077b">reed_switch_door EC=2</text>
</g>
<!-- 197ba733&#45;98bd&#45;441f&#45;9d35&#45;274d37a2b0ae -->
<g id="node10" class="node">
<title>197ba733&#45;98bd&#45;441f&#45;9d35&#45;274d37a2b0ae</title>
<ellipse fill="#f2aa47" stroke="black" cx="72.52" cy="-209" rx="53.56" ry="18"/>
<text text-anchor="middle" x="72.52" y="-203.57" font-family="Times New Roman,serif" font-size="14.00">admin_user</text>
</g>
<!-- 197ba733&#45;98bd&#45;441f&#45;9d35&#45;274d37a2b0ae&#45;&gt;ab39c2df&#45;1788&#45;416a&#45;81fd&#45;2bfb940171fa -->
<g id="edge29" class="edge">
<title>197ba733&#45;98bd&#45;441f&#45;9d35&#45;274d37a2b0ae&#45;&gt;ab39c2df&#45;1788&#45;416a&#45;81fd&#45;2bfb940171fa</title>
<path fill="none" stroke="#f2aa47" d="M125,-204.66C158.52,-201.84 204.07,-198 248.14,-194.28"/>
<polygon fill="#f2aa47" stroke="#f2aa47" points="248.43,-197.77 258.11,-193.44 247.85,-190.8 248.43,-197.77"/>
<text text-anchor="middle" x="202.42" y="-203.9" font-family="Times New Roman,serif" font-size="8.00" fill="#f2aa47">admin_user EC=1</text>
</g>
<!-- dbf46670&#45;c852&#45;4936&#45;8244&#45;7512e9243d97 -->
<g id="node11" class="node">
<title>dbf46670&#45;c852&#45;4936&#45;8244&#45;7512e9243d97</title>
<ellipse fill="#01b788" stroke="black" cx="1960.55" cy="-356" rx="28.61" ry="18"/>
<text text-anchor="middle" x="1960.55" y="-350.57" font-family="Times New Roman,serif" font-size="14.00">door</text>
</g>
<!-- dbf46670&#45;c852&#45;4936&#45;8244&#45;7512e9243d97&#45;&gt;fe135b47&#45;f09b&#45;4cbc&#45;a1bb&#45;2cc626c972b3 -->
<g id="edge30" class="edge">
<title>dbf46670&#45;c852&#45;4936&#45;8244&#45;7512e9243d97&#45;&gt;fe135b47&#45;f09b&#45;4cbc&#45;a1bb&#45;2cc626c972b3</title>
<path fill="none" stroke="#01b788" d="M1987.64,-349.52C2022.46,-340.74 2085.96,-324.29 2139.56,-308 2149.99,-304.83 2160.97,-301.31 2171.68,-297.76"/>
<polygon fill="#01b788" stroke="#01b788" points="2172.47,-301.19 2180.84,-294.7 2170.25,-294.55 2172.47,-301.19"/>
<text text-anchor="middle" x="2098.31" y="-332.9" font-family="Times New Roman,serif" font-size="8.00" fill="#01b788">door EC=1</text>
</g>
<!-- 09fac64f&#45;ba1c&#45;41ef&#45;8478&#45;b673649e10fd -->
<g id="node12" class="node">
<title>09fac64f&#45;ba1c&#45;41ef&#45;8478&#45;b673649e10fd</title>
<ellipse fill="#68ca6a" stroke="black" cx="72.52" cy="-155" rx="72.52" ry="18"/>
<text text-anchor="middle" x="72.52" y="-149.57" font-family="Times New Roman,serif" font-size="14.00">it_working_desk</text>
</g>
<!-- 09fac64f&#45;ba1c&#45;41ef&#45;8478&#45;b673649e10fd&#45;&gt;ab39c2df&#45;1788&#45;416a&#45;81fd&#45;2bfb940171fa -->
<g id="edge31" class="edge">
<title>09fac64f&#45;ba1c&#45;41ef&#45;8478&#45;b673649e10fd&#45;&gt;ab39c2df&#45;1788&#45;416a&#45;81fd&#45;2bfb940171fa</title>
<path fill="none" stroke="#68ca6a" d="M141.86,-160.76C172.92,-163.38 210.94,-166.58 247.95,-169.7"/>
<polygon fill="#68ca6a" stroke="#68ca6a" points="247.62,-173.18 257.88,-170.54 248.21,-166.21 247.62,-173.18"/>
<text text-anchor="middle" x="202.42" y="-171.9" font-family="Times New Roman,serif" font-size="8.00" fill="#68ca6a">it_working_desk EC=1</text>
</g>
<!-- a6dcdb8d&#45;54ad&#45;49f7&#45;81e7&#45;2999ab5441bc -->
<g id="node13" class="node">
<title>a6dcdb8d&#45;54ad&#45;49f7&#45;81e7&#45;2999ab5441bc</title>
<ellipse fill="#2c9c17" stroke="black" cx="897.29" cy="-455" rx="49.57" ry="18"/>
<text text-anchor="middle" x="897.29" y="-449.57" font-family="Times New Roman,serif" font-size="14.00">item_asset</text>
</g>
<!-- a6dcdb8d&#45;54ad&#45;49f7&#45;81e7&#45;2999ab5441bc&#45;&gt;074a5727&#45;9654&#45;4c85&#45;93e3&#45;d386432483c5 -->
<g id="edge32" class="edge">
<title>a6dcdb8d&#45;54ad&#45;49f7&#45;81e7&#45;2999ab5441bc&#45;&gt;074a5727&#45;9654&#45;4c85&#45;93e3&#45;d386432483c5</title>
<path fill="none" stroke="#2c9c17" d="M946.39,-451.49C1059.06,-443.26 1339.56,-422.78 1459.13,-414.05"/>
<polygon fill="#2c9c17" stroke="#2c9c17" points="1459.3,-417.54 1469.02,-413.32 1458.79,-410.56 1459.3,-417.54"/>
<text text-anchor="middle" x="1200.79" y="-437.9" font-family="Times New Roman,serif" font-size="8.00" fill="#2c9c17">item_asset EC=1</text>
</g>
<!-- b5668445&#45;5b80&#45;4130&#45;a514&#45;7a6a4ff6bede -->
<g id="node14" class="node">
<title>b5668445&#45;5b80&#45;4130&#45;a514&#45;7a6a4ff6bede</title>
<ellipse fill="#456754" stroke="black" cx="1515.54" cy="-478" rx="71.52" ry="18"/>
<text text-anchor="middle" x="1515.54" y="-472.57" font-family="Times New Roman,serif" font-size="14.00">monitor_storage</text>
</g>
<!-- b5668445&#45;5b80&#45;4130&#45;a514&#45;7a6a4ff6bede&#45;&gt;7e3f5594&#45;777c&#45;46af&#45;90b0&#45;70e2b5859ce5 -->
<g id="edge33" class="edge">
<title>b5668445&#45;5b80&#45;4130&#45;a514&#45;7a6a4ff6bede&#45;&gt;7e3f5594&#45;777c&#45;46af&#45;90b0&#45;70e2b5859ce5</title>
<path fill="none" stroke="#456754" d="M1587.23,-477.04C1666.79,-475.97 1795.78,-474.22 1879.13,-473.09"/>
<polygon fill="#456754" stroke="#456754" points="1879.11,-476.59 1889.06,-472.95 1879.01,-469.59 1879.11,-476.59"/>
<text text-anchor="middle" x="1824.29" y="-476.9" font-family="Times New Roman,serif" font-size="8.00" fill="#456754">monitor_storage EC=1</text>
</g>
<!-- 3c741147&#45;a79b&#45;43da&#45;8a75&#45;c1f530a07ec4 -->
<g id="node15" class="node">
<title>3c741147&#45;a79b&#45;43da&#45;8a75&#45;c1f530a07ec4</title>
<ellipse fill="#02077b" stroke="black" cx="1960.55" cy="-302" rx="78.51" ry="18"/>
<text text-anchor="middle" x="1960.55" y="-296.57" font-family="Times New Roman,serif" font-size="14.00">reed_switch_door</text>
</g>
<!-- 3c741147&#45;a79b&#45;43da&#45;8a75&#45;c1f530a07ec4&#45;&gt;fe135b47&#45;f09b&#45;4cbc&#45;a1bb&#45;2cc626c972b3 -->
<g id="edge34" class="edge">
<title>3c741147&#45;a79b&#45;43da&#45;8a75&#45;c1f530a07ec4&#45;&gt;fe135b47&#45;f09b&#45;4cbc&#45;a1bb&#45;2cc626c972b3</title>
<path fill="none" stroke="#02077b" d="M2034.78,-295.9C2066.95,-293.1 2105.15,-289.6 2139.56,-286 2141.63,-285.78 2143.72,-285.56 2145.83,-285.33"/>
<polygon fill="#02077b" stroke="#02077b" points="2146.18,-288.82 2155.74,-284.25 2145.42,-281.86 2146.18,-288.82"/>
<text text-anchor="middle" x="2098.31" y="-295.9" font-family="Times New Roman,serif" font-size="8.00" fill="#02077b">reed_switch_door EC=1</text>
</g>
<!-- d28e7504&#45;afd9&#45;4036&#45;aa42&#45;433fdf8aa228 -->
<g id="node16" class="node">
<title>d28e7504&#45;afd9&#45;4036&#45;aa42&#45;433fdf8aa228</title>
<ellipse fill="#c54ec2" stroke="black" cx="897.29" cy="-229" rx="54.06" ry="18"/>
<text text-anchor="middle" x="897.29" y="-223.57" font-family="Times New Roman,serif" font-size="14.00">repair_desk</text>
</g>
<!-- d28e7504&#45;afd9&#45;4036&#45;aa42&#45;433fdf8aa228&#45;&gt;77d66745&#45;cacb&#45;4a8e&#45;8c29&#45;2dab1f5abee0 -->
<g id="edge35" class="edge">
<title>d28e7504&#45;afd9&#45;4036&#45;aa42&#45;433fdf8aa228&#45;&gt;77d66745&#45;cacb&#45;4a8e&#45;8c29&#45;2dab1f5abee0</title>
<path fill="none" stroke="#c54ec2" d="M951.8,-229.14C1036.63,-228.5 1197.41,-223.54 1246.54,-196 1258.17,-189.48 1253.76,-179.85 1264.54,-172 1305.08,-142.49 1356.54,-122.5 1402.23,-109.29"/>
<polygon fill="#c54ec2" stroke="#c54ec2" points="1402.95,-112.72 1411.64,-106.65 1401.06,-105.98 1402.95,-112.72"/>
<text text-anchor="middle" x="1200.79" y="-219.9" font-family="Times New Roman,serif" font-size="8.00" fill="#c54ec2">repair_desk EC=1</text>
</g>
<!-- 9b8900e9&#45;500b&#45;4ed3&#45;a52a&#45;1306ceb6a198 -->
<g id="node17" class="node">
<title>9b8900e9&#45;500b&#45;4ed3&#45;a52a&#45;1306ceb6a198</title>
<ellipse fill="#63d425" stroke="black" cx="394.92" cy="-22" rx="86.49" ry="18"/>
<text text-anchor="middle" x="394.92" y="-16.57" font-family="Times New Roman,serif" font-size="14.00">self_service_storage</text>
</g>
<!-- 9b8900e9&#45;500b&#45;4ed3&#45;a52a&#45;1306ceb6a198&#45;&gt;4ce5ddee&#45;4414&#45;4605&#45;87c5&#45;22ced5d9cef4 -->
<g id="edge36" class="edge">
<title>9b8900e9&#45;500b&#45;4ed3&#45;a52a&#45;1306ceb6a198&#45;&gt;4ce5ddee&#45;4414&#45;4605&#45;87c5&#45;22ced5d9cef4</title>
<path fill="none" stroke="#63d425" d="M481.65,-22C527.5,-22 586.57,-22 645.68,-22"/>
<polygon fill="#63d425" stroke="#63d425" points="645.59,-25.5 655.59,-22 645.59,-18.5 645.59,-25.5"/>
<text text-anchor="middle" x="593.79" y="-24.9" font-family="Times New Roman,serif" font-size="8.00" fill="#63d425">self_service_storage EC=1</text>
</g>
<!-- 591607f7&#45;e7e1&#45;4a49&#45;89c3&#45;9d6df89e1502 -->
<g id="node18" class="node">
<title>591607f7&#45;e7e1&#45;4a49&#45;89c3&#45;9d6df89e1502</title>
<ellipse fill="#36ff8f" stroke="black" cx="1515.54" cy="-199" rx="51.56" ry="18"/>
<text text-anchor="middle" x="1515.54" y="-193.57" font-family="Times New Roman,serif" font-size="14.00">target_user</text>
</g>
<!-- 591607f7&#45;e7e1&#45;4a49&#45;89c3&#45;9d6df89e1502&#45;&gt;d9826148&#45;2057&#45;4b33&#45;ae63&#45;64737a3f64f8 -->
<g id="edge37" class="edge">
<title>591607f7&#45;e7e1&#45;4a49&#45;89c3&#45;9d6df89e1502&#45;&gt;d9826148&#45;2057&#45;4b33&#45;ae63&#45;64737a3f64f8</title>
<path fill="none" stroke="#36ff8f" d="M1566.37,-202.68C1633.89,-207.79 1758.19,-217.64 1864.04,-228.5 1867.42,-228.85 1870.87,-229.21 1874.35,-229.59"/>
<polygon fill="#36ff8f" stroke="#36ff8f" points="1873.71,-233.04 1884.03,-230.66 1874.48,-226.08 1873.71,-233.04"/>
<text text-anchor="middle" x="1824.29" y="-230.9" font-family="Times New Roman,serif" font-size="8.00" fill="#36ff8f">target_user EC=1</text>
</g>
</g>
</svg>
