<?xml version="1.0" encoding="UTF-8" standalone="no"?>
<!DOCTYPE svg PUBLIC "-//W3C//DTD SVG 1.1//EN"
 "http://www.w3.org/Graphics/SVG/1.1/DTD/svg11.dtd">
<!-- Generated by graphviz version 9.0.0 (20230911.1827)
 -->
<!-- Title: ocdfg Pages: 1 -->
<svg width="2911pt" height="548pt"
 viewBox="0.00 0.00 2910.99 548.00" xmlns="http://www.w3.org/2000/svg" xmlns:xlink="http://www.w3.org/1999/xlink">
<g id="graph0" class="graph" transform="scale(1 1) rotate(0) translate(4 544)">
<title>ocdfg</title>
<polygon fill="white" stroke="none" points="-4,4 -4,-544 2906.99,-544 2906.99,4 -4,4"/>
<!-- f0d01424&#45;9de9&#45;4e94&#45;87f9&#45;acc5a20dfdae -->
<g id="node1" class="node">
<title>f0d01424&#45;9de9&#45;4e94&#45;87f9&#45;acc5a20dfdae</title>
<polygon fill="#f5f5ff" stroke="black" points="626.24,-417.75 300.49,-417.75 300.49,-378.25 626.24,-378.25 626.24,-417.75"/>
<text text-anchor="middle" x="463.36" y="-400.45" font-family="Times New Roman,serif" font-size="14.00">Pick asset from self service desk/Move asset to storage</text>
<text text-anchor="middle" x="463.36" y="-384.7" font-family="Times New Roman,serif" font-size="14.00">E=2</text>
</g>
<!-- f0d01424&#45;9de9&#45;4e94&#45;87f9&#45;acc5a20dfdae&#45;&gt;f0d01424&#45;9de9&#45;4e94&#45;87f9&#45;acc5a20dfdae -->
<g id="edge18" class="edge">
<title>f0d01424&#45;9de9&#45;4e94&#45;87f9&#45;acc5a20dfdae&#45;&gt;f0d01424&#45;9de9&#45;4e94&#45;87f9&#45;acc5a20dfdae</title>
<path fill="none" stroke="#71db83" d="M421.71,-418.2C417.16,-427.56 431.05,-435.75 463.36,-435.75 482.04,-435.75 494.56,-433.01 500.92,-428.9"/>
<polygon fill="#71db83" stroke="#71db83" points="504.17,-430.2 504.47,-419.61 497.63,-427.7 504.17,-430.2"/>
<text text-anchor="middle" x="463.36" y="-438.65" font-family="Times New Roman,serif" font-size="8.00" fill="#71db83">self_service_storage EC=1</text>
</g>
<!-- d48781ae&#45;06db&#45;457d&#45;b4f0&#45;41538df9d4f2 -->
<g id="node3" class="node">
<title>d48781ae&#45;06db&#45;457d&#45;b4f0&#45;41538df9d4f2</title>
<polygon fill="#9b9bff" stroke="black" points="1355.49,-273.75 753.74,-273.75 753.74,-234.25 1355.49,-234.25 1355.49,-273.75"/>
<text text-anchor="middle" x="1054.61" y="-256.45" font-family="Times New Roman,serif" font-size="14.00">Unpack asset/Test asset quality and functionality/Install and configure asset/Create system entry for asset</text>
<text text-anchor="middle" x="1054.61" y="-240.7" font-family="Times New Roman,serif" font-size="14.00">E=11</text>
</g>
<!-- f0d01424&#45;9de9&#45;4e94&#45;87f9&#45;acc5a20dfdae&#45;&gt;d48781ae&#45;06db&#45;457d&#45;b4f0&#45;41538df9d4f2 -->
<g id="edge11" class="edge">
<title>f0d01424&#45;9de9&#45;4e94&#45;87f9&#45;acc5a20dfdae&#45;&gt;d48781ae&#45;06db&#45;457d&#45;b4f0&#45;41538df9d4f2</title>
<path fill="none" stroke="#4289c6" stroke-width="1.32" d="M626.72,-385.21C663.57,-378.64 701.82,-368.77 735.74,-354 745.03,-349.95 744.7,-344.59 753.74,-340 810.54,-311.13 878.46,-290.64 935.29,-276.91"/>
<polygon fill="#4289c6" stroke="#4289c6" stroke-width="1.32" points="936,-280.34 944.93,-274.63 934.39,-273.53 936,-280.34"/>
<text text-anchor="middle" x="689.99" y="-383.9" font-family="Times New Roman,serif" font-size="8.00" fill="#4289c6">admin_user EC=2</text>
</g>
<!-- 174598cd&#45;656a&#45;475d&#45;aef2&#45;02c8379e6b10 -->
<g id="node21" class="node">
<title>174598cd&#45;656a&#45;475d&#45;aef2&#45;02c8379e6b10</title>
<polygon fill="none" stroke="none" points="1119.61,-540 989.61,-540 989.61,-504 1119.61,-504 1119.61,-540"/>
<polyline fill="none" stroke="black" points="989.61,-504 1119.61,-504"/>
<text text-anchor="middle" x="1054.61" y="-516.58" font-family="Times New Roman,serif" font-size="14.00" fill="#71db83">self_service_storage</text>
</g>
<!-- f0d01424&#45;9de9&#45;4e94&#45;87f9&#45;acc5a20dfdae&#45;&gt;174598cd&#45;656a&#45;475d&#45;aef2&#45;02c8379e6b10 -->
<g id="edge32" class="edge">
<title>f0d01424&#45;9de9&#45;4e94&#45;87f9&#45;acc5a20dfdae&#45;&gt;174598cd&#45;656a&#45;475d&#45;aef2&#45;02c8379e6b10</title>
<path fill="none" stroke="#71db83" d="M513.06,-418.23C569.79,-440.89 666.87,-476.79 753.74,-495 828.95,-510.77 916.68,-517.33 977.74,-520.06"/>
<polygon fill="#71db83" stroke="#71db83" points="977.56,-523.55 987.7,-520.48 977.85,-516.56 977.56,-523.55"/>
<text text-anchor="middle" x="689.99" y="-491.9" font-family="Times New Roman,serif" font-size="8.00" fill="#71db83">self_service_storage EC=1</text>
</g>
<!-- d3bdfd77&#45;979c&#45;480a&#45;938f&#45;775ef3757643 -->
<g id="node2" class="node">
<title>d3bdfd77&#45;979c&#45;480a&#45;938f&#45;775ef3757643</title>
<polygon fill="#e1e1ff" stroke="black" points="1762.99,-86.75 1470.24,-86.75 1470.24,-47.25 1762.99,-47.25 1762.99,-86.75"/>
<text text-anchor="middle" x="1616.61" y="-69.45" font-family="Times New Roman,serif" font-size="14.00">Pick asset from warehouse/Move asset to storage</text>
<text text-anchor="middle" x="1616.61" y="-53.7" font-family="Times New Roman,serif" font-size="14.00">E=4</text>
</g>
<!-- d3bdfd77&#45;979c&#45;480a&#45;938f&#45;775ef3757643&#45;&gt;d3bdfd77&#45;979c&#45;480a&#45;938f&#45;775ef3757643 -->
<g id="edge5" class="edge">
<title>d3bdfd77&#45;979c&#45;480a&#45;938f&#45;775ef3757643&#45;&gt;d3bdfd77&#45;979c&#45;480a&#45;938f&#45;775ef3757643</title>
<path fill="none" stroke="#4289c6" stroke-width="1.32" d="M1579.16,-87.2C1575.08,-96.56 1587.56,-104.75 1616.61,-104.75 1632.95,-104.75 1644.05,-102.16 1649.91,-98.23"/>
<polygon fill="#4289c6" stroke="#4289c6" stroke-width="1.32" points="1653.11,-99.66 1653.35,-89.07 1646.56,-97.19 1653.11,-99.66"/>
<text text-anchor="middle" x="1616.61" y="-107.65" font-family="Times New Roman,serif" font-size="8.00" fill="#4289c6">admin_user EC=2</text>
</g>
<!-- d3bdfd77&#45;979c&#45;480a&#45;938f&#45;775ef3757643&#45;&gt;d48781ae&#45;06db&#45;457d&#45;b4f0&#45;41538df9d4f2 -->
<g id="edge6" class="edge">
<title>d3bdfd77&#45;979c&#45;480a&#45;938f&#45;775ef3757643&#45;&gt;d48781ae&#45;06db&#45;457d&#45;b4f0&#45;41538df9d4f2</title>
<path fill="none" stroke="#4289c6" stroke-width="1.32" d="M1536.3,-87.23C1488.77,-99.82 1427.31,-116.92 1373.49,-134.5 1282.82,-164.12 1179.79,-204.03 1116.24,-229.39"/>
<polygon fill="#4289c6" stroke="#4289c6" stroke-width="1.32" points="1115.07,-226.09 1107.09,-233.06 1117.67,-232.59 1115.07,-226.09"/>
<text text-anchor="middle" x="1412.86" y="-137.9" font-family="Times New Roman,serif" font-size="8.00" fill="#4289c6">admin_user EC=2</text>
</g>
<!-- 25f49206&#45;7024&#45;432f&#45;be37&#45;161559ea3b30 -->
<g id="node5" class="node">
<title>25f49206&#45;7024&#45;432f&#45;be37&#45;161559ea3b30</title>
<polygon fill="#f5f5ff" stroke="black" points="2553.99,-85.75 2320.49,-85.75 2320.49,-46.25 2553.99,-46.25 2553.99,-85.75"/>
<text text-anchor="middle" x="2437.24" y="-68.45" font-family="Times New Roman,serif" font-size="14.00">reed_switch_mouse_cupboard_closed</text>
<text text-anchor="middle" x="2437.24" y="-52.7" font-family="Times New Roman,serif" font-size="14.00">E=2</text>
</g>
<!-- d3bdfd77&#45;979c&#45;480a&#45;938f&#45;775ef3757643&#45;&gt;25f49206&#45;7024&#45;432f&#45;be37&#45;161559ea3b30 -->
<g id="edge3" class="edge">
<title>d3bdfd77&#45;979c&#45;480a&#45;938f&#45;775ef3757643&#45;&gt;25f49206&#45;7024&#45;432f&#45;be37&#45;161559ea3b30</title>
<path fill="none" stroke="#814477" stroke-width="2.6" d="M1763.02,-66.82C1917.29,-66.63 2158.75,-66.34 2306.69,-66.16"/>
<polygon fill="#814477" stroke="#814477" stroke-width="2.6" points="2306.34,-69.66 2316.34,-66.15 2306.33,-62.66 2306.34,-69.66"/>
<text text-anchor="middle" x="2041.74" y="-69.9" font-family="Times New Roman,serif" font-size="8.00" fill="#814477">mouse_cupboard EC=2</text>
</g>
<!-- 31df6de3&#45;6ed9&#45;43f2&#45;8cc3&#45;efcf3399cd78 -->
<g id="node6" class="node">
<title>31df6de3&#45;6ed9&#45;43f2&#45;8cc3&#45;efcf3399cd78</title>
<polygon fill="#f5f5ff" stroke="black" points="2160.74,-136.75 1922.74,-136.75 1922.74,-97.25 2160.74,-97.25 2160.74,-136.75"/>
<text text-anchor="middle" x="2041.74" y="-119.45" font-family="Times New Roman,serif" font-size="14.00">reed_switch_mouse_cupboard_opened</text>
<text text-anchor="middle" x="2041.74" y="-103.7" font-family="Times New Roman,serif" font-size="14.00">E=2</text>
</g>
<!-- d3bdfd77&#45;979c&#45;480a&#45;938f&#45;775ef3757643&#45;&gt;31df6de3&#45;6ed9&#45;43f2&#45;8cc3&#45;efcf3399cd78 -->
<g id="edge1" class="edge">
<title>d3bdfd77&#45;979c&#45;480a&#45;938f&#45;775ef3757643&#45;&gt;31df6de3&#45;6ed9&#45;43f2&#45;8cc3&#45;efcf3399cd78</title>
<path fill="none" stroke="#814477" stroke-width="2.6" d="M1727.71,-87.19C1745.48,-90.07 1763.72,-92.79 1780.99,-95 1822.43,-100.3 1867.76,-104.63 1908.78,-108.02"/>
<polygon fill="#814477" stroke="#814477" stroke-width="2.6" points="1908.35,-111.49 1918.6,-108.81 1908.91,-104.51 1908.35,-111.49"/>
<text text-anchor="middle" x="1842.86" y="-110.9" font-family="Times New Roman,serif" font-size="8.00" fill="#814477">mouse_cupboard EC=2</text>
</g>
<!-- d48781ae&#45;06db&#45;457d&#45;b4f0&#45;41538df9d4f2&#45;&gt;f0d01424&#45;9de9&#45;4e94&#45;87f9&#45;acc5a20dfdae -->
<g id="edge10" class="edge">
<title>d48781ae&#45;06db&#45;457d&#45;b4f0&#45;41538df9d4f2&#45;&gt;f0d01424&#45;9de9&#45;4e94&#45;87f9&#45;acc5a20dfdae</title>
<path fill="none" stroke="#4289c6" d="M950.45,-274.2C867.35,-291.04 747.73,-316.55 644.24,-343.5 608.77,-352.73 569.81,-364.35 537.24,-374.49"/>
<polygon fill="#4289c6" stroke="#4289c6" points="536.39,-371.09 527.9,-377.41 538.48,-377.77 536.39,-371.09"/>
<text text-anchor="middle" x="689.99" y="-346.9" font-family="Times New Roman,serif" font-size="8.00" fill="#4289c6">admin_user EC=1</text>
</g>
<!-- d48781ae&#45;06db&#45;457d&#45;b4f0&#45;41538df9d4f2&#45;&gt;d3bdfd77&#45;979c&#45;480a&#45;938f&#45;775ef3757643 -->
<g id="edge9" class="edge">
<title>d48781ae&#45;06db&#45;457d&#45;b4f0&#45;41538df9d4f2&#45;&gt;d3bdfd77&#45;979c&#45;480a&#45;938f&#45;775ef3757643</title>
<path fill="none" stroke="#4289c6" d="M1208.34,-233.83C1285.9,-218.38 1378.96,-191.47 1452.24,-145 1462.62,-138.42 1460.22,-131.12 1470.24,-124 1489.22,-110.5 1511.85,-99.64 1533.52,-91.17"/>
<polygon fill="#4289c6" stroke="#4289c6" points="1534.52,-94.54 1542.65,-87.74 1532.06,-87.98 1534.52,-94.54"/>
<text text-anchor="middle" x="1412.86" y="-184.9" font-family="Times New Roman,serif" font-size="8.00" fill="#4289c6">admin_user EC=1</text>
</g>
<!-- d48781ae&#45;06db&#45;457d&#45;b4f0&#45;41538df9d4f2&#45;&gt;d48781ae&#45;06db&#45;457d&#45;b4f0&#45;41538df9d4f2 -->
<g id="edge12" class="edge">
<title>d48781ae&#45;06db&#45;457d&#45;b4f0&#45;41538df9d4f2&#45;&gt;d48781ae&#45;06db&#45;457d&#45;b4f0&#45;41538df9d4f2</title>
<path fill="none" stroke="#4289c6" stroke-width="2.6" d="M1021.69,-274.2C1018.1,-283.56 1029.07,-291.75 1054.61,-291.75 1067.18,-291.75 1076.22,-289.77 1081.74,-286.64"/>
<polygon fill="#4289c6" stroke="#4289c6" stroke-width="2.6" points="1084.82,-288.31 1085.87,-277.76 1078.47,-285.35 1084.82,-288.31"/>
<text text-anchor="middle" x="1054.61" y="-294.65" font-family="Times New Roman,serif" font-size="8.00" fill="#4289c6">admin_user EC=6</text>
</g>
<!-- d48781ae&#45;06db&#45;457d&#45;b4f0&#45;41538df9d4f2&#45;&gt;d48781ae&#45;06db&#45;457d&#45;b4f0&#45;41538df9d4f2 -->
<g id="edge17" class="edge">
<title>d48781ae&#45;06db&#45;457d&#45;b4f0&#45;41538df9d4f2&#45;&gt;d48781ae&#45;06db&#45;457d&#45;b4f0&#45;41538df9d4f2</title>
<path fill="none" stroke="#bfc92a" stroke-width="2.6" d="M998.52,-274.01C972.94,-291.38 991.64,-309.75 1054.61,-309.75 1105.78,-309.75 1127.71,-297.62 1120.42,-283.75"/>
<polygon fill="#bfc92a" stroke="#bfc92a" stroke-width="2.6" points="1123.01,-281.4 1113.47,-276.79 1118.06,-286.34 1123.01,-281.4"/>
<text text-anchor="middle" x="1054.61" y="-312.65" font-family="Times New Roman,serif" font-size="8.00" fill="#bfc92a">it_working_desk EC=10</text>
</g>
<!-- 7cb563f2&#45;b295&#45;43f9&#45;aac6&#45;0a75551648b9 -->
<g id="node4" class="node">
<title>7cb563f2&#45;b295&#45;43f9&#45;aac6&#45;0a75551648b9</title>
<polygon fill="#ffffff" stroke="black" points="1643.61,-334.75 1589.61,-334.75 1589.61,-295.25 1643.61,-295.25 1643.61,-334.75"/>
<text text-anchor="middle" x="1616.61" y="-317.45" font-family="Times New Roman,serif" font-size="14.00">create</text>
<text text-anchor="middle" x="1616.61" y="-301.7" font-family="Times New Roman,serif" font-size="14.00">E=1</text>
</g>
<!-- d48781ae&#45;06db&#45;457d&#45;b4f0&#45;41538df9d4f2&#45;&gt;7cb563f2&#45;b295&#45;43f9&#45;aac6&#45;0a75551648b9 -->
<g id="edge7" class="edge">
<title>d48781ae&#45;06db&#45;457d&#45;b4f0&#45;41538df9d4f2&#45;&gt;7cb563f2&#45;b295&#45;43f9&#45;aac6&#45;0a75551648b9</title>
<path fill="none" stroke="#4289c6" d="M1355.75,-261.88C1388.54,-265.9 1421.24,-271.3 1452.24,-278.5 1460.68,-280.46 1461.95,-283.47 1470.24,-286 1506.2,-296.96 1548.47,-304.86 1578.13,-309.62"/>
<polygon fill="#4289c6" stroke="#4289c6" points="1577.31,-313.03 1587.73,-311.11 1578.39,-306.12 1577.31,-313.03"/>
<text text-anchor="middle" x="1412.86" y="-281.9" font-family="Times New Roman,serif" font-size="8.00" fill="#4289c6">admin_user EC=1</text>
</g>
<!-- 520994ac&#45;55b0&#45;4a56&#45;97e1&#45;0c07099b6c7a -->
<g id="node7" class="node">
<title>520994ac&#45;55b0&#45;4a56&#45;97e1&#45;0c07099b6c7a</title>
<polygon fill="#ffffff" stroke="black" points="1643.61,-440.75 1589.61,-440.75 1589.61,-401.25 1643.61,-401.25 1643.61,-440.75"/>
<text text-anchor="middle" x="1616.61" y="-423.45" font-family="Times New Roman,serif" font-size="14.00">update</text>
<text text-anchor="middle" x="1616.61" y="-407.7" font-family="Times New Roman,serif" font-size="14.00">E=1</text>
</g>
<!-- d48781ae&#45;06db&#45;457d&#45;b4f0&#45;41538df9d4f2&#45;&gt;520994ac&#45;55b0&#45;4a56&#45;97e1&#45;0c07099b6c7a -->
<g id="edge13" class="edge">
<title>d48781ae&#45;06db&#45;457d&#45;b4f0&#45;41538df9d4f2&#45;&gt;520994ac&#45;55b0&#45;4a56&#45;97e1&#45;0c07099b6c7a</title>
<path fill="none" stroke="#4289c6" d="M1174.16,-274.18C1253.97,-289.42 1360.9,-313.1 1452.24,-344.5 1497.4,-360.03 1546.73,-384.2 1579.24,-401.21"/>
<polygon fill="#4289c6" stroke="#4289c6" points="1577.36,-404.18 1587.83,-405.75 1580.63,-397.99 1577.36,-404.18"/>
<text text-anchor="middle" x="1412.86" y="-347.9" font-family="Times New Roman,serif" font-size="8.00" fill="#4289c6">admin_user EC=1</text>
</g>
<!-- 1e22224d&#45;0123&#45;4cf8&#45;b6d6&#45;0f1c8ab26ffd -->
<g id="node15" class="node">
<title>1e22224d&#45;0123&#45;4cf8&#45;b6d6&#45;0f1c8ab26ffd</title>
<polygon fill="none" stroke="none" points="1656.86,-223 1576.36,-223 1576.36,-187 1656.86,-187 1656.86,-223"/>
<polyline fill="none" stroke="black" points="1576.36,-187 1656.86,-187"/>
<text text-anchor="middle" x="1616.61" y="-199.57" font-family="Times New Roman,serif" font-size="14.00" fill="#4289c6">admin_user</text>
</g>
<!-- d48781ae&#45;06db&#45;457d&#45;b4f0&#45;41538df9d4f2&#45;&gt;1e22224d&#45;0123&#45;4cf8&#45;b6d6&#45;0f1c8ab26ffd -->
<g id="edge26" class="edge">
<title>d48781ae&#45;06db&#45;457d&#45;b4f0&#45;41538df9d4f2&#45;&gt;1e22224d&#45;0123&#45;4cf8&#45;b6d6&#45;0f1c8ab26ffd</title>
<path fill="none" stroke="#4289c6" d="M1287.02,-233.75C1389.91,-224.75 1501.84,-214.96 1564.9,-209.44"/>
<polygon fill="#4289c6" stroke="#4289c6" points="1564.93,-212.95 1574.58,-208.59 1564.32,-205.97 1564.93,-212.95"/>
<text text-anchor="middle" x="1412.86" y="-228.9" font-family="Times New Roman,serif" font-size="8.00" fill="#4289c6">admin_user EC=1</text>
</g>
<!-- ec570bf2&#45;e5c4&#45;4633&#45;a396&#45;cac8d1c24ed6 -->
<g id="node16" class="node">
<title>ec570bf2&#45;e5c4&#45;4633&#45;a396&#45;cac8d1c24ed6</title>
<polygon fill="none" stroke="none" points="1671.11,-277 1562.11,-277 1562.11,-241 1671.11,-241 1671.11,-277"/>
<polyline fill="none" stroke="black" points="1562.11,-241 1671.11,-241"/>
<text text-anchor="middle" x="1616.61" y="-253.57" font-family="Times New Roman,serif" font-size="14.00" fill="#bfc92a">it_working_desk</text>
</g>
<!-- d48781ae&#45;06db&#45;457d&#45;b4f0&#45;41538df9d4f2&#45;&gt;ec570bf2&#45;e5c4&#45;4633&#45;a396&#45;cac8d1c24ed6 -->
<g id="edge27" class="edge">
<title>d48781ae&#45;06db&#45;457d&#45;b4f0&#45;41538df9d4f2&#45;&gt;ec570bf2&#45;e5c4&#45;4633&#45;a396&#45;cac8d1c24ed6</title>
<path fill="none" stroke="#bfc92a" d="M1355.86,-242.48C1388.4,-242.52 1421.01,-243.12 1452.24,-244.5 1484.78,-245.94 1520.85,-248.99 1550.81,-251.92"/>
<polygon fill="#bfc92a" stroke="#bfc92a" points="1550.17,-255.37 1560.47,-252.88 1550.87,-248.41 1550.17,-255.37"/>
<text text-anchor="middle" x="1412.86" y="-247.9" font-family="Times New Roman,serif" font-size="8.00" fill="#bfc92a">it_working_desk EC=1</text>
</g>
<!-- 7cb563f2&#45;b295&#45;43f9&#45;aac6&#45;0a75551648b9&#45;&gt;d48781ae&#45;06db&#45;457d&#45;b4f0&#45;41538df9d4f2 -->
<g id="edge8" class="edge">
<title>7cb563f2&#45;b295&#45;43f9&#45;aac6&#45;0a75551648b9&#45;&gt;d48781ae&#45;06db&#45;457d&#45;b4f0&#45;41538df9d4f2</title>
<path fill="none" stroke="#4289c6" d="M1589.45,-312.21C1545.05,-307.48 1452.08,-297.55 1373.49,-289 1333.42,-284.64 1290.51,-279.94 1249.6,-275.44"/>
<polygon fill="#4289c6" stroke="#4289c6" points="1250.23,-271.99 1239.91,-274.38 1249.46,-278.95 1250.23,-271.99"/>
<text text-anchor="middle" x="1412.86" y="-299.9" font-family="Times New Roman,serif" font-size="8.00" fill="#4289c6">admin_user EC=1</text>
</g>
<!-- 02871feb&#45;70c5&#45;41fe&#45;80ea&#45;0b016ad801bd -->
<g id="node18" class="node">
<title>02871feb&#45;70c5&#45;41fe&#45;80ea&#45;0b016ad801bd</title>
<polygon fill="none" stroke="none" points="2078.99,-333 2004.49,-333 2004.49,-297 2078.99,-297 2078.99,-333"/>
<polyline fill="none" stroke="black" points="2004.49,-297 2078.99,-297"/>
<text text-anchor="middle" x="2041.74" y="-309.57" font-family="Times New Roman,serif" font-size="14.00" fill="#98a5e5">item_asset</text>
</g>
<!-- 7cb563f2&#45;b295&#45;43f9&#45;aac6&#45;0a75551648b9&#45;&gt;02871feb&#45;70c5&#45;41fe&#45;80ea&#45;0b016ad801bd -->
<g id="edge29" class="edge">
<title>7cb563f2&#45;b295&#45;43f9&#45;aac6&#45;0a75551648b9&#45;&gt;02871feb&#45;70c5&#45;41fe&#45;80ea&#45;0b016ad801bd</title>
<path fill="none" stroke="#98a5e5" d="M1644.08,-315C1713.77,-315 1903.12,-315 1992.63,-315"/>
<polygon fill="#98a5e5" stroke="#98a5e5" points="1992.55,-318.5 2002.55,-315 1992.55,-311.5 1992.55,-318.5"/>
<text text-anchor="middle" x="1842.86" y="-317.9" font-family="Times New Roman,serif" font-size="8.00" fill="#98a5e5">item_asset EC=1</text>
</g>
<!-- 25f49206&#45;7024&#45;432f&#45;be37&#45;161559ea3b30&#45;&gt;d3bdfd77&#45;979c&#45;480a&#45;938f&#45;775ef3757643 -->
<g id="edge4" class="edge">
<title>25f49206&#45;7024&#45;432f&#45;be37&#45;161559ea3b30&#45;&gt;d3bdfd77&#45;979c&#45;480a&#45;938f&#45;775ef3757643</title>
<path fill="none" stroke="#814477" d="M2319.99,-59.04C2270.87,-56.43 2213.04,-53.78 2160.74,-52.5 2054.99,-49.91 2028.48,-49.99 1922.74,-52.5 1874.63,-53.64 1822.3,-55.8 1774.78,-58.1"/>
<polygon fill="#814477" stroke="#814477" points="1774.78,-54.6 1764.96,-58.58 1775.12,-61.59 1774.78,-54.6"/>
<text text-anchor="middle" x="2041.74" y="-55.9" font-family="Times New Roman,serif" font-size="8.00" fill="#814477">mouse_cupboard EC=1</text>
</g>
<!-- 25f49206&#45;7024&#45;432f&#45;be37&#45;161559ea3b30&#45;&gt;31df6de3&#45;6ed9&#45;43f2&#45;8cc3&#45;efcf3399cd78 -->
<g id="edge16" class="edge">
<title>25f49206&#45;7024&#45;432f&#45;be37&#45;161559ea3b30&#45;&gt;31df6de3&#45;6ed9&#45;43f2&#45;8cc3&#45;efcf3399cd78</title>
<path fill="none" stroke="#942c15" d="M2320.05,-68.89C2275.64,-71.19 2224.65,-75.27 2178.74,-82.5 2160.6,-85.36 2141.36,-89.52 2123.23,-93.97"/>
<polygon fill="#942c15" stroke="#942c15" points="2122.42,-90.57 2113.58,-96.41 2124.13,-97.36 2122.42,-90.57"/>
<text text-anchor="middle" x="2240.61" y="-85.9" font-family="Times New Roman,serif" font-size="8.00" fill="#942c15">reed_switch_mouse_cupboard EC=1</text>
</g>
<!-- fc945ac5&#45;01a0&#45;4b7d&#45;a893&#45;d35762f5e121 -->
<g id="node19" class="node">
<title>fc945ac5&#45;01a0&#45;4b7d&#45;a893&#45;d35762f5e121</title>
<polygon fill="none" stroke="none" points="2865.49,-111 2751.24,-111 2751.24,-75 2865.49,-75 2865.49,-111"/>
<polyline fill="none" stroke="black" points="2751.24,-75 2865.49,-75"/>
<text text-anchor="middle" x="2808.36" y="-87.58" font-family="Times New Roman,serif" font-size="14.00" fill="#814477">mouse_cupboard</text>
</g>
<!-- 25f49206&#45;7024&#45;432f&#45;be37&#45;161559ea3b30&#45;&gt;fc945ac5&#45;01a0&#45;4b7d&#45;a893&#45;d35762f5e121 -->
<g id="edge30" class="edge">
<title>25f49206&#45;7024&#45;432f&#45;be37&#45;161559ea3b30&#45;&gt;fc945ac5&#45;01a0&#45;4b7d&#45;a893&#45;d35762f5e121</title>
<path fill="none" stroke="#814477" d="M2554.27,-74.49C2615.19,-78.94 2687.72,-84.25 2739.48,-88.04"/>
<polygon fill="#814477" stroke="#814477" points="2739.12,-91.52 2749.35,-88.76 2739.63,-84.54 2739.12,-91.52"/>
<text text-anchor="middle" x="2633.86" y="-87.9" font-family="Times New Roman,serif" font-size="8.00" fill="#814477">mouse_cupboard EC=1</text>
</g>
<!-- ad36ddd6&#45;2610&#45;4c50&#45;9e06&#45;159bf377af50 -->
<g id="node20" class="node">
<title>ad36ddd6&#45;2610&#45;4c50&#45;9e06&#45;159bf377af50</title>
<polygon fill="none" stroke="none" points="2902.99,-57 2713.74,-57 2713.74,-21 2902.99,-21 2902.99,-57"/>
<polyline fill="none" stroke="black" points="2713.74,-21 2902.99,-21"/>
<text text-anchor="middle" x="2808.36" y="-33.58" font-family="Times New Roman,serif" font-size="14.00" fill="#942c15">reed_switch_mouse_cupboard</text>
</g>
<!-- 25f49206&#45;7024&#45;432f&#45;be37&#45;161559ea3b30&#45;&gt;ad36ddd6&#45;2610&#45;4c50&#45;9e06&#45;159bf377af50 -->
<g id="edge31" class="edge">
<title>25f49206&#45;7024&#45;432f&#45;be37&#45;161559ea3b30&#45;&gt;ad36ddd6&#45;2610&#45;4c50&#45;9e06&#45;159bf377af50</title>
<path fill="none" stroke="#942c15" d="M2554.27,-57.51C2601.62,-54.05 2655.99,-50.07 2702.17,-46.69"/>
<polygon fill="#942c15" stroke="#942c15" points="2702.19,-50.2 2711.91,-45.98 2701.68,-43.22 2702.19,-50.2"/>
<text text-anchor="middle" x="2633.86" y="-58.9" font-family="Times New Roman,serif" font-size="8.00" fill="#942c15">reed_switch_mouse_cupboard EC=1</text>
</g>
<!-- 31df6de3&#45;6ed9&#45;43f2&#45;8cc3&#45;efcf3399cd78&#45;&gt;d3bdfd77&#45;979c&#45;480a&#45;938f&#45;775ef3757643 -->
<g id="edge2" class="edge">
<title>31df6de3&#45;6ed9&#45;43f2&#45;8cc3&#45;efcf3399cd78&#45;&gt;d3bdfd77&#45;979c&#45;480a&#45;938f&#45;775ef3757643</title>
<path fill="none" stroke="#814477" stroke-width="2.6" d="M1972.08,-96.82C1950.69,-91.28 1926.89,-85.88 1904.74,-82.5 1863.52,-76.22 1818.64,-72.39 1776.87,-70.08"/>
<polygon fill="#814477" stroke="#814477" stroke-width="2.6" points="1777.23,-66.59 1767.07,-69.57 1776.87,-73.58 1777.23,-66.59"/>
<text text-anchor="middle" x="1842.86" y="-85.9" font-family="Times New Roman,serif" font-size="8.00" fill="#814477">mouse_cupboard EC=2</text>
</g>
<!-- 31df6de3&#45;6ed9&#45;43f2&#45;8cc3&#45;efcf3399cd78&#45;&gt;25f49206&#45;7024&#45;432f&#45;be37&#45;161559ea3b30 -->
<g id="edge15" class="edge">
<title>31df6de3&#45;6ed9&#45;43f2&#45;8cc3&#45;efcf3399cd78&#45;&gt;25f49206&#45;7024&#45;432f&#45;be37&#45;161559ea3b30</title>
<path fill="none" stroke="#942c15" stroke-width="2.6" d="M2161.1,-110.21C2205.58,-106.81 2256.5,-101.9 2302.49,-95 2313.8,-93.3 2325.59,-91.22 2337.28,-88.95"/>
<polygon fill="#942c15" stroke="#942c15" stroke-width="2.6" points="2337.94,-92.39 2347.06,-86.99 2336.57,-85.52 2337.94,-92.39"/>
<text text-anchor="middle" x="2240.61" y="-111.9" font-family="Times New Roman,serif" font-size="8.00" fill="#942c15">reed_switch_mouse_cupboard EC=2</text>
</g>
<!-- 520994ac&#45;55b0&#45;4a56&#45;97e1&#45;0c07099b6c7a&#45;&gt;f0d01424&#45;9de9&#45;4e94&#45;87f9&#45;acc5a20dfdae -->
<g id="edge14" class="edge">
<title>520994ac&#45;55b0&#45;4a56&#45;97e1&#45;0c07099b6c7a&#45;&gt;f0d01424&#45;9de9&#45;4e94&#45;87f9&#45;acc5a20dfdae</title>
<path fill="none" stroke="#4289c6" d="M1589.16,-420.47C1463.47,-417.96 920.87,-407.12 637.77,-401.46"/>
<polygon fill="#4289c6" stroke="#4289c6" points="638.14,-397.97 628.07,-401.27 638,-404.97 638.14,-397.97"/>
<text text-anchor="middle" x="1054.61" y="-418.9" font-family="Times New Roman,serif" font-size="8.00" fill="#4289c6">admin_user EC=1</text>
</g>
<!-- 3bf0699a&#45;2a10&#45;4fb9&#45;ae37&#45;246a626926fa -->
<g id="node17" class="node">
<title>3bf0699a&#45;2a10&#45;4fb9&#45;ae37&#45;246a626926fa</title>
<polygon fill="none" stroke="none" points="2093.24,-439 1990.24,-439 1990.24,-403 2093.24,-403 2093.24,-439"/>
<polyline fill="none" stroke="black" points="1990.24,-403 2093.24,-403"/>
<text text-anchor="middle" x="2041.74" y="-415.57" font-family="Times New Roman,serif" font-size="14.00" fill="#69b85b">item_accessory</text>
</g>
<!-- 520994ac&#45;55b0&#45;4a56&#45;97e1&#45;0c07099b6c7a&#45;&gt;3bf0699a&#45;2a10&#45;4fb9&#45;ae37&#45;246a626926fa -->
<g id="edge28" class="edge">
<title>520994ac&#45;55b0&#45;4a56&#45;97e1&#45;0c07099b6c7a&#45;&gt;3bf0699a&#45;2a10&#45;4fb9&#45;ae37&#45;246a626926fa</title>
<path fill="none" stroke="#69b85b" d="M1644.08,-421C1710.34,-421 1884.75,-421 1978.7,-421"/>
<polygon fill="#69b85b" stroke="#69b85b" points="1978.5,-424.5 1988.5,-421 1978.5,-417.5 1978.5,-424.5"/>
<text text-anchor="middle" x="1842.86" y="-423.9" font-family="Times New Roman,serif" font-size="8.00" fill="#69b85b">item_accessory EC=1</text>
</g>
<!-- d057dfec&#45;c629&#45;4ad2&#45;bedb&#45;61dc08cd7554 -->
<g id="node8" class="node">
<title>d057dfec&#45;c629&#45;4ad2&#45;bedb&#45;61dc08cd7554</title>
<ellipse fill="#4289c6" stroke="black" cx="1054.61" cy="-72" rx="53.56" ry="18"/>
<text text-anchor="middle" x="1054.61" y="-66.58" font-family="Times New Roman,serif" font-size="14.00">admin_user</text>
</g>
<!-- d057dfec&#45;c629&#45;4ad2&#45;bedb&#45;61dc08cd7554&#45;&gt;d3bdfd77&#45;979c&#45;480a&#45;938f&#45;775ef3757643 -->
<g id="edge19" class="edge">
<title>d057dfec&#45;c629&#45;4ad2&#45;bedb&#45;61dc08cd7554&#45;&gt;d3bdfd77&#45;979c&#45;480a&#45;938f&#45;775ef3757643</title>
<path fill="none" stroke="#4289c6" d="M1108.55,-71.53C1187.98,-70.82 1341.21,-69.45 1458.52,-68.4"/>
<polygon fill="#4289c6" stroke="#4289c6" points="1458.27,-71.91 1468.24,-68.32 1458.21,-64.91 1458.27,-71.91"/>
<text text-anchor="middle" x="1412.86" y="-72.9" font-family="Times New Roman,serif" font-size="8.00" fill="#4289c6">admin_user EC=1</text>
</g>
<!-- db625929&#45;c5a4&#45;4df4&#45;b3db&#45;e5502b9542b6 -->
<g id="node9" class="node">
<title>db625929&#45;c5a4&#45;4df4&#45;b3db&#45;e5502b9542b6</title>
<ellipse fill="#bfc92a" stroke="black" cx="463.36" cy="-254" rx="72.52" ry="18"/>
<text text-anchor="middle" x="463.36" y="-248.57" font-family="Times New Roman,serif" font-size="14.00">it_working_desk</text>
</g>
<!-- db625929&#45;c5a4&#45;4df4&#45;b3db&#45;e5502b9542b6&#45;&gt;d48781ae&#45;06db&#45;457d&#45;b4f0&#45;41538df9d4f2 -->
<g id="edge20" class="edge">
<title>db625929&#45;c5a4&#45;4df4&#45;b3db&#45;e5502b9542b6&#45;&gt;d48781ae&#45;06db&#45;457d&#45;b4f0&#45;41538df9d4f2</title>
<path fill="none" stroke="#bfc92a" d="M536.32,-254C589.14,-254 664.87,-254 742.14,-254"/>
<polygon fill="#bfc92a" stroke="#bfc92a" points="742.04,-257.5 752.04,-254 742.04,-250.5 742.04,-257.5"/>
<text text-anchor="middle" x="689.99" y="-256.9" font-family="Times New Roman,serif" font-size="8.00" fill="#bfc92a">it_working_desk EC=1</text>
</g>
<!-- 5eaeeb5c&#45;01fd&#45;4b62&#45;b77c&#45;ed4ace945c8f -->
<g id="node10" class="node">
<title>5eaeeb5c&#45;01fd&#45;4b62&#45;b77c&#45;ed4ace945c8f</title>
<ellipse fill="#69b85b" stroke="black" cx="1054.61" cy="-468" rx="68.53" ry="18"/>
<text text-anchor="middle" x="1054.61" y="-462.57" font-family="Times New Roman,serif" font-size="14.00">item_accessory</text>
</g>
<!-- 5eaeeb5c&#45;01fd&#45;4b62&#45;b77c&#45;ed4ace945c8f&#45;&gt;520994ac&#45;55b0&#45;4a56&#45;97e1&#45;0c07099b6c7a -->
<g id="edge21" class="edge">
<title>5eaeeb5c&#45;01fd&#45;4b62&#45;b77c&#45;ed4ace945c8f&#45;&gt;520994ac&#45;55b0&#45;4a56&#45;97e1&#45;0c07099b6c7a</title>
<path fill="none" stroke="#69b85b" d="M1120.54,-462.65C1199.09,-456.16 1335.36,-444.87 1452.24,-435 1495.31,-431.36 1544.77,-427.11 1577.88,-424.26"/>
<polygon fill="#69b85b" stroke="#69b85b" points="1578.13,-427.75 1587.79,-423.41 1577.52,-420.78 1578.13,-427.75"/>
<text text-anchor="middle" x="1412.86" y="-444.9" font-family="Times New Roman,serif" font-size="8.00" fill="#69b85b">item_accessory EC=1</text>
</g>
<!-- e12e732a&#45;3eab&#45;4ae6&#45;870d&#45;b0b1b37efe6d -->
<g id="node11" class="node">
<title>e12e732a&#45;3eab&#45;4ae6&#45;870d&#45;b0b1b37efe6d</title>
<ellipse fill="#98a5e5" stroke="black" cx="1054.61" cy="-367" rx="49.57" ry="18"/>
<text text-anchor="middle" x="1054.61" y="-361.57" font-family="Times New Roman,serif" font-size="14.00">item_asset</text>
</g>
<!-- e12e732a&#45;3eab&#45;4ae6&#45;870d&#45;b0b1b37efe6d&#45;&gt;7cb563f2&#45;b295&#45;43f9&#45;aac6&#45;0a75551648b9 -->
<g id="edge22" class="edge">
<title>e12e732a&#45;3eab&#45;4ae6&#45;870d&#45;b0b1b37efe6d&#45;&gt;7cb563f2&#45;b295&#45;43f9&#45;aac6&#45;0a75551648b9</title>
<path fill="none" stroke="#98a5e5" d="M1104.13,-369.29C1179.17,-372.04 1327.73,-374.34 1452.24,-357 1496.34,-350.86 1545.7,-337.19 1578.5,-327.11"/>
<polygon fill="#98a5e5" stroke="#98a5e5" points="1579.43,-330.48 1587.94,-324.16 1577.35,-323.8 1579.43,-330.48"/>
<text text-anchor="middle" x="1412.86" y="-368.9" font-family="Times New Roman,serif" font-size="8.00" fill="#98a5e5">item_asset EC=1</text>
</g>
<!-- 13be2e71&#45;a483&#45;4d9f&#45;aaa9&#45;6b0f831d36d6 -->
<g id="node12" class="node">
<title>13be2e71&#45;a483&#45;4d9f&#45;aaa9&#45;6b0f831d36d6</title>
<ellipse fill="#814477" stroke="black" cx="1054.61" cy="-18" rx="76.01" ry="18"/>
<text text-anchor="middle" x="1054.61" y="-12.57" font-family="Times New Roman,serif" font-size="14.00">mouse_cupboard</text>
</g>
<!-- 13be2e71&#45;a483&#45;4d9f&#45;aaa9&#45;6b0f831d36d6&#45;&gt;d3bdfd77&#45;979c&#45;480a&#45;938f&#45;775ef3757643 -->
<g id="edge23" class="edge">
<title>13be2e71&#45;a483&#45;4d9f&#45;aaa9&#45;6b0f831d36d6&#45;&gt;d3bdfd77&#45;979c&#45;480a&#45;938f&#45;775ef3757643</title>
<path fill="none" stroke="#814477" d="M1126.53,-24.21C1209.54,-31.47 1349.49,-43.71 1458.47,-53.25"/>
<polygon fill="#814477" stroke="#814477" points="1458.14,-56.73 1468.41,-54.12 1458.75,-49.76 1458.14,-56.73"/>
<text text-anchor="middle" x="1412.86" y="-55.9" font-family="Times New Roman,serif" font-size="8.00" fill="#814477">mouse_cupboard EC=1</text>
</g>
<!-- 792eaf08&#45;34c2&#45;4910&#45;9942&#45;9a6777cfdcbf -->
<g id="node13" class="node">
<title>792eaf08&#45;34c2&#45;4910&#45;9942&#45;9a6777cfdcbf</title>
<ellipse fill="#942c15" stroke="black" cx="1616.61" cy="-151" rx="125.91" ry="18"/>
<text text-anchor="middle" x="1616.61" y="-145.57" font-family="Times New Roman,serif" font-size="14.00">reed_switch_mouse_cupboard</text>
</g>
<!-- 792eaf08&#45;34c2&#45;4910&#45;9942&#45;9a6777cfdcbf&#45;&gt;31df6de3&#45;6ed9&#45;43f2&#45;8cc3&#45;efcf3399cd78 -->
<g id="edge24" class="edge">
<title>792eaf08&#45;34c2&#45;4910&#45;9942&#45;9a6777cfdcbf&#45;&gt;31df6de3&#45;6ed9&#45;43f2&#45;8cc3&#45;efcf3399cd78</title>
<path fill="none" stroke="#942c15" d="M1729.45,-142.73C1782.57,-138.73 1846.94,-133.76 1904.74,-129 1906.82,-128.83 1908.91,-128.65 1911.02,-128.48"/>
<polygon fill="#942c15" stroke="#942c15" points="1911.25,-131.97 1920.92,-127.65 1910.67,-125 1911.25,-131.97"/>
<text text-anchor="middle" x="1842.86" y="-141.9" font-family="Times New Roman,serif" font-size="8.00" fill="#942c15">reed_switch_mouse_cupboard EC=1</text>
</g>
<!-- 7c3ec1ed&#45;7b38&#45;4430&#45;8367&#45;8d7d17eb1510 -->
<g id="node14" class="node">
<title>7c3ec1ed&#45;7b38&#45;4430&#45;8367&#45;8d7d17eb1510</title>
<ellipse fill="#71db83" stroke="black" cx="86.49" cy="-398" rx="86.49" ry="18"/>
<text text-anchor="middle" x="86.49" y="-392.57" font-family="Times New Roman,serif" font-size="14.00">self_service_storage</text>
</g>
<!-- 7c3ec1ed&#45;7b38&#45;4430&#45;8367&#45;8d7d17eb1510&#45;&gt;f0d01424&#45;9de9&#45;4e94&#45;87f9&#45;acc5a20dfdae -->
<g id="edge25" class="edge">
<title>7c3ec1ed&#45;7b38&#45;4430&#45;8367&#45;8d7d17eb1510&#45;&gt;f0d01424&#45;9de9&#45;4e94&#45;87f9&#45;acc5a20dfdae</title>
<path fill="none" stroke="#71db83" d="M173.02,-398C207.49,-398 248.56,-398 288.78,-398"/>
<polygon fill="#71db83" stroke="#71db83" points="288.58,-401.5 298.58,-398 288.58,-394.5 288.58,-401.5"/>
<text text-anchor="middle" x="236.74" y="-400.9" font-family="Times New Roman,serif" font-size="8.00" fill="#71db83">self_service_storage EC=1</text>
</g>
</g>
</svg>
