<?xml version="1.0" encoding="UTF-8" standalone="no"?>
<!DOCTYPE svg PUBLIC "-//W3C//DTD SVG 1.1//EN"
 "http://www.w3.org/Graphics/SVG/1.1/DTD/svg11.dtd">
<!-- Generated by graphviz version 9.0.0 (20230911.1827)
 -->
<!-- Title: ocdfg Pages: 1 -->
<svg width="2624pt" height="536pt"
 viewBox="0.00 0.00 2624.24 536.00" xmlns="http://www.w3.org/2000/svg" xmlns:xlink="http://www.w3.org/1999/xlink">
<g id="graph0" class="graph" transform="scale(1 1) rotate(0) translate(4 532)">
<title>ocdfg</title>
<polygon fill="white" stroke="none" points="-4,4 -4,-532 2620.24,-532 2620.24,4 -4,4"/>
<!-- d9c63f85&#45;915f&#45;4260&#45;b256&#45;42e57ae0c0a4 -->
<g id="node1" class="node">
<title>d9c63f85&#45;915f&#45;4260&#45;b256&#45;42e57ae0c0a4</title>
<polygon fill="none" stroke="black" points="535.74,-405 209.99,-405 209.99,-369 535.74,-369 535.74,-405"/>
<text text-anchor="middle" x="372.86" y="-381.57" font-family="Times New Roman,serif" font-size="14.00">Pick asset from self service desk/Move asset to storage</text>
</g>
<!-- d9c63f85&#45;915f&#45;4260&#45;b256&#45;42e57ae0c0a4&#45;&gt;d9c63f85&#45;915f&#45;4260&#45;b256&#45;42e57ae0c0a4 -->
<g id="edge18" class="edge">
<title>d9c63f85&#45;915f&#45;4260&#45;b256&#45;42e57ae0c0a4&#45;&gt;d9c63f85&#45;915f&#45;4260&#45;b256&#45;42e57ae0c0a4</title>
<path fill="none" stroke="#71db83" d="M340.05,-405.15C335,-414.54 345.94,-423 372.86,-423 388,-423 398.09,-420.32 403.12,-416.31"/>
<polygon fill="#71db83" stroke="#71db83" points="406.52,-417.16 405.33,-406.63 399.69,-415.6 406.52,-417.16"/>
<text text-anchor="middle" x="372.86" y="-425.9" font-family="Times New Roman,serif" font-size="8.00" fill="#71db83">self_service_storage EC=1m</text>
</g>
<!-- 1e4c1a8d&#45;8804&#45;4326&#45;8fc4&#45;266749c02bc7 -->
<g id="node3" class="node">
<title>1e4c1a8d&#45;8804&#45;4326&#45;8fc4&#45;266749c02bc7</title>
<polygon fill="none" stroke="black" points="1237.24,-262 635.49,-262 635.49,-226 1237.24,-226 1237.24,-262"/>
<text text-anchor="middle" x="936.36" y="-238.57" font-family="Times New Roman,serif" font-size="14.00">Unpack asset/Test asset quality and functionality/Install and configure asset/Create system entry for asset</text>
</g>
<!-- d9c63f85&#45;915f&#45;4260&#45;b256&#45;42e57ae0c0a4&#45;&gt;1e4c1a8d&#45;8804&#45;4326&#45;8fc4&#45;266749c02bc7 -->
<g id="edge11" class="edge">
<title>d9c63f85&#45;915f&#45;4260&#45;b256&#45;42e57ae0c0a4&#45;&gt;1e4c1a8d&#45;8804&#45;4326&#45;8fc4&#45;266749c02bc7</title>
<path fill="none" stroke="#4289c6" d="M536.07,-369.8C564,-363.47 592.17,-354.82 617.49,-343 626.92,-338.6 626.27,-332.85 635.49,-328 692.13,-298.22 760.51,-278.03 817.66,-264.91"/>
<polygon fill="#4289c6" stroke="#4289c6" points="818.09,-268.4 827.08,-262.8 816.56,-261.57 818.09,-268.4"/>
<text text-anchor="middle" x="585.61" y="-368.9" font-family="Times New Roman,serif" font-size="8.00" fill="#4289c6">admin_user EC=5s</text>
</g>
<!-- 794429f9&#45;e40a&#45;4be6&#45;85c9&#45;66e4ee4e59dc -->
<g id="node21" class="node">
<title>794429f9&#45;e40a&#45;4be6&#45;85c9&#45;66e4ee4e59dc</title>
<polygon fill="none" stroke="none" points="1001.36,-528 871.36,-528 871.36,-492 1001.36,-492 1001.36,-528"/>
<polyline fill="none" stroke="black" points="871.36,-492 1001.36,-492"/>
<text text-anchor="middle" x="936.36" y="-504.57" font-family="Times New Roman,serif" font-size="14.00" fill="#71db83">self_service_storage</text>
</g>
<!-- d9c63f85&#45;915f&#45;4260&#45;b256&#45;42e57ae0c0a4&#45;&gt;794429f9&#45;e40a&#45;4be6&#45;85c9&#45;66e4ee4e59dc -->
<g id="edge32" class="edge">
<title>d9c63f85&#45;915f&#45;4260&#45;b256&#45;42e57ae0c0a4&#45;&gt;794429f9&#45;e40a&#45;4be6&#45;85c9&#45;66e4ee4e59dc</title>
<path fill="none" stroke="#71db83" d="M413.65,-405.34C464.1,-427.71 554.29,-464.78 635.49,-483 710.59,-499.85 798.52,-506.25 859.66,-508.65"/>
<polygon fill="#71db83" stroke="#71db83" points="859.51,-512.14 869.63,-509.01 859.76,-505.15 859.51,-512.14"/>
</g>
<!-- 9b34b831&#45;4666&#45;497b&#45;93f4&#45;629f73b49049 -->
<g id="node2" class="node">
<title>9b34b831&#45;4666&#45;497b&#45;93f4&#45;629f73b49049</title>
<polygon fill="none" stroke="black" points="1634.24,-84 1341.49,-84 1341.49,-48 1634.24,-48 1634.24,-84"/>
<text text-anchor="middle" x="1487.86" y="-60.58" font-family="Times New Roman,serif" font-size="14.00">Pick asset from warehouse/Move asset to storage</text>
</g>
<!-- 9b34b831&#45;4666&#45;497b&#45;93f4&#45;629f73b49049&#45;&gt;9b34b831&#45;4666&#45;497b&#45;93f4&#45;629f73b49049 -->
<g id="edge5" class="edge">
<title>9b34b831&#45;4666&#45;497b&#45;93f4&#45;629f73b49049&#45;&gt;9b34b831&#45;4666&#45;497b&#45;93f4&#45;629f73b49049</title>
<path fill="none" stroke="#4289c6" d="M1451.95,-84.15C1446.43,-93.54 1458.4,-102 1487.86,-102 1504.43,-102 1515.47,-99.32 1520.98,-95.31"/>
<polygon fill="#4289c6" stroke="#4289c6" points="1524.37,-96.17 1523.4,-85.62 1517.58,-94.47 1524.37,-96.17"/>
<text text-anchor="middle" x="1487.86" y="-104.9" font-family="Times New Roman,serif" font-size="8.00" fill="#4289c6">admin_user EC=5s</text>
</g>
<!-- 9b34b831&#45;4666&#45;497b&#45;93f4&#45;629f73b49049&#45;&gt;1e4c1a8d&#45;8804&#45;4326&#45;8fc4&#45;266749c02bc7 -->
<g id="edge6" class="edge">
<title>9b34b831&#45;4666&#45;497b&#45;93f4&#45;629f73b49049&#45;&gt;1e4c1a8d&#45;8804&#45;4326&#45;8fc4&#45;266749c02bc7</title>
<path fill="none" stroke="#4289c6" d="M1428.26,-84.41C1381.4,-99.18 1314.05,-120.5 1255.24,-139.5 1168.23,-167.61 1068.05,-200.65 1003.79,-221.94"/>
<polygon fill="#4289c6" stroke="#4289c6" points="1002.83,-218.57 994.44,-225.04 1005.03,-225.22 1002.83,-218.57"/>
<text text-anchor="middle" x="1289.36" y="-142.9" font-family="Times New Roman,serif" font-size="8.00" fill="#4289c6">admin_user EC=17s</text>
</g>
<!-- e696d765&#45;d5fb&#45;4cbc&#45;afbe&#45;c993f53804b6 -->
<g id="node5" class="node">
<title>e696d765&#45;d5fb&#45;4cbc&#45;afbe&#45;c993f53804b6</title>
<polygon fill="none" stroke="black" points="2389.99,-90 2156.49,-90 2156.49,-54 2389.99,-54 2389.99,-90"/>
<text text-anchor="middle" x="2273.24" y="-66.58" font-family="Times New Roman,serif" font-size="14.00">reed_switch_mouse_cupboard_closed</text>
</g>
<!-- 9b34b831&#45;4666&#45;497b&#45;93f4&#45;629f73b49049&#45;&gt;e696d765&#45;d5fb&#45;4cbc&#45;afbe&#45;c993f53804b6 -->
<g id="edge3" class="edge">
<title>9b34b831&#45;4666&#45;497b&#45;93f4&#45;629f73b49049&#45;&gt;e696d765&#45;d5fb&#45;4cbc&#45;afbe&#45;c993f53804b6</title>
<path fill="none" stroke="#814477" d="M1634.37,-67.11C1781.06,-68.24 2005.22,-69.95 2145.02,-71.03"/>
<polygon fill="#814477" stroke="#814477" points="2144.65,-74.52 2154.68,-71.1 2144.7,-67.52 2144.65,-74.52"/>
<text text-anchor="middle" x="1870.99" y="-72.9" font-family="Times New Roman,serif" font-size="8.00" fill="#814477">mouse_cupboard EC=1s</text>
</g>
<!-- 0a8ebc7c&#45;fc4b&#45;4030&#45;914f&#45;320fda1c048d -->
<g id="node6" class="node">
<title>0a8ebc7c&#45;fc4b&#45;4030&#45;914f&#45;320fda1c048d</title>
<polygon fill="none" stroke="black" points="1989.99,-141 1751.99,-141 1751.99,-105 1989.99,-105 1989.99,-141"/>
<text text-anchor="middle" x="1870.99" y="-117.58" font-family="Times New Roman,serif" font-size="14.00">reed_switch_mouse_cupboard_opened</text>
</g>
<!-- 9b34b831&#45;4666&#45;497b&#45;93f4&#45;629f73b49049&#45;&gt;0a8ebc7c&#45;fc4b&#45;4030&#45;914f&#45;320fda1c048d -->
<g id="edge1" class="edge">
<title>9b34b831&#45;4666&#45;497b&#45;93f4&#45;629f73b49049&#45;&gt;0a8ebc7c&#45;fc4b&#45;4030&#45;914f&#45;320fda1c048d</title>
<path fill="none" stroke="#814477" d="M1566.65,-84.5C1593.63,-90.42 1624.15,-96.59 1652.24,-101 1680.69,-105.47 1711.39,-109.22 1740.51,-112.29"/>
<polygon fill="#814477" stroke="#814477" points="1739.77,-115.73 1750.08,-113.28 1740.49,-108.77 1739.77,-115.73"/>
<text text-anchor="middle" x="1693.11" y="-114.9" font-family="Times New Roman,serif" font-size="8.00" fill="#814477">mouse_cupboard EC=4s</text>
</g>
<!-- 1e4c1a8d&#45;8804&#45;4326&#45;8fc4&#45;266749c02bc7&#45;&gt;d9c63f85&#45;915f&#45;4260&#45;b256&#45;42e57ae0c0a4 -->
<g id="edge10" class="edge">
<title>1e4c1a8d&#45;8804&#45;4326&#45;8fc4&#45;266749c02bc7&#45;&gt;d9c63f85&#45;915f&#45;4260&#45;b256&#45;42e57ae0c0a4</title>
<path fill="none" stroke="#4289c6" d="M848.18,-262.49C770.57,-279.36 654.1,-305.69 553.74,-332.5 516.47,-342.45 475.27,-354.84 441.71,-365.28"/>
<polygon fill="#4289c6" stroke="#4289c6" points="441.04,-361.82 432.54,-368.15 443.13,-368.5 441.04,-361.82"/>
<text text-anchor="middle" x="585.61" y="-335.9" font-family="Times New Roman,serif" font-size="8.00" fill="#4289c6">admin_user EC=2s</text>
</g>
<!-- 1e4c1a8d&#45;8804&#45;4326&#45;8fc4&#45;266749c02bc7&#45;&gt;9b34b831&#45;4666&#45;497b&#45;93f4&#45;629f73b49049 -->
<g id="edge9" class="edge">
<title>1e4c1a8d&#45;8804&#45;4326&#45;8fc4&#45;266749c02bc7&#45;&gt;9b34b831&#45;4666&#45;497b&#45;93f4&#45;629f73b49049</title>
<path fill="none" stroke="#4289c6" d="M1134.63,-225.52C1199.29,-212.09 1268.56,-189.14 1323.49,-150 1335.53,-141.41 1330.02,-131.34 1341.49,-122 1359.15,-107.61 1380.94,-96.62 1402.22,-88.36"/>
<polygon fill="#4289c6" stroke="#4289c6" points="1403.35,-91.67 1411.52,-84.93 1400.93,-85.11 1403.35,-91.67"/>
<text text-anchor="middle" x="1289.36" y="-189.9" font-family="Times New Roman,serif" font-size="8.00" fill="#4289c6">admin_user EC=1s</text>
</g>
<!-- 1e4c1a8d&#45;8804&#45;4326&#45;8fc4&#45;266749c02bc7&#45;&gt;1e4c1a8d&#45;8804&#45;4326&#45;8fc4&#45;266749c02bc7 -->
<g id="edge12" class="edge">
<title>1e4c1a8d&#45;8804&#45;4326&#45;8fc4&#45;266749c02bc7&#45;&gt;1e4c1a8d&#45;8804&#45;4326&#45;8fc4&#45;266749c02bc7</title>
<path fill="none" stroke="#4289c6" d="M904.63,-262.15C899.75,-271.54 910.33,-280 936.36,-280 951,-280 960.76,-277.32 965.62,-273.31"/>
<polygon fill="#4289c6" stroke="#4289c6" points="969.02,-274.15 967.76,-263.63 962.18,-272.64 969.02,-274.15"/>
<text text-anchor="middle" x="936.36" y="-282.9" font-family="Times New Roman,serif" font-size="8.00" fill="#4289c6">admin_user EC=3s</text>
</g>
<!-- 1e4c1a8d&#45;8804&#45;4326&#45;8fc4&#45;266749c02bc7&#45;&gt;1e4c1a8d&#45;8804&#45;4326&#45;8fc4&#45;266749c02bc7 -->
<g id="edge17" class="edge">
<title>1e4c1a8d&#45;8804&#45;4326&#45;8fc4&#45;266749c02bc7&#45;&gt;1e4c1a8d&#45;8804&#45;4326&#45;8fc4&#45;266749c02bc7</title>
<path fill="none" stroke="#bfc92a" d="M883.18,-262.26C855.61,-279.4 873.33,-298 936.36,-298 991.01,-298 1011.6,-284.01 998.13,-269.12"/>
<polygon fill="#bfc92a" stroke="#bfc92a" points="1000.72,-266.71 990.72,-263.2 996.35,-272.18 1000.72,-266.71"/>
<text text-anchor="middle" x="936.36" y="-300.9" font-family="Times New Roman,serif" font-size="8.00" fill="#bfc92a">it_working_desk EC=10s</text>
</g>
<!-- a7b543bf&#45;178b&#45;4af7&#45;aed1&#45;f8364eeb20e3 -->
<g id="node4" class="node">
<title>a7b543bf&#45;178b&#45;4af7&#45;aed1&#45;f8364eeb20e3</title>
<polygon fill="none" stroke="black" points="1514.86,-329 1460.86,-329 1460.86,-293 1514.86,-293 1514.86,-329"/>
<text text-anchor="middle" x="1487.86" y="-305.57" font-family="Times New Roman,serif" font-size="14.00">create</text>
</g>
<!-- 1e4c1a8d&#45;8804&#45;4326&#45;8fc4&#45;266749c02bc7&#45;&gt;a7b543bf&#45;178b&#45;4af7&#45;aed1&#45;f8364eeb20e3 -->
<g id="edge7" class="edge">
<title>1e4c1a8d&#45;8804&#45;4326&#45;8fc4&#45;266749c02bc7&#45;&gt;a7b543bf&#45;178b&#45;4af7&#45;aed1&#45;f8364eeb20e3</title>
<path fill="none" stroke="#4289c6" d="M1237.71,-247.5C1267.19,-252.91 1296.25,-260.37 1323.49,-270.5 1332.86,-273.99 1332.33,-279.98 1341.49,-284 1376.14,-299.21 1419.09,-305.86 1449.3,-308.76"/>
<polygon fill="#4289c6" stroke="#4289c6" points="1448.83,-312.23 1459.09,-309.6 1449.43,-305.26 1448.83,-312.23"/>
<text text-anchor="middle" x="1289.36" y="-273.9" font-family="Times New Roman,serif" font-size="8.00" fill="#4289c6">admin_user EC=48s</text>
</g>
<!-- 87ec26d3&#45;0411&#45;406d&#45;af0f&#45;5b9bc7e2f2c8 -->
<g id="node7" class="node">
<title>87ec26d3&#45;0411&#45;406d&#45;af0f&#45;5b9bc7e2f2c8</title>
<polygon fill="none" stroke="black" points="1514.86,-427 1460.86,-427 1460.86,-391 1514.86,-391 1514.86,-427"/>
<text text-anchor="middle" x="1487.86" y="-403.57" font-family="Times New Roman,serif" font-size="14.00">update</text>
</g>
<!-- 1e4c1a8d&#45;8804&#45;4326&#45;8fc4&#45;266749c02bc7&#45;&gt;87ec26d3&#45;0411&#45;406d&#45;af0f&#45;5b9bc7e2f2c8 -->
<g id="edge13" class="edge">
<title>1e4c1a8d&#45;8804&#45;4326&#45;8fc4&#45;266749c02bc7&#45;&gt;87ec26d3&#45;0411&#45;406d&#45;af0f&#45;5b9bc7e2f2c8</title>
<path fill="none" stroke="#4289c6" d="M1006.37,-262.48C1067.3,-278.99 1158.44,-304.19 1237.24,-328 1313.1,-350.92 1401.12,-380.09 1449.75,-396.44"/>
<polygon fill="#4289c6" stroke="#4289c6" points="1448.34,-399.66 1458.94,-399.53 1450.58,-393.02 1448.34,-399.66"/>
<text text-anchor="middle" x="1289.36" y="-356.9" font-family="Times New Roman,serif" font-size="8.00" fill="#4289c6">admin_user EC=22s</text>
</g>
<!-- d55cb745&#45;a024&#45;47c1&#45;ae8a&#45;027cf1468673 -->
<g id="node15" class="node">
<title>d55cb745&#45;a024&#45;47c1&#45;ae8a&#45;027cf1468673</title>
<polygon fill="none" stroke="none" points="1528.11,-221 1447.61,-221 1447.61,-185 1528.11,-185 1528.11,-221"/>
<polyline fill="none" stroke="black" points="1447.61,-185 1528.11,-185"/>
<text text-anchor="middle" x="1487.86" y="-197.57" font-family="Times New Roman,serif" font-size="14.00" fill="#4289c6">admin_user</text>
</g>
<!-- 1e4c1a8d&#45;8804&#45;4326&#45;8fc4&#45;266749c02bc7&#45;&gt;d55cb745&#45;a024&#45;47c1&#45;ae8a&#45;027cf1468673 -->
<g id="edge26" class="edge">
<title>1e4c1a8d&#45;8804&#45;4326&#45;8fc4&#45;266749c02bc7&#45;&gt;d55cb745&#45;a024&#45;47c1&#45;ae8a&#45;027cf1468673</title>
<path fill="none" stroke="#4289c6" d="M1185.18,-225.51C1279.45,-218.48 1377.99,-211.12 1435.83,-206.81"/>
<polygon fill="#4289c6" stroke="#4289c6" points="1435.97,-210.31 1445.68,-206.07 1435.45,-203.33 1435.97,-210.31"/>
</g>
<!-- dca799f4&#45;5dc4&#45;49bd&#45;8d13&#45;8503bca2a041 -->
<g id="node16" class="node">
<title>dca799f4&#45;5dc4&#45;49bd&#45;8d13&#45;8503bca2a041</title>
<polygon fill="none" stroke="none" points="1542.36,-275 1433.36,-275 1433.36,-239 1542.36,-239 1542.36,-275"/>
<polyline fill="none" stroke="black" points="1433.36,-239 1542.36,-239"/>
<text text-anchor="middle" x="1487.86" y="-251.57" font-family="Times New Roman,serif" font-size="14.00" fill="#bfc92a">it_working_desk</text>
</g>
<!-- 1e4c1a8d&#45;8804&#45;4326&#45;8fc4&#45;266749c02bc7&#45;&gt;dca799f4&#45;5dc4&#45;49bd&#45;8d13&#45;8503bca2a041 -->
<g id="edge27" class="edge">
<title>1e4c1a8d&#45;8804&#45;4326&#45;8fc4&#45;266749c02bc7&#45;&gt;dca799f4&#45;5dc4&#45;49bd&#45;8d13&#45;8503bca2a041</title>
<path fill="none" stroke="#bfc92a" d="M1237.5,-247.86C1266.56,-248.48 1295.59,-249.19 1323.49,-250 1355.95,-250.95 1392.02,-252.45 1421.99,-253.81"/>
<polygon fill="#bfc92a" stroke="#bfc92a" points="1421.5,-257.29 1431.65,-254.26 1421.82,-250.3 1421.5,-257.29"/>
</g>
<!-- a7b543bf&#45;178b&#45;4af7&#45;aed1&#45;f8364eeb20e3&#45;&gt;1e4c1a8d&#45;8804&#45;4326&#45;8fc4&#45;266749c02bc7 -->
<g id="edge8" class="edge">
<title>a7b543bf&#45;178b&#45;4af7&#45;aed1&#45;f8364eeb20e3&#45;&gt;1e4c1a8d&#45;8804&#45;4326&#45;8fc4&#45;266749c02bc7</title>
<path fill="none" stroke="#4289c6" d="M1460.81,-307.82C1397.01,-300.04 1228.79,-279.53 1100.11,-263.84"/>
<polygon fill="#4289c6" stroke="#4289c6" points="1100.82,-260.4 1090.47,-262.67 1099.97,-267.35 1100.82,-260.4"/>
<text text-anchor="middle" x="1289.36" y="-292.9" font-family="Times New Roman,serif" font-size="8.00" fill="#4289c6">admin_user EC=8s</text>
</g>
<!-- 1aa7f940&#45;3d05&#45;43c2&#45;891e&#45;310c90d4774c -->
<g id="node18" class="node">
<title>1aa7f940&#45;3d05&#45;43c2&#45;891e&#45;310c90d4774c</title>
<polygon fill="none" stroke="none" points="1908.24,-329 1833.74,-329 1833.74,-293 1908.24,-293 1908.24,-329"/>
<polyline fill="none" stroke="black" points="1833.74,-293 1908.24,-293"/>
<text text-anchor="middle" x="1870.99" y="-305.57" font-family="Times New Roman,serif" font-size="14.00" fill="#98a5e5">item_asset</text>
</g>
<!-- a7b543bf&#45;178b&#45;4af7&#45;aed1&#45;f8364eeb20e3&#45;&gt;1aa7f940&#45;3d05&#45;43c2&#45;891e&#45;310c90d4774c -->
<g id="edge29" class="edge">
<title>a7b543bf&#45;178b&#45;4af7&#45;aed1&#45;f8364eeb20e3&#45;&gt;1aa7f940&#45;3d05&#45;43c2&#45;891e&#45;310c90d4774c</title>
<path fill="none" stroke="#98a5e5" d="M1515.36,-311C1578.91,-311 1740.75,-311 1821.96,-311"/>
<polygon fill="#98a5e5" stroke="#98a5e5" points="1821.83,-314.5 1831.83,-311 1821.83,-307.5 1821.83,-314.5"/>
</g>
<!-- e696d765&#45;d5fb&#45;4cbc&#45;afbe&#45;c993f53804b6&#45;&gt;9b34b831&#45;4666&#45;497b&#45;93f4&#45;629f73b49049 -->
<g id="edge4" class="edge">
<title>e696d765&#45;d5fb&#45;4cbc&#45;afbe&#45;c993f53804b6&#45;&gt;9b34b831&#45;4666&#45;497b&#45;93f4&#45;629f73b49049</title>
<path fill="none" stroke="#814477" d="M2156.27,-63.19C2105.3,-59.73 2044.7,-56.19 1989.99,-54.5 1884.26,-51.23 1857.74,-52.19 1751.99,-54.5 1717.64,-55.25 1680.8,-56.55 1645.88,-58.01"/>
<polygon fill="#814477" stroke="#814477" points="1645.97,-54.51 1636.13,-58.43 1646.27,-61.5 1645.97,-54.51"/>
<text text-anchor="middle" x="1870.99" y="-57.9" font-family="Times New Roman,serif" font-size="8.00" fill="#814477">mouse_cupboard EC=1m</text>
</g>
<!-- e696d765&#45;d5fb&#45;4cbc&#45;afbe&#45;c993f53804b6&#45;&gt;0a8ebc7c&#45;fc4b&#45;4030&#45;914f&#45;320fda1c048d -->
<g id="edge16" class="edge">
<title>e696d765&#45;d5fb&#45;4cbc&#45;afbe&#45;c993f53804b6&#45;&gt;0a8ebc7c&#45;fc4b&#45;4030&#45;914f&#45;320fda1c048d</title>
<path fill="none" stroke="#942c15" d="M2156.29,-74.57C2109.95,-76.81 2056.24,-80.94 2007.99,-88.5 1987.48,-91.71 1965.55,-96.61 1945.43,-101.71"/>
<polygon fill="#942c15" stroke="#942c15" points="1944.72,-98.28 1935.92,-104.18 1946.47,-105.06 1944.72,-98.28"/>
<text text-anchor="middle" x="2073.24" y="-91.9" font-family="Times New Roman,serif" font-size="8.00" fill="#942c15">reed_switch_mouse_cupboard EC=1m</text>
</g>
<!-- bc5ddbca&#45;ada4&#45;4f0e&#45;882b&#45;6feddc1a68dc -->
<g id="node19" class="node">
<title>bc5ddbca&#45;ada4&#45;4f0e&#45;882b&#45;6feddc1a68dc</title>
<polygon fill="none" stroke="none" points="2578.74,-117 2464.49,-117 2464.49,-81 2578.74,-81 2578.74,-117"/>
<polyline fill="none" stroke="black" points="2464.49,-81 2578.74,-81"/>
<text text-anchor="middle" x="2521.61" y="-93.58" font-family="Times New Roman,serif" font-size="14.00" fill="#814477">mouse_cupboard</text>
</g>
<!-- e696d765&#45;d5fb&#45;4cbc&#45;afbe&#45;c993f53804b6&#45;&gt;bc5ddbca&#45;ada4&#45;4f0e&#45;882b&#45;6feddc1a68dc -->
<g id="edge30" class="edge">
<title>e696d765&#45;d5fb&#45;4cbc&#45;afbe&#45;c993f53804b6&#45;&gt;bc5ddbca&#45;ada4&#45;4f0e&#45;882b&#45;6feddc1a68dc</title>
<path fill="none" stroke="#814477" d="M2390.21,-84.71C2411.6,-87.05 2433.28,-89.43 2452.67,-91.55"/>
<polygon fill="#814477" stroke="#814477" points="2452.27,-95.03 2462.6,-92.64 2453.04,-88.07 2452.27,-95.03"/>
</g>
<!-- ffbdcad5&#45;d090&#45;4366&#45;920c&#45;56837434aec3 -->
<g id="node20" class="node">
<title>ffbdcad5&#45;d090&#45;4366&#45;920c&#45;56837434aec3</title>
<polygon fill="none" stroke="none" points="2616.24,-63 2426.99,-63 2426.99,-27 2616.24,-27 2616.24,-63"/>
<polyline fill="none" stroke="black" points="2426.99,-27 2616.24,-27"/>
<text text-anchor="middle" x="2521.61" y="-39.58" font-family="Times New Roman,serif" font-size="14.00" fill="#942c15">reed_switch_mouse_cupboard</text>
</g>
<!-- e696d765&#45;d5fb&#45;4cbc&#45;afbe&#45;c993f53804b6&#45;&gt;ffbdcad5&#45;d090&#45;4366&#45;920c&#45;56837434aec3 -->
<g id="edge31" class="edge">
<title>e696d765&#45;d5fb&#45;4cbc&#45;afbe&#45;c993f53804b6&#45;&gt;ffbdcad5&#45;d090&#45;4366&#45;920c&#45;56837434aec3</title>
<path fill="none" stroke="#942c15" d="M2390.21,-59.29C2398.62,-58.37 2407.07,-57.44 2415.41,-56.53"/>
<polygon fill="#942c15" stroke="#942c15" points="2415.64,-60.02 2425.2,-55.46 2414.88,-53.07 2415.64,-60.02"/>
</g>
<!-- 0a8ebc7c&#45;fc4b&#45;4030&#45;914f&#45;320fda1c048d&#45;&gt;9b34b831&#45;4666&#45;497b&#45;93f4&#45;629f73b49049 -->
<g id="edge2" class="edge">
<title>0a8ebc7c&#45;fc4b&#45;4030&#45;914f&#45;320fda1c048d&#45;&gt;9b34b831&#45;4666&#45;497b&#45;93f4&#45;629f73b49049</title>
<path fill="none" stroke="#814477" d="M1805.75,-104.5C1783.22,-98.6 1757.63,-92.56 1733.99,-88.5 1705.6,-83.63 1675.17,-79.76 1645.75,-76.71"/>
<polygon fill="#814477" stroke="#814477" points="1646.33,-73.25 1636.03,-75.73 1645.63,-80.22 1646.33,-73.25"/>
<text text-anchor="middle" x="1693.11" y="-91.9" font-family="Times New Roman,serif" font-size="8.00" fill="#814477">mouse_cupboard EC=1s</text>
</g>
<!-- 0a8ebc7c&#45;fc4b&#45;4030&#45;914f&#45;320fda1c048d&#45;&gt;e696d765&#45;d5fb&#45;4cbc&#45;afbe&#45;c993f53804b6 -->
<g id="edge15" class="edge">
<title>0a8ebc7c&#45;fc4b&#45;4030&#45;914f&#45;320fda1c048d&#45;&gt;e696d765&#45;d5fb&#45;4cbc&#45;afbe&#45;c993f53804b6</title>
<path fill="none" stroke="#942c15" d="M1990.44,-116.57C2036.78,-113.18 2090.27,-108.19 2138.49,-101 2153.42,-98.77 2169.19,-95.86 2184.45,-92.75"/>
<polygon fill="#942c15" stroke="#942c15" points="2184.91,-96.23 2193.98,-90.76 2183.47,-89.38 2184.91,-96.23"/>
<text text-anchor="middle" x="2073.24" y="-117.9" font-family="Times New Roman,serif" font-size="8.00" fill="#942c15">reed_switch_mouse_cupboard EC=3s</text>
</g>
<!-- 87ec26d3&#45;0411&#45;406d&#45;af0f&#45;5b9bc7e2f2c8&#45;&gt;d9c63f85&#45;915f&#45;4260&#45;b256&#45;42e57ae0c0a4 -->
<g id="edge14" class="edge">
<title>87ec26d3&#45;0411&#45;406d&#45;af0f&#45;5b9bc7e2f2c8&#45;&gt;d9c63f85&#45;915f&#45;4260&#45;b256&#45;42e57ae0c0a4</title>
<path fill="none" stroke="#4289c6" d="M1460.76,-408.48C1339.11,-406.08 822.12,-395.86 547.28,-390.43"/>
<polygon fill="#4289c6" stroke="#4289c6" points="547.58,-386.93 537.51,-390.23 547.44,-393.93 547.58,-386.93"/>
<text text-anchor="middle" x="936.36" y="-406.9" font-family="Times New Roman,serif" font-size="8.00" fill="#4289c6">admin_user EC=5s</text>
</g>
<!-- 75243e93&#45;5a91&#45;4ee0&#45;bcf6&#45;4e26118ca2db -->
<g id="node17" class="node">
<title>75243e93&#45;5a91&#45;4ee0&#45;bcf6&#45;4e26118ca2db</title>
<polygon fill="none" stroke="none" points="1922.49,-427 1819.49,-427 1819.49,-391 1922.49,-391 1922.49,-427"/>
<polyline fill="none" stroke="black" points="1819.49,-391 1922.49,-391"/>
<text text-anchor="middle" x="1870.99" y="-403.57" font-family="Times New Roman,serif" font-size="14.00" fill="#69b85b">item_accessory</text>
</g>
<!-- 87ec26d3&#45;0411&#45;406d&#45;af0f&#45;5b9bc7e2f2c8&#45;&gt;75243e93&#45;5a91&#45;4ee0&#45;bcf6&#45;4e26118ca2db -->
<g id="edge28" class="edge">
<title>87ec26d3&#45;0411&#45;406d&#45;af0f&#45;5b9bc7e2f2c8&#45;&gt;75243e93&#45;5a91&#45;4ee0&#45;bcf6&#45;4e26118ca2db</title>
<path fill="none" stroke="#69b85b" d="M1515.36,-409C1575.4,-409 1723.14,-409 1807.77,-409"/>
<polygon fill="#69b85b" stroke="#69b85b" points="1807.51,-412.5 1817.51,-409 1807.51,-405.5 1807.51,-412.5"/>
</g>
<!-- f79b8d58&#45;4479&#45;498d&#45;a43c&#45;93e51533bf35 -->
<g id="node8" class="node">
<title>f79b8d58&#45;4479&#45;498d&#45;a43c&#45;93e51533bf35</title>
<ellipse fill="#4289c6" stroke="black" cx="936.36" cy="-72" rx="53.56" ry="18"/>
<text text-anchor="middle" x="936.36" y="-66.58" font-family="Times New Roman,serif" font-size="14.00">admin_user</text>
</g>
<!-- f79b8d58&#45;4479&#45;498d&#45;a43c&#45;93e51533bf35&#45;&gt;9b34b831&#45;4666&#45;497b&#45;93f4&#45;629f73b49049 -->
<g id="edge19" class="edge">
<title>f79b8d58&#45;4479&#45;498d&#45;a43c&#45;93e51533bf35&#45;&gt;9b34b831&#45;4666&#45;497b&#45;93f4&#45;629f73b49049</title>
<path fill="none" stroke="#4289c6" d="M990.3,-71.42C1067.87,-70.57 1215.6,-68.96 1329.84,-67.71"/>
<polygon fill="#4289c6" stroke="#4289c6" points="1329.67,-71.22 1339.63,-67.61 1329.59,-64.22 1329.67,-71.22"/>
</g>
<!-- b825d853&#45;622f&#45;436f&#45;9f62&#45;19e87ee2e572 -->
<g id="node9" class="node">
<title>b825d853&#45;622f&#45;436f&#45;9f62&#45;19e87ee2e572</title>
<ellipse fill="#bfc92a" stroke="black" cx="372.86" cy="-244" rx="72.52" ry="18"/>
<text text-anchor="middle" x="372.86" y="-238.57" font-family="Times New Roman,serif" font-size="14.00">it_working_desk</text>
</g>
<!-- b825d853&#45;622f&#45;436f&#45;9f62&#45;19e87ee2e572&#45;&gt;1e4c1a8d&#45;8804&#45;4326&#45;8fc4&#45;266749c02bc7 -->
<g id="edge20" class="edge">
<title>b825d853&#45;622f&#45;436f&#45;9f62&#45;19e87ee2e572&#45;&gt;1e4c1a8d&#45;8804&#45;4326&#45;8fc4&#45;266749c02bc7</title>
<path fill="none" stroke="#bfc92a" d="M445.83,-244C492.57,-244 557.07,-244 623.91,-244"/>
<polygon fill="#bfc92a" stroke="#bfc92a" points="623.58,-247.5 633.58,-244 623.58,-240.5 623.58,-247.5"/>
</g>
<!-- a966e555&#45;9a7e&#45;43ef&#45;86e6&#45;61743d2f23bc -->
<g id="node10" class="node">
<title>a966e555&#45;9a7e&#45;43ef&#45;86e6&#45;61743d2f23bc</title>
<ellipse fill="#69b85b" stroke="black" cx="936.36" cy="-456" rx="68.53" ry="18"/>
<text text-anchor="middle" x="936.36" y="-450.57" font-family="Times New Roman,serif" font-size="14.00">item_accessory</text>
</g>
<!-- a966e555&#45;9a7e&#45;43ef&#45;86e6&#45;61743d2f23bc&#45;&gt;87ec26d3&#45;0411&#45;406d&#45;af0f&#45;5b9bc7e2f2c8 -->
<g id="edge21" class="edge">
<title>a966e555&#45;9a7e&#45;43ef&#45;86e6&#45;61743d2f23bc&#45;&gt;87ec26d3&#45;0411&#45;406d&#45;af0f&#45;5b9bc7e2f2c8</title>
<path fill="none" stroke="#69b85b" d="M1001.92,-450.49C1078.6,-443.94 1210.36,-432.68 1323.49,-423 1366.56,-419.31 1416.01,-415.07 1449.13,-412.24"/>
<polygon fill="#69b85b" stroke="#69b85b" points="1449.37,-415.73 1459.04,-411.39 1448.77,-408.75 1449.37,-415.73"/>
</g>
<!-- 2e95cdcd&#45;716c&#45;447c&#45;9dc4&#45;b67cb693bec3 -->
<g id="node11" class="node">
<title>2e95cdcd&#45;716c&#45;447c&#45;9dc4&#45;b67cb693bec3</title>
<ellipse fill="#98a5e5" stroke="black" cx="936.36" cy="-355" rx="49.57" ry="18"/>
<text text-anchor="middle" x="936.36" y="-349.57" font-family="Times New Roman,serif" font-size="14.00">item_asset</text>
</g>
<!-- 2e95cdcd&#45;716c&#45;447c&#45;9dc4&#45;b67cb693bec3&#45;&gt;a7b543bf&#45;178b&#45;4af7&#45;aed1&#45;f8364eeb20e3 -->
<g id="edge22" class="edge">
<title>2e95cdcd&#45;716c&#45;447c&#45;9dc4&#45;b67cb693bec3&#45;&gt;a7b543bf&#45;178b&#45;4af7&#45;aed1&#45;f8364eeb20e3</title>
<path fill="none" stroke="#98a5e5" d="M985.74,-357.53C1059.1,-360.64 1202.71,-363.81 1323.49,-349 1367.44,-343.61 1416.82,-331.21 1449.68,-322.04"/>
<polygon fill="#98a5e5" stroke="#98a5e5" points="1450.45,-325.46 1459.12,-319.36 1448.54,-318.72 1450.45,-325.46"/>
</g>
<!-- ab78ea3a&#45;872a&#45;46e2&#45;b492&#45;9fc12f08bab7 -->
<g id="node12" class="node">
<title>ab78ea3a&#45;872a&#45;46e2&#45;b492&#45;9fc12f08bab7</title>
<ellipse fill="#814477" stroke="black" cx="936.36" cy="-18" rx="76.01" ry="18"/>
<text text-anchor="middle" x="936.36" y="-12.57" font-family="Times New Roman,serif" font-size="14.00">mouse_cupboard</text>
</g>
<!-- ab78ea3a&#45;872a&#45;46e2&#45;b492&#45;9fc12f08bab7&#45;&gt;9b34b831&#45;4666&#45;497b&#45;93f4&#45;629f73b49049 -->
<g id="edge23" class="edge">
<title>ab78ea3a&#45;872a&#45;46e2&#45;b492&#45;9fc12f08bab7&#45;&gt;9b34b831&#45;4666&#45;497b&#45;93f4&#45;629f73b49049</title>
<path fill="none" stroke="#814477" d="M1008.35,-24.2C1089.18,-31.26 1223.73,-43.01 1329.6,-52.26"/>
<polygon fill="#814477" stroke="#814477" points="1329.28,-55.75 1339.54,-53.13 1329.89,-48.77 1329.28,-55.75"/>
</g>
<!-- f6e5a767&#45;fb9d&#45;4a53&#45;90fa&#45;04290ab87f44 -->
<g id="node13" class="node">
<title>f6e5a767&#45;fb9d&#45;4a53&#45;90fa&#45;04290ab87f44</title>
<ellipse fill="#942c15" stroke="black" cx="1487.86" cy="-149" rx="125.91" ry="18"/>
<text text-anchor="middle" x="1487.86" y="-143.57" font-family="Times New Roman,serif" font-size="14.00">reed_switch_mouse_cupboard</text>
</g>
<!-- f6e5a767&#45;fb9d&#45;4a53&#45;90fa&#45;04290ab87f44&#45;&gt;0a8ebc7c&#45;fc4b&#45;4030&#45;914f&#45;320fda1c048d -->
<g id="edge24" class="edge">
<title>f6e5a767&#45;fb9d&#45;4a53&#45;90fa&#45;04290ab87f44&#45;&gt;0a8ebc7c&#45;fc4b&#45;4030&#45;914f&#45;320fda1c048d</title>
<path fill="none" stroke="#942c15" d="M1607.35,-142.97C1647.57,-140.73 1692.75,-138 1733.99,-135 1736.07,-134.85 1738.17,-134.69 1740.28,-134.54"/>
<polygon fill="#942c15" stroke="#942c15" points="1740.48,-138.03 1750.18,-133.77 1739.95,-131.05 1740.48,-138.03"/>
</g>
<!-- e79be9b7&#45;56b0&#45;41ac&#45;8404&#45;35c79e5c48b0 -->
<g id="node14" class="node">
<title>e79be9b7&#45;56b0&#45;41ac&#45;8404&#45;35c79e5c48b0</title>
<ellipse fill="#71db83" stroke="black" cx="86.49" cy="-387" rx="86.49" ry="18"/>
<text text-anchor="middle" x="86.49" y="-381.57" font-family="Times New Roman,serif" font-size="14.00">self_service_storage</text>
</g>
<!-- e79be9b7&#45;56b0&#45;41ac&#45;8404&#45;35c79e5c48b0&#45;&gt;d9c63f85&#45;915f&#45;4260&#45;b256&#45;42e57ae0c0a4 -->
<g id="edge25" class="edge">
<title>e79be9b7&#45;56b0&#45;41ac&#45;8404&#45;35c79e5c48b0&#45;&gt;d9c63f85&#45;915f&#45;4260&#45;b256&#45;42e57ae0c0a4</title>
<path fill="none" stroke="#71db83" d="M173.2,-387C181.33,-387 189.75,-387 198.34,-387"/>
<polygon fill="#71db83" stroke="#71db83" points="198.19,-390.5 208.19,-387 198.19,-383.5 198.19,-390.5"/>
</g>
</g>
</svg>
