<?xml version="1.0" encoding="UTF-8" standalone="no"?>
<!DOCTYPE svg PUBLIC "-//W3C//DTD SVG 1.1//EN"
 "http://www.w3.org/Graphics/SVG/1.1/DTD/svg11.dtd">
<!-- Generated by graphviz version 9.0.0 (20230911.1827)
 -->
<!-- Title: ocdfg Pages: 1 -->
<svg width="2213pt" height="775pt"
 viewBox="0.00 0.00 2213.06 774.80" xmlns="http://www.w3.org/2000/svg" xmlns:xlink="http://www.w3.org/1999/xlink">
<g id="graph0" class="graph" transform="scale(1 1) rotate(0) translate(4 770.8)">
<title>ocdfg</title>
<polygon fill="white" stroke="none" points="-4,4 -4,-770.8 2209.06,-770.8 2209.06,4 -4,4"/>
<!-- 9d903e6c&#45;5e8e&#45;462f&#45;97c5&#45;47f98734dd5d -->
<g id="node1" class="node">
<title>9d903e6c&#45;5e8e&#45;462f&#45;97c5&#45;47f98734dd5d</title>
<polygon fill="#9b9bff" stroke="black" points="178,-589.55 0,-589.55 0,-550.05 178,-550.05 178,-589.55"/>
<text text-anchor="middle" x="89" y="-572.25" font-family="Times New Roman,serif" font-size="14.00">Create system entry for asset</text>
<text text-anchor="middle" x="89" y="-556.5" font-family="Times New Roman,serif" font-size="14.00">E=2</text>
</g>
<!-- 47ae3166&#45;fe79&#45;486e&#45;88bf&#45;ea1eddefd44e -->
<g id="node3" class="node">
<title>47ae3166&#45;fe79&#45;486e&#45;88bf&#45;ea1eddefd44e</title>
<polygon fill="#9b9bff" stroke="black" points="668.74,-317.55 529.74,-317.55 529.74,-278.05 668.74,-278.05 668.74,-317.55"/>
<text text-anchor="middle" x="599.24" y="-300.25" font-family="Times New Roman,serif" font-size="14.00">Move asset to storage</text>
<text text-anchor="middle" x="599.24" y="-284.5" font-family="Times New Roman,serif" font-size="14.00">E=2</text>
</g>
<!-- 9d903e6c&#45;5e8e&#45;462f&#45;97c5&#45;47f98734dd5d&#45;&gt;47ae3166&#45;fe79&#45;486e&#45;88bf&#45;ea1eddefd44e -->
<g id="edge14" class="edge">
<title>9d903e6c&#45;5e8e&#45;462f&#45;97c5&#45;47f98734dd5d&#45;&gt;47ae3166&#45;fe79&#45;486e&#45;88bf&#45;ea1eddefd44e</title>
<path fill="none" stroke="#6e143b" d="M178.34,-555.69C284.46,-536.88 453.42,-500.34 494.75,-452.8 531.87,-410.11 476.62,-370.33 512.75,-326.8 514.91,-324.2 517.31,-321.83 519.9,-319.68"/>
<polygon fill="#6e143b" stroke="#6e143b" points="521.87,-322.57 528.09,-313.99 517.88,-316.82 521.87,-322.57"/>
<text text-anchor="middle" x="347.25" y="-534.7" font-family="Times New Roman,serif" font-size="8.00" fill="#6e143b">item_asset EC=1</text>
</g>
<!-- 581e8016&#45;57bc&#45;4197&#45;9ec3&#45;b011873f938e -->
<g id="node7" class="node">
<title>581e8016&#45;57bc&#45;4197&#45;9ec3&#45;b011873f938e</title>
<polygon fill="#9b9bff" stroke="black" points="1389.31,-518.55 1298.31,-518.55 1298.31,-479.05 1389.31,-479.05 1389.31,-518.55"/>
<text text-anchor="middle" x="1343.81" y="-501.25" font-family="Times New Roman,serif" font-size="14.00">Unpack asset</text>
<text text-anchor="middle" x="1343.81" y="-485.5" font-family="Times New Roman,serif" font-size="14.00">E=2</text>
</g>
<!-- 9d903e6c&#45;5e8e&#45;462f&#45;97c5&#45;47f98734dd5d&#45;&gt;581e8016&#45;57bc&#45;4197&#45;9ec3&#45;b011873f938e -->
<g id="edge28" class="edge">
<title>9d903e6c&#45;5e8e&#45;462f&#45;97c5&#45;47f98734dd5d&#45;&gt;581e8016&#45;57bc&#45;4197&#45;9ec3&#45;b011873f938e</title>
<path fill="none" stroke="#672dc5" d="M178.37,-571.63C367.72,-574.43 826.3,-575.16 1206.81,-527.8 1233.51,-524.48 1262.73,-518.55 1287.22,-512.92"/>
<polygon fill="#672dc5" stroke="#672dc5" points="1287.71,-516.4 1296.65,-510.71 1286.11,-509.59 1287.71,-516.4"/>
<text text-anchor="middle" x="599.24" y="-573.7" font-family="Times New Roman,serif" font-size="8.00" fill="#672dc5">it_working_desk EC=1</text>
</g>
<!-- e2fadfe8&#45;efeb&#45;4480&#45;9258&#45;2d505f0ace75 -->
<g id="node8" class="node">
<title>e2fadfe8&#45;efeb&#45;4480&#45;9258&#45;2d505f0ace75</title>
<polygon fill="#ffffff" stroke="black" points="374.25,-465.55 320.25,-465.55 320.25,-426.05 374.25,-426.05 374.25,-465.55"/>
<text text-anchor="middle" x="347.25" y="-448.25" font-family="Times New Roman,serif" font-size="14.00">create</text>
<text text-anchor="middle" x="347.25" y="-432.5" font-family="Times New Roman,serif" font-size="14.00">E=1</text>
</g>
<!-- 9d903e6c&#45;5e8e&#45;462f&#45;97c5&#45;47f98734dd5d&#45;&gt;e2fadfe8&#45;efeb&#45;4480&#45;9258&#45;2d505f0ace75 -->
<g id="edge11" class="edge">
<title>9d903e6c&#45;5e8e&#45;462f&#45;97c5&#45;47f98734dd5d&#45;&gt;e2fadfe8&#45;efeb&#45;4480&#45;9258&#45;2d505f0ace75</title>
<path fill="none" stroke="#6e143b" d="M113.01,-549.85C133.59,-532.85 165.18,-508.79 196,-493.3 232.58,-474.92 277.72,-461.8 308.93,-454.07"/>
<polygon fill="#6e143b" stroke="#6e143b" points="309.38,-457.56 318.28,-451.82 307.74,-450.75 309.38,-457.56"/>
<text text-anchor="middle" x="235.38" y="-495.7" font-family="Times New Roman,serif" font-size="8.00" fill="#6e143b">item_asset EC=1</text>
</g>
<!-- 9d903e6c&#45;5e8e&#45;462f&#45;97c5&#45;47f98734dd5d&#45;&gt;e2fadfe8&#45;efeb&#45;4480&#45;9258&#45;2d505f0ace75 -->
<g id="edge19" class="edge">
<title>9d903e6c&#45;5e8e&#45;462f&#45;97c5&#45;47f98734dd5d&#45;&gt;e2fadfe8&#45;efeb&#45;4480&#45;9258&#45;2d505f0ace75</title>
<path fill="none" stroke="#64c3cc" d="M100.8,-549.58C117.13,-521.38 151.04,-471.34 196,-450.3 231.42,-433.73 276.86,-435.02 308.45,-438.93"/>
<polygon fill="#64c3cc" stroke="#64c3cc" points="307.94,-442.4 318.33,-440.32 308.91,-435.46 307.94,-442.4"/>
<text text-anchor="middle" x="235.38" y="-453.7" font-family="Times New Roman,serif" font-size="8.00" fill="#64c3cc">admin_user EC=1</text>
</g>
<!-- 1e29b37e&#45;5824&#45;4e14&#45;bead&#45;4d94c907b395 -->
<g id="node11" class="node">
<title>1e29b37e&#45;5824&#45;4e14&#45;bead&#45;4d94c907b395</title>
<polygon fill="#ffffff" stroke="black" points="374.25,-317.55 320.25,-317.55 320.25,-278.05 374.25,-278.05 374.25,-317.55"/>
<text text-anchor="middle" x="347.25" y="-300.25" font-family="Times New Roman,serif" font-size="14.00">update</text>
<text text-anchor="middle" x="347.25" y="-284.5" font-family="Times New Roman,serif" font-size="14.00">E=1</text>
</g>
<!-- 9d903e6c&#45;5e8e&#45;462f&#45;97c5&#45;47f98734dd5d&#45;&gt;1e29b37e&#45;5824&#45;4e14&#45;bead&#45;4d94c907b395 -->
<g id="edge23" class="edge">
<title>9d903e6c&#45;5e8e&#45;462f&#45;97c5&#45;47f98734dd5d&#45;&gt;1e29b37e&#45;5824&#45;4e14&#45;bead&#45;4d94c907b395</title>
<path fill="none" stroke="#64c3cc" d="M101.93,-549.98C120.19,-520.48 157.05,-464.02 196,-422.3 231.66,-384.1 278.91,-346.72 310.82,-323.06"/>
<polygon fill="#64c3cc" stroke="#64c3cc" points="312.59,-326.1 318.58,-317.36 308.45,-320.46 312.59,-326.1"/>
<text text-anchor="middle" x="235.38" y="-425.7" font-family="Times New Roman,serif" font-size="8.00" fill="#64c3cc">admin_user EC=1</text>
</g>
<!-- 59d943a1&#45;26f4&#45;4370&#45;8cb4&#45;062d6bfeb63d -->
<g id="node20" class="node">
<title>59d943a1&#45;26f4&#45;4370&#45;8cb4&#45;062d6bfeb63d</title>
<polygon fill="none" stroke="none" points="401.75,-766.8 292.75,-766.8 292.75,-730.8 401.75,-730.8 401.75,-766.8"/>
<polyline fill="none" stroke="black" points="292.75,-730.8 401.75,-730.8"/>
<text text-anchor="middle" x="347.25" y="-743.38" font-family="Times New Roman,serif" font-size="14.00" fill="#672dc5">it_working_desk</text>
</g>
<!-- 9d903e6c&#45;5e8e&#45;462f&#45;97c5&#45;47f98734dd5d&#45;&gt;59d943a1&#45;26f4&#45;4370&#45;8cb4&#45;062d6bfeb63d -->
<g id="edge39" class="edge">
<title>9d903e6c&#45;5e8e&#45;462f&#45;97c5&#45;47f98734dd5d&#45;&gt;59d943a1&#45;26f4&#45;4370&#45;8cb4&#45;062d6bfeb63d</title>
<path fill="none" stroke="#672dc5" d="M98.57,-589.85C113.42,-622.05 147.11,-684.91 196,-716.8 221.13,-733.19 253.19,-741.36 281.24,-745.36"/>
<polygon fill="#672dc5" stroke="#672dc5" points="280.71,-748.82 291.07,-746.6 281.58,-741.88 280.71,-748.82"/>
<text text-anchor="middle" x="235.38" y="-746.7" font-family="Times New Roman,serif" font-size="8.00" fill="#672dc5">it_working_desk EC=1</text>
</g>
<!-- e1df236b&#45;db51&#45;4a43&#45;b915&#45;ad4906729677 -->
<g id="node2" class="node">
<title>e1df236b&#45;db51&#45;4a43&#45;b915&#45;ad4906729677</title>
<polygon fill="#9b9bff" stroke="black" points="2190.81,-615.55 2030.06,-615.55 2030.06,-576.05 2190.81,-576.05 2190.81,-615.55"/>
<text text-anchor="middle" x="2110.44" y="-598.25" font-family="Times New Roman,serif" font-size="14.00">Install and configure asset</text>
<text text-anchor="middle" x="2110.44" y="-582.5" font-family="Times New Roman,serif" font-size="14.00">E=2</text>
</g>
<!-- e1df236b&#45;db51&#45;4a43&#45;b915&#45;ad4906729677&#45;&gt;9d903e6c&#45;5e8e&#45;462f&#45;97c5&#45;47f98734dd5d -->
<g id="edge10" class="edge">
<title>e1df236b&#45;db51&#45;4a43&#45;b915&#45;ad4906729677&#45;&gt;9d903e6c&#45;5e8e&#45;462f&#45;97c5&#45;47f98734dd5d</title>
<path fill="none" stroke="#6e143b" stroke-width="2.6" d="M2086.38,-615.73C2064.95,-633.07 2031.37,-657.31 1997.81,-669.8 1889.68,-710.06 1855.69,-702.8 1740.31,-702.8 346.25,-702.8 346.25,-702.8 346.25,-702.8 277.88,-702.8 256.45,-701.75 196,-669.8 163.52,-652.63 133.77,-622.76 114.12,-600.12"/>
<polygon fill="#6e143b" stroke="#6e143b" stroke-width="2.6" points="116.97,-598.07 107.85,-592.68 111.62,-602.59 116.97,-598.07"/>
<text text-anchor="middle" x="939.15" y="-705.7" font-family="Times New Roman,serif" font-size="8.00" fill="#6e143b">item_asset EC=2</text>
</g>
<!-- e1df236b&#45;db51&#45;4a43&#45;b915&#45;ad4906729677&#45;&gt;9d903e6c&#45;5e8e&#45;462f&#45;97c5&#45;47f98734dd5d -->
<g id="edge18" class="edge">
<title>e1df236b&#45;db51&#45;4a43&#45;b915&#45;ad4906729677&#45;&gt;9d903e6c&#45;5e8e&#45;462f&#45;97c5&#45;47f98734dd5d</title>
<path fill="none" stroke="#64c3cc" stroke-width="2.6" d="M2031.19,-616.03C1956.88,-633.45 1841.76,-655.8 1740.31,-655.8 346.25,-655.8 346.25,-655.8 346.25,-655.8 277.88,-655.8 260.46,-645.6 196,-622.8 176.08,-615.76 155.09,-605.83 137.08,-596.48"/>
<polygon fill="#64c3cc" stroke="#64c3cc" stroke-width="2.6" points="138.8,-593.43 128.33,-591.82 135.51,-599.61 138.8,-593.43"/>
<text text-anchor="middle" x="939.15" y="-658.7" font-family="Times New Roman,serif" font-size="8.00" fill="#64c3cc">admin_user EC=2</text>
</g>
<!-- e1df236b&#45;db51&#45;4a43&#45;b915&#45;ad4906729677&#45;&gt;9d903e6c&#45;5e8e&#45;462f&#45;97c5&#45;47f98734dd5d -->
<g id="edge27" class="edge">
<title>e1df236b&#45;db51&#45;4a43&#45;b915&#45;ad4906729677&#45;&gt;9d903e6c&#45;5e8e&#45;462f&#45;97c5&#45;47f98734dd5d</title>
<path fill="none" stroke="#672dc5" stroke-width="2.6" d="M2029.9,-600.22C1955.16,-603.99 1840.18,-608.8 1740.31,-608.8 346.25,-608.8 346.25,-608.8 346.25,-608.8 295.05,-608.8 238.75,-601.1 191.99,-592.54"/>
<polygon fill="#672dc5" stroke="#672dc5" stroke-width="2.6" points="192.78,-589.13 182.31,-590.71 191.49,-596 192.78,-589.13"/>
<text text-anchor="middle" x="939.15" y="-611.7" font-family="Times New Roman,serif" font-size="8.00" fill="#672dc5">it_working_desk EC=2</text>
</g>
<!-- 18bd8c3b&#45;43b8&#45;4f01&#45;a97f&#45;27fd3a41be4e -->
<g id="node4" class="node">
<title>18bd8c3b&#45;43b8&#45;4f01&#45;a97f&#45;27fd3a41be4e</title>
<polygon fill="#ffffff" stroke="black" points="1038.65,-512.55 839.65,-512.55 839.65,-473.05 1038.65,-473.05 1038.65,-512.55"/>
<text text-anchor="middle" x="939.15" y="-495.25" font-family="Times New Roman,serif" font-size="14.00">Pick asset from self service desk</text>
<text text-anchor="middle" x="939.15" y="-479.5" font-family="Times New Roman,serif" font-size="14.00">E=1</text>
</g>
<!-- 47ae3166&#45;fe79&#45;486e&#45;88bf&#45;ea1eddefd44e&#45;&gt;18bd8c3b&#45;43b8&#45;4f01&#45;a97f&#45;27fd3a41be4e -->
<g id="edge21" class="edge">
<title>47ae3166&#45;fe79&#45;486e&#45;88bf&#45;ea1eddefd44e&#45;&gt;18bd8c3b&#45;43b8&#45;4f01&#45;a97f&#45;27fd3a41be4e</title>
<path fill="none" stroke="#64c3cc" d="M669,-304.17C721.47,-309.69 786.26,-318.21 795.24,-327.3 836.36,-368.97 774.75,-413.68 813.24,-457.8 818,-463.26 823.53,-467.9 829.57,-471.84"/>
<polygon fill="#64c3cc" stroke="#64c3cc" points="827.71,-474.8 838.13,-476.72 831.18,-468.72 827.71,-474.8"/>
<text text-anchor="middle" x="749.49" y="-330.7" font-family="Times New Roman,serif" font-size="8.00" fill="#64c3cc">admin_user EC=1</text>
</g>
<!-- 78354838&#45;ca9a&#45;488c&#45;86fc&#45;841cece96ba3 -->
<g id="node10" class="node">
<title>78354838&#45;ca9a&#45;488c&#45;86fc&#45;841cece96ba3</title>
<polygon fill="#9b9bff" stroke="black" points="1462.81,-207.55 1224.81,-207.55 1224.81,-168.05 1462.81,-168.05 1462.81,-207.55"/>
<text text-anchor="middle" x="1343.81" y="-190.25" font-family="Times New Roman,serif" font-size="14.00">reed_switch_mouse_cupboard_opened</text>
<text text-anchor="middle" x="1343.81" y="-174.5" font-family="Times New Roman,serif" font-size="14.00">E=2</text>
</g>
<!-- 47ae3166&#45;fe79&#45;486e&#45;88bf&#45;ea1eddefd44e&#45;&gt;78354838&#45;ca9a&#45;488c&#45;86fc&#45;841cece96ba3 -->
<g id="edge4" class="edge">
<title>47ae3166&#45;fe79&#45;486e&#45;88bf&#45;ea1eddefd44e&#45;&gt;78354838&#45;ca9a&#45;488c&#45;86fc&#45;841cece96ba3</title>
<path fill="none" stroke="#fd3827" d="M668.98,-282.9C675.37,-279.19 681.15,-274.57 685.74,-268.8 710.62,-237.51 674.37,-116.93 703.74,-89.8 867.99,61.94 995.33,-9.12 1206.81,-81.8 1251.32,-97.1 1292.46,-133.59 1317.58,-159.47"/>
<polygon fill="#fd3827" stroke="#fd3827" points="1315,-161.84 1324.42,-166.69 1320.08,-157.03 1315,-161.84"/>
<text text-anchor="middle" x="939.15" y="-35.7" font-family="Times New Roman,serif" font-size="8.00" fill="#fd3827">mouse_cupboard EC=1</text>
</g>
<!-- 54b75ece&#45;4fda&#45;474a&#45;84e1&#45;695ee1ddd6f5 -->
<g id="node19" class="node">
<title>54b75ece&#45;4fda&#45;474a&#45;84e1&#45;695ee1ddd6f5</title>
<polygon fill="none" stroke="none" points="979.4,-329.8 898.9,-329.8 898.9,-293.8 979.4,-293.8 979.4,-329.8"/>
<polyline fill="none" stroke="black" points="898.9,-293.8 979.4,-293.8"/>
<text text-anchor="middle" x="939.15" y="-306.38" font-family="Times New Roman,serif" font-size="14.00" fill="#64c3cc">admin_user</text>
</g>
<!-- 47ae3166&#45;fe79&#45;486e&#45;88bf&#45;ea1eddefd44e&#45;&gt;54b75ece&#45;4fda&#45;474a&#45;84e1&#45;695ee1ddd6f5 -->
<g id="edge38" class="edge">
<title>47ae3166&#45;fe79&#45;486e&#45;88bf&#45;ea1eddefd44e&#45;&gt;54b75ece&#45;4fda&#45;474a&#45;84e1&#45;695ee1ddd6f5</title>
<path fill="none" stroke="#64c3cc" d="M668.98,-294.39C680.58,-293.94 692.5,-293.54 703.74,-293.3 744.39,-292.42 754.65,-290.68 795.24,-293.3 825.93,-295.28 860.1,-299.62 887.33,-303.61"/>
<polygon fill="#64c3cc" stroke="#64c3cc" points="886.64,-307.04 897.05,-305.06 887.68,-300.12 886.64,-307.04"/>
<text text-anchor="middle" x="749.49" y="-296.7" font-family="Times New Roman,serif" font-size="8.00" fill="#64c3cc">admin_user EC=1</text>
</g>
<!-- 96cf8db8&#45;6bde&#45;4c8e&#45;84af&#45;fec289882d80 -->
<g id="node22" class="node">
<title>96cf8db8&#45;6bde&#45;4c8e&#45;84af&#45;fec289882d80</title>
<polygon fill="none" stroke="none" points="976.4,-275.8 901.9,-275.8 901.9,-239.8 976.4,-239.8 976.4,-275.8"/>
<polyline fill="none" stroke="black" points="901.9,-239.8 976.4,-239.8"/>
<text text-anchor="middle" x="939.15" y="-252.38" font-family="Times New Roman,serif" font-size="14.00" fill="#6e143b">item_asset</text>
</g>
<!-- 47ae3166&#45;fe79&#45;486e&#45;88bf&#45;ea1eddefd44e&#45;&gt;96cf8db8&#45;6bde&#45;4c8e&#45;84af&#45;fec289882d80 -->
<g id="edge41" class="edge">
<title>47ae3166&#45;fe79&#45;486e&#45;88bf&#45;ea1eddefd44e&#45;&gt;96cf8db8&#45;6bde&#45;4c8e&#45;84af&#45;fec289882d80</title>
<path fill="none" stroke="#6e143b" stroke-width="2.6" d="M669.12,-283.84C680.64,-281.79 692.51,-279.85 703.74,-278.3 766.95,-269.6 840.3,-263.89 887.88,-260.75"/>
<polygon fill="#6e143b" stroke="#6e143b" stroke-width="2.6" points="887.8,-264.26 897.55,-260.13 887.35,-257.28 887.8,-264.26"/>
<text text-anchor="middle" x="749.49" y="-281.7" font-family="Times New Roman,serif" font-size="8.00" fill="#6e143b">item_asset EC=2</text>
</g>
<!-- a8ab4afc&#45;0d42&#45;4943&#45;b389&#45;4f21388dc3b6 -->
<g id="node25" class="node">
<title>a8ab4afc&#45;0d42&#45;4943&#45;b389&#45;4f21388dc3b6</title>
<polygon fill="none" stroke="none" points="1004.15,-167.8 874.15,-167.8 874.15,-131.8 1004.15,-131.8 1004.15,-167.8"/>
<polyline fill="none" stroke="black" points="874.15,-131.8 1004.15,-131.8"/>
<text text-anchor="middle" x="939.15" y="-144.38" font-family="Times New Roman,serif" font-size="14.00" fill="#3831f1">self_service_storage</text>
</g>
<!-- 47ae3166&#45;fe79&#45;486e&#45;88bf&#45;ea1eddefd44e&#45;&gt;a8ab4afc&#45;0d42&#45;4943&#45;b389&#45;4f21388dc3b6 -->
<g id="edge44" class="edge">
<title>47ae3166&#45;fe79&#45;486e&#45;88bf&#45;ea1eddefd44e&#45;&gt;a8ab4afc&#45;0d42&#45;4943&#45;b389&#45;4f21388dc3b6</title>
<path fill="none" stroke="#3831f1" d="M667.04,-277.72C673.5,-275.02 679.83,-272.05 685.74,-268.8 694.74,-263.85 695.54,-260.49 703.74,-254.3 751.31,-218.36 758.66,-200.81 813.24,-176.8 828.73,-169.99 846.08,-164.83 862.81,-160.96"/>
<polygon fill="#3831f1" stroke="#3831f1" points="863.18,-164.46 872.21,-158.92 861.69,-157.62 863.18,-164.46"/>
<text text-anchor="middle" x="749.49" y="-257.7" font-family="Times New Roman,serif" font-size="8.00" fill="#3831f1">self_service_storage EC=1</text>
</g>
<!-- 18bd8c3b&#45;43b8&#45;4f01&#45;a97f&#45;27fd3a41be4e&#45;&gt;47ae3166&#45;fe79&#45;486e&#45;88bf&#45;ea1eddefd44e -->
<g id="edge29" class="edge">
<title>18bd8c3b&#45;43b8&#45;4f01&#45;a97f&#45;27fd3a41be4e&#45;&gt;47ae3166&#45;fe79&#45;486e&#45;88bf&#45;ea1eddefd44e</title>
<path fill="none" stroke="#3831f1" d="M839.26,-476.78C829.52,-471.96 820.56,-465.75 813.24,-457.8 784.58,-426.66 823.76,-395.56 795.24,-364.3 766.7,-333.02 742.48,-354.88 703.74,-337.8 695.16,-334.02 694.23,-330.78 685.74,-326.8 682.4,-325.24 678.96,-323.72 675.45,-322.25"/>
<polygon fill="#3831f1" stroke="#3831f1" points="676.8,-319.02 666.21,-318.55 674.19,-325.51 676.8,-319.02"/>
<text text-anchor="middle" x="749.49" y="-367.7" font-family="Times New Roman,serif" font-size="8.00" fill="#3831f1">self_service_storage EC=1</text>
</g>
<!-- 18bd8c3b&#45;43b8&#45;4f01&#45;a97f&#45;27fd3a41be4e&#45;&gt;581e8016&#45;57bc&#45;4197&#45;9ec3&#45;b011873f938e -->
<g id="edge13" class="edge">
<title>18bd8c3b&#45;43b8&#45;4f01&#45;a97f&#45;27fd3a41be4e&#45;&gt;581e8016&#45;57bc&#45;4197&#45;9ec3&#45;b011873f938e</title>
<path fill="none" stroke="#6e143b" d="M1038.91,-494.27C1116.73,-495.43 1222.44,-497.01 1286.47,-497.96"/>
<polygon fill="#6e143b" stroke="#6e143b" points="1286.36,-501.46 1296.41,-498.11 1286.47,-494.46 1286.36,-501.46"/>
<text text-anchor="middle" x="1144.94" y="-498.7" font-family="Times New Roman,serif" font-size="8.00" fill="#6e143b">item_asset EC=1</text>
</g>
<!-- 18bd8c3b&#45;43b8&#45;4f01&#45;a97f&#45;27fd3a41be4e&#45;&gt;581e8016&#45;57bc&#45;4197&#45;9ec3&#45;b011873f938e -->
<g id="edge22" class="edge">
<title>18bd8c3b&#45;43b8&#45;4f01&#45;a97f&#45;27fd3a41be4e&#45;&gt;581e8016&#45;57bc&#45;4197&#45;9ec3&#45;b011873f938e</title>
<path fill="none" stroke="#64c3cc" d="M1038.79,-506.86C1053.6,-508.5 1068.71,-509.9 1083.06,-510.8 1137.95,-514.24 1151.86,-513.22 1206.81,-510.8 1233.08,-509.64 1262.12,-507.24 1286.6,-504.88"/>
<polygon fill="#64c3cc" stroke="#64c3cc" points="1286.74,-508.38 1296.35,-503.92 1286.05,-501.42 1286.74,-508.38"/>
<text text-anchor="middle" x="1144.94" y="-515.7" font-family="Times New Roman,serif" font-size="8.00" fill="#64c3cc">admin_user EC=1</text>
</g>
<!-- d3195826&#45;8d9a&#45;4ecf&#45;b84e&#45;08743c3b66b8 -->
<g id="node5" class="node">
<title>d3195826&#45;8d9a&#45;4ecf&#45;b84e&#45;08743c3b66b8</title>
<polygon fill="#ffffff" stroke="black" points="1022.15,-448.55 856.15,-448.55 856.15,-409.05 1022.15,-409.05 1022.15,-448.55"/>
<text text-anchor="middle" x="939.15" y="-431.25" font-family="Times New Roman,serif" font-size="14.00">Pick asset from warehouse</text>
<text text-anchor="middle" x="939.15" y="-415.5" font-family="Times New Roman,serif" font-size="14.00">E=1</text>
</g>
<!-- d3195826&#45;8d9a&#45;4ecf&#45;b84e&#45;08743c3b66b8&#45;&gt;581e8016&#45;57bc&#45;4197&#45;9ec3&#45;b011873f938e -->
<g id="edge7" class="edge">
<title>d3195826&#45;8d9a&#45;4ecf&#45;b84e&#45;08743c3b66b8&#45;&gt;581e8016&#45;57bc&#45;4197&#45;9ec3&#45;b011873f938e</title>
<path fill="none" stroke="#6e143b" d="M1022.6,-443.13C1101.5,-456.85 1218.35,-477.16 1286.92,-489.08"/>
<polygon fill="#6e143b" stroke="#6e143b" points="1285.97,-492.47 1296.42,-490.74 1287.17,-485.57 1285.97,-492.47"/>
<text text-anchor="middle" x="1144.94" y="-477.7" font-family="Times New Roman,serif" font-size="8.00" fill="#6e143b">item_asset EC=1</text>
</g>
<!-- d3195826&#45;8d9a&#45;4ecf&#45;b84e&#45;08743c3b66b8&#45;&gt;581e8016&#45;57bc&#45;4197&#45;9ec3&#45;b011873f938e -->
<g id="edge15" class="edge">
<title>d3195826&#45;8d9a&#45;4ecf&#45;b84e&#45;08743c3b66b8&#45;&gt;581e8016&#45;57bc&#45;4197&#45;9ec3&#45;b011873f938e</title>
<path fill="none" stroke="#64c3cc" d="M1022.55,-425.24C1075.77,-424.75 1146.14,-427.51 1206.81,-441.3 1237.24,-448.21 1269.48,-461.55 1294.93,-473.65"/>
<polygon fill="#64c3cc" stroke="#64c3cc" points="1293.15,-476.67 1303.68,-477.89 1296.21,-470.38 1293.15,-476.67"/>
<text text-anchor="middle" x="1144.94" y="-444.7" font-family="Times New Roman,serif" font-size="8.00" fill="#64c3cc">admin_user EC=1</text>
</g>
<!-- d3195826&#45;8d9a&#45;4ecf&#45;b84e&#45;08743c3b66b8&#45;&gt;78354838&#45;ca9a&#45;488c&#45;86fc&#45;841cece96ba3 -->
<g id="edge1" class="edge">
<title>d3195826&#45;8d9a&#45;4ecf&#45;b84e&#45;08743c3b66b8&#45;&gt;78354838&#45;ca9a&#45;488c&#45;86fc&#45;841cece96ba3</title>
<path fill="none" stroke="#fd3827" d="M1022.45,-418.77C1089.13,-409.45 1176.75,-394.1 1206.81,-374.8 1267.09,-336.09 1309.42,-260.47 1329.53,-218.22"/>
<polygon fill="#fd3827" stroke="#fd3827" points="1332.61,-219.91 1333.64,-209.36 1326.26,-216.96 1332.61,-219.91"/>
<text text-anchor="middle" x="1144.94" y="-412.7" font-family="Times New Roman,serif" font-size="8.00" fill="#fd3827">mouse_cupboard EC=1</text>
</g>
<!-- 5ecd5e91&#45;6f42&#45;4026&#45;a1ef&#45;22b34332cb2c -->
<g id="node6" class="node">
<title>5ecd5e91&#45;6f42&#45;4026&#45;a1ef&#45;22b34332cb2c</title>
<polygon fill="#9b9bff" stroke="black" points="1843.69,-544.55 1634.94,-544.55 1634.94,-505.05 1843.69,-505.05 1843.69,-544.55"/>
<text text-anchor="middle" x="1739.31" y="-527.25" font-family="Times New Roman,serif" font-size="14.00">Test asset quality and functionality</text>
<text text-anchor="middle" x="1739.31" y="-511.5" font-family="Times New Roman,serif" font-size="14.00">E=2</text>
</g>
<!-- 5ecd5e91&#45;6f42&#45;4026&#45;a1ef&#45;22b34332cb2c&#45;&gt;e1df236b&#45;db51&#45;4a43&#45;b915&#45;ad4906729677 -->
<g id="edge9" class="edge">
<title>5ecd5e91&#45;6f42&#45;4026&#45;a1ef&#45;22b34332cb2c&#45;&gt;e1df236b&#45;db51&#45;4a43&#45;b915&#45;ad4906729677</title>
<path fill="none" stroke="#6e143b" stroke-width="2.6" d="M1844.02,-505.65C1891.88,-500.76 1948.82,-500.64 1997.81,-516.3 2028.88,-526.23 2058.69,-548.33 2079.67,-566.71"/>
<polygon fill="#6e143b" stroke="#6e143b" stroke-width="2.6" points="2077.13,-569.13 2086.89,-573.26 2081.83,-563.95 2077.13,-569.13"/>
<text text-anchor="middle" x="1935.94" y="-518.7" font-family="Times New Roman,serif" font-size="8.00" fill="#6e143b">item_asset EC=2</text>
</g>
<!-- 5ecd5e91&#45;6f42&#45;4026&#45;a1ef&#45;22b34332cb2c&#45;&gt;e1df236b&#45;db51&#45;4a43&#45;b915&#45;ad4906729677 -->
<g id="edge17" class="edge">
<title>5ecd5e91&#45;6f42&#45;4026&#45;a1ef&#45;22b34332cb2c&#45;&gt;e1df236b&#45;db51&#45;4a43&#45;b915&#45;ad4906729677</title>
<path fill="none" stroke="#64c3cc" stroke-width="2.6" d="M1809.37,-545.02C1830.05,-550.63 1852.87,-556.39 1874.06,-560.8 1920.5,-570.47 1972.64,-578.51 2016.01,-584.43"/>
<polygon fill="#64c3cc" stroke="#64c3cc" stroke-width="2.6" points="2015.49,-587.89 2025.87,-585.75 2016.42,-580.95 2015.49,-587.89"/>
<text text-anchor="middle" x="1935.94" y="-583.7" font-family="Times New Roman,serif" font-size="8.00" fill="#64c3cc">admin_user EC=2</text>
</g>
<!-- 5ecd5e91&#45;6f42&#45;4026&#45;a1ef&#45;22b34332cb2c&#45;&gt;e1df236b&#45;db51&#45;4a43&#45;b915&#45;ad4906729677 -->
<g id="edge26" class="edge">
<title>5ecd5e91&#45;6f42&#45;4026&#45;a1ef&#45;22b34332cb2c&#45;&gt;e1df236b&#45;db51&#45;4a43&#45;b915&#45;ad4906729677</title>
<path fill="none" stroke="#672dc5" stroke-width="2.6" d="M1843.98,-526.92C1891.45,-529.75 1948.08,-535.78 1997.81,-548.3 2018.04,-553.39 2039.33,-561.66 2057.82,-569.87"/>
<polygon fill="#672dc5" stroke="#672dc5" stroke-width="2.6" points="2056.31,-573.03 2066.86,-574.02 2059.23,-566.67 2056.31,-573.03"/>
<text text-anchor="middle" x="1935.94" y="-550.7" font-family="Times New Roman,serif" font-size="8.00" fill="#672dc5">it_working_desk EC=2</text>
</g>
<!-- 581e8016&#45;57bc&#45;4197&#45;9ec3&#45;b011873f938e&#45;&gt;5ecd5e91&#45;6f42&#45;4026&#45;a1ef&#45;22b34332cb2c -->
<g id="edge8" class="edge">
<title>581e8016&#45;57bc&#45;4197&#45;9ec3&#45;b011873f938e&#45;&gt;5ecd5e91&#45;6f42&#45;4026&#45;a1ef&#45;22b34332cb2c</title>
<path fill="none" stroke="#6e143b" stroke-width="2.6" d="M1389.42,-500.88C1441.19,-503.39 1529.1,-507.95 1604.56,-513.3 1609.9,-513.68 1615.36,-514.08 1620.87,-514.5"/>
<polygon fill="#6e143b" stroke="#6e143b" stroke-width="2.6" points="1620.48,-517.98 1630.73,-515.27 1621.03,-511 1620.48,-517.98"/>
<text text-anchor="middle" x="1542.69" y="-515.7" font-family="Times New Roman,serif" font-size="8.00" fill="#6e143b">item_asset EC=2</text>
</g>
<!-- 581e8016&#45;57bc&#45;4197&#45;9ec3&#45;b011873f938e&#45;&gt;5ecd5e91&#45;6f42&#45;4026&#45;a1ef&#45;22b34332cb2c -->
<g id="edge16" class="edge">
<title>581e8016&#45;57bc&#45;4197&#45;9ec3&#45;b011873f938e&#45;&gt;5ecd5e91&#45;6f42&#45;4026&#45;a1ef&#45;22b34332cb2c</title>
<path fill="none" stroke="#64c3cc" stroke-width="2.6" d="M1389.6,-493.04C1441.52,-487.36 1529.59,-480.79 1604.56,-490.3 1622.85,-492.62 1642.22,-496.66 1660.36,-501.17"/>
<polygon fill="#64c3cc" stroke="#64c3cc" stroke-width="2.6" points="1659.28,-504.51 1669.83,-503.63 1661.03,-497.73 1659.28,-504.51"/>
<text text-anchor="middle" x="1542.69" y="-492.7" font-family="Times New Roman,serif" font-size="8.00" fill="#64c3cc">admin_user EC=2</text>
</g>
<!-- 581e8016&#45;57bc&#45;4197&#45;9ec3&#45;b011873f938e&#45;&gt;5ecd5e91&#45;6f42&#45;4026&#45;a1ef&#45;22b34332cb2c -->
<g id="edge25" class="edge">
<title>581e8016&#45;57bc&#45;4197&#45;9ec3&#45;b011873f938e&#45;&gt;5ecd5e91&#45;6f42&#45;4026&#45;a1ef&#45;22b34332cb2c</title>
<path fill="none" stroke="#672dc5" stroke-width="2.6" d="M1389.56,-509.1C1415.95,-514.65 1450.1,-520.94 1480.81,-523.8 1526.5,-528.05 1576.94,-529.06 1620.99,-528.73"/>
<polygon fill="#672dc5" stroke="#672dc5" stroke-width="2.6" points="1620.84,-532.24 1630.81,-528.63 1620.77,-525.24 1620.84,-532.24"/>
<text text-anchor="middle" x="1542.69" y="-530.7" font-family="Times New Roman,serif" font-size="8.00" fill="#672dc5">it_working_desk EC=2</text>
</g>
<!-- e2fadfe8&#45;efeb&#45;4480&#45;9258&#45;2d505f0ace75&#45;&gt;47ae3166&#45;fe79&#45;486e&#45;88bf&#45;ea1eddefd44e -->
<g id="edge12" class="edge">
<title>e2fadfe8&#45;efeb&#45;4480&#45;9258&#45;2d505f0ace75&#45;&gt;47ae3166&#45;fe79&#45;486e&#45;88bf&#45;ea1eddefd44e</title>
<path fill="none" stroke="#6e143b" d="M371.3,-425.66C401.84,-399.8 458.25,-354.94 512.75,-326.8 515.62,-325.32 518.59,-323.88 521.61,-322.5"/>
<polygon fill="#6e143b" stroke="#6e143b" points="522.87,-325.77 530.67,-318.61 520.1,-319.34 522.87,-325.77"/>
<text text-anchor="middle" x="457.25" y="-389.7" font-family="Times New Roman,serif" font-size="8.00" fill="#6e143b">item_asset EC=1</text>
</g>
<!-- e2fadfe8&#45;efeb&#45;4480&#45;9258&#45;2d505f0ace75&#45;&gt;47ae3166&#45;fe79&#45;486e&#45;88bf&#45;ea1eddefd44e -->
<g id="edge20" class="edge">
<title>e2fadfe8&#45;efeb&#45;4480&#45;9258&#45;2d505f0ace75&#45;&gt;47ae3166&#45;fe79&#45;486e&#45;88bf&#45;ea1eddefd44e</title>
<path fill="none" stroke="#64c3cc" d="M374.51,-445.24C407.38,-443.07 463.18,-434.3 494.75,-400.8 517.96,-376.17 489.9,-351.77 512.75,-326.8 514.98,-324.36 517.43,-322.13 520.03,-320.08"/>
<polygon fill="#64c3cc" stroke="#64c3cc" points="521.8,-323.11 528.19,-314.66 517.92,-317.28 521.8,-323.11"/>
<text text-anchor="middle" x="457.25" y="-441.7" font-family="Times New Roman,serif" font-size="8.00" fill="#64c3cc">admin_user EC=1</text>
</g>
<!-- 523689c4&#45;50ea&#45;4b69&#45;b1ea&#45;8fa57f19d091 -->
<g id="node9" class="node">
<title>523689c4&#45;50ea&#45;4b69&#45;b1ea&#45;8fa57f19d091</title>
<polygon fill="#9b9bff" stroke="black" points="1856.06,-181.55 1622.56,-181.55 1622.56,-142.05 1856.06,-142.05 1856.06,-181.55"/>
<text text-anchor="middle" x="1739.31" y="-164.25" font-family="Times New Roman,serif" font-size="14.00">reed_switch_mouse_cupboard_closed</text>
<text text-anchor="middle" x="1739.31" y="-148.5" font-family="Times New Roman,serif" font-size="14.00">E=2</text>
</g>
<!-- 523689c4&#45;50ea&#45;4b69&#45;b1ea&#45;8fa57f19d091&#45;&gt;47ae3166&#45;fe79&#45;486e&#45;88bf&#45;ea1eddefd44e -->
<g id="edge3" class="edge">
<title>523689c4&#45;50ea&#45;4b69&#45;b1ea&#45;8fa57f19d091&#45;&gt;47ae3166&#45;fe79&#45;486e&#45;88bf&#45;ea1eddefd44e</title>
<path fill="none" stroke="#fd3827" d="M1650.8,-141.56C1484.53,-106.7 1112.81,-46.1 813.24,-122.8 759.48,-136.56 736.78,-138.22 703.74,-182.8 680.48,-214.17 711.63,-239.57 685.74,-268.8 683.54,-271.27 681.13,-273.54 678.55,-275.61"/>
<polygon fill="#fd3827" stroke="#fd3827" points="676.78,-272.58 670.46,-281.08 680.7,-278.38 676.78,-272.58"/>
<text text-anchor="middle" x="1144.94" y="-89.7" font-family="Times New Roman,serif" font-size="8.00" fill="#fd3827">mouse_cupboard EC=1</text>
</g>
<!-- 523689c4&#45;50ea&#45;4b69&#45;b1ea&#45;8fa57f19d091&#45;&gt;78354838&#45;ca9a&#45;488c&#45;86fc&#45;841cece96ba3 -->
<g id="edge6" class="edge">
<title>523689c4&#45;50ea&#45;4b69&#45;b1ea&#45;8fa57f19d091&#45;&gt;78354838&#45;ca9a&#45;488c&#45;86fc&#45;841cece96ba3</title>
<path fill="none" stroke="#af1951" d="M1658.49,-182.02C1640.85,-185.67 1622.16,-188.91 1604.56,-190.8 1562.36,-195.32 1516.07,-196.11 1474.42,-195.31"/>
<polygon fill="#af1951" stroke="#af1951" points="1474.67,-191.81 1464.6,-195.08 1474.51,-198.81 1474.67,-191.81"/>
<text text-anchor="middle" x="1542.69" y="-198.7" font-family="Times New Roman,serif" font-size="8.00" fill="#af1951">reed_switch_mouse_cupboard EC=1</text>
</g>
<!-- 15216d97&#45;9194&#45;4d5b&#45;a3fd&#45;90de14adf2f2 -->
<g id="node23" class="node">
<title>15216d97&#45;9194&#45;4d5b&#45;a3fd&#45;90de14adf2f2</title>
<polygon fill="none" stroke="none" points="2167.56,-206.8 2053.31,-206.8 2053.31,-170.8 2167.56,-170.8 2167.56,-206.8"/>
<polyline fill="none" stroke="black" points="2053.31,-170.8 2167.56,-170.8"/>
<text text-anchor="middle" x="2110.44" y="-183.38" font-family="Times New Roman,serif" font-size="14.00" fill="#fd3827">mouse_cupboard</text>
</g>
<!-- 523689c4&#45;50ea&#45;4b69&#45;b1ea&#45;8fa57f19d091&#45;&gt;15216d97&#45;9194&#45;4d5b&#45;a3fd&#45;90de14adf2f2 -->
<g id="edge42" class="edge">
<title>523689c4&#45;50ea&#45;4b69&#45;b1ea&#45;8fa57f19d091&#45;&gt;15216d97&#45;9194&#45;4d5b&#45;a3fd&#45;90de14adf2f2</title>
<path fill="none" stroke="#fd3827" d="M1856.35,-170.29C1917.26,-174.74 1989.79,-180.05 2041.56,-183.84"/>
<polygon fill="#fd3827" stroke="#fd3827" points="2041.2,-187.32 2051.43,-184.56 2041.71,-180.34 2041.2,-187.32"/>
<text text-anchor="middle" x="1935.94" y="-183.7" font-family="Times New Roman,serif" font-size="8.00" fill="#fd3827">mouse_cupboard EC=1</text>
</g>
<!-- 9cb3145e&#45;585e&#45;4f9d&#45;aee6&#45;79ad0af9837d -->
<g id="node24" class="node">
<title>9cb3145e&#45;585e&#45;4f9d&#45;aee6&#45;79ad0af9837d</title>
<polygon fill="none" stroke="none" points="2205.06,-152.8 2015.81,-152.8 2015.81,-116.8 2205.06,-116.8 2205.06,-152.8"/>
<polyline fill="none" stroke="black" points="2015.81,-116.8 2205.06,-116.8"/>
<text text-anchor="middle" x="2110.44" y="-129.38" font-family="Times New Roman,serif" font-size="14.00" fill="#af1951">reed_switch_mouse_cupboard</text>
</g>
<!-- 523689c4&#45;50ea&#45;4b69&#45;b1ea&#45;8fa57f19d091&#45;&gt;9cb3145e&#45;585e&#45;4f9d&#45;aee6&#45;79ad0af9837d -->
<g id="edge43" class="edge">
<title>523689c4&#45;50ea&#45;4b69&#45;b1ea&#45;8fa57f19d091&#45;&gt;9cb3145e&#45;585e&#45;4f9d&#45;aee6&#45;79ad0af9837d</title>
<path fill="none" stroke="#af1951" d="M1856.35,-153.31C1903.7,-149.85 1958.07,-145.87 2004.25,-142.49"/>
<polygon fill="#af1951" stroke="#af1951" points="2004.27,-146 2013.99,-141.78 2003.76,-139.02 2004.27,-146"/>
<text text-anchor="middle" x="1935.94" y="-154.7" font-family="Times New Roman,serif" font-size="8.00" fill="#af1951">reed_switch_mouse_cupboard EC=1</text>
</g>
<!-- 78354838&#45;ca9a&#45;488c&#45;86fc&#45;841cece96ba3&#45;&gt;523689c4&#45;50ea&#45;4b69&#45;b1ea&#45;8fa57f19d091 -->
<g id="edge2" class="edge">
<title>78354838&#45;ca9a&#45;488c&#45;86fc&#45;841cece96ba3&#45;&gt;523689c4&#45;50ea&#45;4b69&#45;b1ea&#45;8fa57f19d091</title>
<path fill="none" stroke="#fd3827" stroke-width="2.6" d="M1463.14,-179.98C1508.98,-176.95 1561.6,-173.48 1608.48,-170.38"/>
<polygon fill="#fd3827" stroke="#fd3827" stroke-width="2.6" points="1608.5,-173.89 1618.25,-169.73 1608.04,-166.9 1608.5,-173.89"/>
<text text-anchor="middle" x="1542.69" y="-181.7" font-family="Times New Roman,serif" font-size="8.00" fill="#fd3827">mouse_cupboard EC=2</text>
</g>
<!-- 78354838&#45;ca9a&#45;488c&#45;86fc&#45;841cece96ba3&#45;&gt;523689c4&#45;50ea&#45;4b69&#45;b1ea&#45;8fa57f19d091 -->
<g id="edge5" class="edge">
<title>78354838&#45;ca9a&#45;488c&#45;86fc&#45;841cece96ba3&#45;&gt;523689c4&#45;50ea&#45;4b69&#45;b1ea&#45;8fa57f19d091</title>
<path fill="none" stroke="#af1951" stroke-width="2.6" d="M1421.27,-167.55C1440.56,-163.3 1461.33,-159.46 1480.81,-157.3 1522.24,-152.71 1567.63,-152.06 1608.62,-153.09"/>
<polygon fill="#af1951" stroke="#af1951" stroke-width="2.6" points="1608.3,-156.58 1618.4,-153.38 1608.51,-149.59 1608.3,-156.58"/>
<text text-anchor="middle" x="1542.69" y="-160.7" font-family="Times New Roman,serif" font-size="8.00" fill="#af1951">reed_switch_mouse_cupboard EC=2</text>
</g>
<!-- 1e29b37e&#45;5824&#45;4e14&#45;bead&#45;4d94c907b395&#45;&gt;47ae3166&#45;fe79&#45;486e&#45;88bf&#45;ea1eddefd44e -->
<g id="edge24" class="edge">
<title>1e29b37e&#45;5824&#45;4e14&#45;bead&#45;4d94c907b395&#45;&gt;47ae3166&#45;fe79&#45;486e&#45;88bf&#45;ea1eddefd44e</title>
<path fill="none" stroke="#64c3cc" d="M374.53,-297.8C408.32,-297.8 468.52,-297.8 517.97,-297.8"/>
<polygon fill="#64c3cc" stroke="#64c3cc" points="517.8,-301.3 527.8,-297.8 517.8,-294.3 517.8,-301.3"/>
<text text-anchor="middle" x="457.25" y="-300.7" font-family="Times New Roman,serif" font-size="8.00" fill="#64c3cc">admin_user EC=1</text>
</g>
<!-- 3696b67d&#45;bf92&#45;428c&#45;bcb4&#45;a43d813a07db -->
<g id="node21" class="node">
<title>3696b67d&#45;bf92&#45;428c&#45;bcb4&#45;a43d813a07db</title>
<polygon fill="none" stroke="none" points="650.74,-259.8 547.74,-259.8 547.74,-223.8 650.74,-223.8 650.74,-259.8"/>
<polyline fill="none" stroke="black" points="547.74,-223.8 650.74,-223.8"/>
<text text-anchor="middle" x="599.24" y="-236.38" font-family="Times New Roman,serif" font-size="14.00" fill="#9c1563">item_accessory</text>
</g>
<!-- 1e29b37e&#45;5824&#45;4e14&#45;bead&#45;4d94c907b395&#45;&gt;3696b67d&#45;bf92&#45;428c&#45;bcb4&#45;a43d813a07db -->
<g id="edge40" class="edge">
<title>1e29b37e&#45;5824&#45;4e14&#45;bead&#45;4d94c907b395&#45;&gt;3696b67d&#45;bf92&#45;428c&#45;bcb4&#45;a43d813a07db</title>
<path fill="none" stroke="#9c1563" d="M374.53,-291.91C412.6,-283.38 484.23,-267.34 536.2,-255.7"/>
<polygon fill="#9c1563" stroke="#9c1563" points="536.83,-259.14 545.83,-253.54 535.3,-252.31 536.83,-259.14"/>
<text text-anchor="middle" x="457.25" y="-284.7" font-family="Times New Roman,serif" font-size="8.00" fill="#9c1563">item_accessory EC=1</text>
</g>
<!-- 00ad5cf7&#45;aa94&#45;4bf5&#45;b158&#45;08dbb0b20735 -->
<g id="node12" class="node">
<title>00ad5cf7&#45;aa94&#45;4bf5&#45;b158&#45;08dbb0b20735</title>
<ellipse fill="#64c3cc" stroke="black" cx="599.24" cy="-407.8" rx="53.56" ry="18"/>
<text text-anchor="middle" x="599.24" y="-402.38" font-family="Times New Roman,serif" font-size="14.00">admin_user</text>
</g>
<!-- 00ad5cf7&#45;aa94&#45;4bf5&#45;b158&#45;08dbb0b20735&#45;&gt;d3195826&#45;8d9a&#45;4ecf&#45;b84e&#45;08743c3b66b8 -->
<g id="edge30" class="edge">
<title>00ad5cf7&#45;aa94&#45;4bf5&#45;b158&#45;08dbb0b20735&#45;&gt;d3195826&#45;8d9a&#45;4ecf&#45;b84e&#45;08743c3b66b8</title>
<path fill="none" stroke="#64c3cc" d="M652.3,-411.04C703.36,-414.21 782.37,-419.12 844.39,-422.97"/>
<polygon fill="#64c3cc" stroke="#64c3cc" points="844.06,-426.46 854.26,-423.59 844.49,-419.47 844.06,-426.46"/>
<text text-anchor="middle" x="749.49" y="-422.7" font-family="Times New Roman,serif" font-size="8.00" fill="#64c3cc">admin_user EC=1</text>
</g>
<!-- 9d04337d&#45;f4db&#45;4a8b&#45;bf57&#45;b6fd5309c185 -->
<g id="node13" class="node">
<title>9d04337d&#45;f4db&#45;4a8b&#45;bf57&#45;b6fd5309c185</title>
<ellipse fill="#672dc5" stroke="black" cx="939.15" cy="-365.8" rx="72.52" ry="18"/>
<text text-anchor="middle" x="939.15" y="-360.38" font-family="Times New Roman,serif" font-size="14.00">it_working_desk</text>
</g>
<!-- 9d04337d&#45;f4db&#45;4a8b&#45;bf57&#45;b6fd5309c185&#45;&gt;581e8016&#45;57bc&#45;4197&#45;9ec3&#45;b011873f938e -->
<g id="edge31" class="edge">
<title>9d04337d&#45;f4db&#45;4a8b&#45;bf57&#45;b6fd5309c185&#45;&gt;581e8016&#45;57bc&#45;4197&#45;9ec3&#45;b011873f938e</title>
<path fill="none" stroke="#672dc5" d="M994.06,-353.72C1049.63,-343.91 1137.66,-335.88 1206.81,-364.3 1258.39,-385.5 1300.82,-436.76 1323.91,-469.52"/>
<polygon fill="#672dc5" stroke="#672dc5" points="1320.77,-471.13 1329.32,-477.39 1326.54,-467.16 1320.77,-471.13"/>
<text text-anchor="middle" x="1144.94" y="-367.7" font-family="Times New Roman,serif" font-size="8.00" fill="#672dc5">it_working_desk EC=1</text>
</g>
<!-- 8b0d132d&#45;b64d&#45;4a8a&#45;ba36&#45;b39d45068da8 -->
<g id="node14" class="node">
<title>8b0d132d&#45;b64d&#45;4a8a&#45;ba36&#45;b39d45068da8</title>
<ellipse fill="#9c1563" stroke="black" cx="89" cy="-297.8" rx="68.53" ry="18"/>
<text text-anchor="middle" x="89" y="-292.38" font-family="Times New Roman,serif" font-size="14.00">item_accessory</text>
</g>
<!-- 8b0d132d&#45;b64d&#45;4a8a&#45;ba36&#45;b39d45068da8&#45;&gt;1e29b37e&#45;5824&#45;4e14&#45;bead&#45;4d94c907b395 -->
<g id="edge32" class="edge">
<title>8b0d132d&#45;b64d&#45;4a8a&#45;ba36&#45;b39d45068da8&#45;&gt;1e29b37e&#45;5824&#45;4e14&#45;bead&#45;4d94c907b395</title>
<path fill="none" stroke="#9c1563" d="M158,-297.8C206.1,-297.8 268.83,-297.8 308.34,-297.8"/>
<polygon fill="#9c1563" stroke="#9c1563" points="308.3,-301.3 318.3,-297.8 308.3,-294.3 308.3,-301.3"/>
<text text-anchor="middle" x="235.38" y="-300.7" font-family="Times New Roman,serif" font-size="8.00" fill="#9c1563">item_accessory EC=1</text>
</g>
<!-- c839ad63&#45;873b&#45;4670&#45;ad2e&#45;a1465903f8c6 -->
<g id="node15" class="node">
<title>c839ad63&#45;873b&#45;4670&#45;ad2e&#45;a1465903f8c6</title>
<ellipse fill="#6e143b" stroke="black" cx="599.24" cy="-515.8" rx="49.57" ry="18"/>
<text text-anchor="middle" x="599.24" y="-510.38" font-family="Times New Roman,serif" font-size="14.00">item_asset</text>
</g>
<!-- c839ad63&#45;873b&#45;4670&#45;ad2e&#45;a1465903f8c6&#45;&gt;18bd8c3b&#45;43b8&#45;4f01&#45;a97f&#45;27fd3a41be4e -->
<g id="edge33" class="edge">
<title>c839ad63&#45;873b&#45;4670&#45;ad2e&#45;a1465903f8c6&#45;&gt;18bd8c3b&#45;43b8&#45;4f01&#45;a97f&#45;27fd3a41be4e</title>
<path fill="none" stroke="#6e143b" d="M649.17,-514.65C688.64,-513.52 745.56,-511.42 795.24,-507.8 805.97,-507.02 817.14,-506.07 828.29,-505.04"/>
<polygon fill="#6e143b" stroke="#6e143b" points="828.3,-508.56 837.92,-504.13 827.64,-501.59 828.3,-508.56"/>
<text text-anchor="middle" x="749.49" y="-514.7" font-family="Times New Roman,serif" font-size="8.00" fill="#6e143b">item_asset EC=1</text>
</g>
<!-- c839ad63&#45;873b&#45;4670&#45;ad2e&#45;a1465903f8c6&#45;&gt;d3195826&#45;8d9a&#45;4ecf&#45;b84e&#45;08743c3b66b8 -->
<g id="edge34" class="edge">
<title>c839ad63&#45;873b&#45;4670&#45;ad2e&#45;a1465903f8c6&#45;&gt;d3195826&#45;8d9a&#45;4ecf&#45;b84e&#45;08743c3b66b8</title>
<path fill="none" stroke="#6e143b" d="M643.1,-507.27C696.12,-496.6 781.14,-479.1 795.24,-473.8 803.8,-470.58 804.77,-467.28 813.24,-463.8 823.39,-459.62 834.21,-455.77 845.06,-452.27"/>
<polygon fill="#6e143b" stroke="#6e143b" points="845.97,-455.65 854.47,-449.33 843.88,-448.97 845.97,-455.65"/>
<text text-anchor="middle" x="749.49" y="-496.7" font-family="Times New Roman,serif" font-size="8.00" fill="#6e143b">item_asset EC=1</text>
</g>
<!-- 314cbdc3&#45;7b99&#45;4887&#45;bc9c&#45;b89314ed37f6 -->
<g id="node16" class="node">
<title>314cbdc3&#45;7b99&#45;4887&#45;bc9c&#45;b89314ed37f6</title>
<ellipse fill="#fd3827" stroke="black" cx="599.24" cy="-353.8" rx="76.01" ry="18"/>
<text text-anchor="middle" x="599.24" y="-348.38" font-family="Times New Roman,serif" font-size="14.00">mouse_cupboard</text>
</g>
<!-- 314cbdc3&#45;7b99&#45;4887&#45;bc9c&#45;b89314ed37f6&#45;&gt;d3195826&#45;8d9a&#45;4ecf&#45;b84e&#45;08743c3b66b8 -->
<g id="edge35" class="edge">
<title>314cbdc3&#45;7b99&#45;4887&#45;bc9c&#45;b89314ed37f6&#45;&gt;d3195826&#45;8d9a&#45;4ecf&#45;b84e&#45;08743c3b66b8</title>
<path fill="none" stroke="#fd3827" d="M656.04,-366.19C707.22,-377.54 784.03,-394.59 844.58,-408.03"/>
<polygon fill="#fd3827" stroke="#fd3827" points="843.69,-411.42 854.21,-410.17 845.21,-404.59 843.69,-411.42"/>
<text text-anchor="middle" x="749.49" y="-398.7" font-family="Times New Roman,serif" font-size="8.00" fill="#fd3827">mouse_cupboard EC=1</text>
</g>
<!-- 13a4ba26&#45;8648&#45;4b2a&#45;969c&#45;9000400578ef -->
<g id="node17" class="node">
<title>13a4ba26&#45;8648&#45;4b2a&#45;969c&#45;9000400578ef</title>
<ellipse fill="#af1951" stroke="black" cx="939.15" cy="-203.8" rx="125.91" ry="18"/>
<text text-anchor="middle" x="939.15" y="-198.38" font-family="Times New Roman,serif" font-size="14.00">reed_switch_mouse_cupboard</text>
</g>
<!-- 13a4ba26&#45;8648&#45;4b2a&#45;969c&#45;9000400578ef&#45;&gt;78354838&#45;ca9a&#45;488c&#45;86fc&#45;841cece96ba3 -->
<g id="edge36" class="edge">
<title>13a4ba26&#45;8648&#45;4b2a&#45;969c&#45;9000400578ef&#45;&gt;78354838&#45;ca9a&#45;488c&#45;86fc&#45;841cece96ba3</title>
<path fill="none" stroke="#af1951" d="M1060.96,-199C1108.99,-197.09 1164.35,-194.89 1213.22,-192.95"/>
<polygon fill="#af1951" stroke="#af1951" points="1213.14,-196.46 1223,-192.56 1212.87,-189.46 1213.14,-196.46"/>
<text text-anchor="middle" x="1144.94" y="-200.7" font-family="Times New Roman,serif" font-size="8.00" fill="#af1951">reed_switch_mouse_cupboard EC=1</text>
</g>
<!-- c6c56984&#45;a6e1&#45;4f6e&#45;b2a4&#45;dadd9601fd6f -->
<g id="node18" class="node">
<title>c6c56984&#45;a6e1&#45;4f6e&#45;b2a4&#45;dadd9601fd6f</title>
<ellipse fill="#3831f1" stroke="black" cx="599.24" cy="-461.8" rx="86.49" ry="18"/>
<text text-anchor="middle" x="599.24" y="-456.38" font-family="Times New Roman,serif" font-size="14.00">self_service_storage</text>
</g>
<!-- c6c56984&#45;a6e1&#45;4f6e&#45;b2a4&#45;dadd9601fd6f&#45;&gt;18bd8c3b&#45;43b8&#45;4f01&#45;a97f&#45;27fd3a41be4e -->
<g id="edge37" class="edge">
<title>c6c56984&#45;a6e1&#45;4f6e&#45;b2a4&#45;dadd9601fd6f&#45;&gt;18bd8c3b&#45;43b8&#45;4f01&#45;a97f&#45;27fd3a41be4e</title>
<path fill="none" stroke="#3831f1" d="M684.91,-458.85C719.24,-458.59 759.21,-459.48 795.24,-463.3 810.79,-464.95 827.16,-467.52 843.04,-470.47"/>
<polygon fill="#3831f1" stroke="#3831f1" points="841.97,-473.83 852.45,-472.28 843.3,-466.96 841.97,-473.83"/>
<text text-anchor="middle" x="749.49" y="-466.7" font-family="Times New Roman,serif" font-size="8.00" fill="#3831f1">self_service_storage EC=1</text>
</g>
</g>
</svg>
