<?xml version="1.0" encoding="UTF-8" standalone="no"?>
<!DOCTYPE svg PUBLIC "-//W3C//DTD SVG 1.1//EN"
 "http://www.w3.org/Graphics/SVG/1.1/DTD/svg11.dtd">
<!-- Generated by graphviz version 9.0.0 (20230911.1827)
 -->
<!-- Title: ocdfg Pages: 1 -->
<svg width="2125pt" height="756pt"
 viewBox="0.00 0.00 2124.56 755.72" xmlns="http://www.w3.org/2000/svg" xmlns:xlink="http://www.w3.org/1999/xlink">
<g id="graph0" class="graph" transform="scale(1 1) rotate(0) translate(4 751.72)">
<title>ocdfg</title>
<polygon fill="white" stroke="none" points="-4,4 -4,-751.72 2120.56,-751.72 2120.56,4 -4,4"/>
<!-- 989d0b75&#45;ad68&#45;4403&#45;b032&#45;976bc6b807cc -->
<g id="node1" class="node">
<title>989d0b75&#45;ad68&#45;4403&#45;b032&#45;976bc6b807cc</title>
<polygon fill="none" stroke="black" points="178,-568.72 0,-568.72 0,-532.72 178,-532.72 178,-568.72"/>
<text text-anchor="middle" x="89" y="-545.3" font-family="Times New Roman,serif" font-size="14.00">Create system entry for asset</text>
</g>
<!-- 26723ea4&#45;26e2&#45;497b&#45;a679&#45;4196a10fb05a -->
<g id="node3" class="node">
<title>26723ea4&#45;26e2&#45;497b&#45;a679&#45;4196a10fb05a</title>
<polygon fill="none" stroke="black" points="646.99,-298.72 507.99,-298.72 507.99,-262.72 646.99,-262.72 646.99,-298.72"/>
<text text-anchor="middle" x="577.49" y="-275.3" font-family="Times New Roman,serif" font-size="14.00">Move asset to storage</text>
</g>
<!-- 989d0b75&#45;ad68&#45;4403&#45;b032&#45;976bc6b807cc&#45;&gt;26723ea4&#45;26e2&#45;497b&#45;a679&#45;4196a10fb05a -->
<g id="edge14" class="edge">
<title>989d0b75&#45;ad68&#45;4403&#45;b032&#45;976bc6b807cc&#45;&gt;26723ea4&#45;26e2&#45;497b&#45;a679&#45;4196a10fb05a</title>
<path fill="none" stroke="#6e143b" d="M168.84,-532.25C268.89,-507.21 433.28,-460.13 473,-412.72 503.41,-376.43 459.87,-343.4 491,-307.72 493.21,-305.19 495.65,-302.9 498.27,-300.82"/>
<polygon fill="#6e143b" stroke="#6e143b" points="500.11,-303.79 506.53,-295.36 496.25,-297.95 500.11,-303.79"/>
<text text-anchor="middle" x="336.75" y="-502.62" font-family="Times New Roman,serif" font-size="8.00" fill="#6e143b">item_asset EC=20s</text>
</g>
<!-- 13eb1e69&#45;d865&#45;4b16&#45;99de&#45;234e5f105810 -->
<g id="node7" class="node">
<title>13eb1e69&#45;d865&#45;4b16&#45;99de&#45;234e5f105810</title>
<polygon fill="none" stroke="black" points="1336.06,-501.72 1245.06,-501.72 1245.06,-465.72 1336.06,-465.72 1336.06,-501.72"/>
<text text-anchor="middle" x="1290.56" y="-478.3" font-family="Times New Roman,serif" font-size="14.00">Unpack asset</text>
</g>
<!-- 989d0b75&#45;ad68&#45;4403&#45;b032&#45;976bc6b807cc&#45;&gt;13eb1e69&#45;d865&#45;4b16&#45;99de&#45;234e5f105810 -->
<g id="edge28" class="edge">
<title>989d0b75&#45;ad68&#45;4403&#45;b032&#45;976bc6b807cc&#45;&gt;13eb1e69&#45;d865&#45;4b16&#45;99de&#45;234e5f105810</title>
<path fill="none" stroke="#672dc5" d="M178.28,-552.43C361.03,-554.88 793.78,-555.05 1153.56,-511.72 1180.11,-508.52 1209.19,-502.84 1233.62,-497.43"/>
<polygon fill="#672dc5" stroke="#672dc5" points="1234.39,-500.84 1243.37,-495.22 1232.84,-494.01 1234.39,-500.84"/>
<text text-anchor="middle" x="577.49" y="-553.62" font-family="Times New Roman,serif" font-size="8.00" fill="#672dc5">it_working_desk EC=1m</text>
</g>
<!-- a3fa6169&#45;c971&#45;49c3&#45;915e&#45;c7d88f01242c -->
<g id="node8" class="node">
<title>a3fa6169&#45;c971&#45;49c3&#45;915e&#45;c7d88f01242c</title>
<polygon fill="none" stroke="black" points="363.75,-421.72 309.75,-421.72 309.75,-385.72 363.75,-385.72 363.75,-421.72"/>
<text text-anchor="middle" x="336.75" y="-398.3" font-family="Times New Roman,serif" font-size="14.00">create</text>
</g>
<!-- 989d0b75&#45;ad68&#45;4403&#45;b032&#45;976bc6b807cc&#45;&gt;a3fa6169&#45;c971&#45;49c3&#45;915e&#45;c7d88f01242c -->
<g id="edge11" class="edge">
<title>989d0b75&#45;ad68&#45;4403&#45;b032&#45;976bc6b807cc&#45;&gt;a3fa6169&#45;c971&#45;49c3&#45;915e&#45;c7d88f01242c</title>
<path fill="none" stroke="#6e143b" d="M108.15,-532.3C128.23,-512.69 162.24,-481.72 196,-461.22 228.66,-441.38 269.4,-425.51 298.45,-415.5"/>
<polygon fill="#6e143b" stroke="#6e143b" points="299.56,-418.82 307.92,-412.32 297.33,-412.19 299.56,-418.82"/>
<text text-anchor="middle" x="230.12" y="-464.62" font-family="Times New Roman,serif" font-size="8.00" fill="#6e143b">item_asset EC=40s</text>
</g>
<!-- 989d0b75&#45;ad68&#45;4403&#45;b032&#45;976bc6b807cc&#45;&gt;a3fa6169&#45;c971&#45;49c3&#45;915e&#45;c7d88f01242c -->
<g id="edge19" class="edge">
<title>989d0b75&#45;ad68&#45;4403&#45;b032&#45;976bc6b807cc&#45;&gt;a3fa6169&#45;c971&#45;49c3&#45;915e&#45;c7d88f01242c</title>
<path fill="none" stroke="#64c3cc" d="M98.24,-532.27C112.94,-501.81 146.84,-441.73 196,-415.22 227.4,-398.29 268.65,-396.97 298.18,-398.94"/>
<polygon fill="#64c3cc" stroke="#64c3cc" points="297.5,-402.4 307.76,-399.75 298.09,-395.42 297.5,-402.4"/>
<text text-anchor="middle" x="230.12" y="-418.62" font-family="Times New Roman,serif" font-size="8.00" fill="#64c3cc">admin_user EC=40s</text>
</g>
<!-- 45e4c589&#45;cc1b&#45;41d8&#45;a13b&#45;15f1bc6a6d11 -->
<g id="node11" class="node">
<title>45e4c589&#45;cc1b&#45;41d8&#45;a13b&#45;15f1bc6a6d11</title>
<polygon fill="none" stroke="black" points="363.75,-298.72 309.75,-298.72 309.75,-262.72 363.75,-262.72 363.75,-298.72"/>
<text text-anchor="middle" x="336.75" y="-275.3" font-family="Times New Roman,serif" font-size="14.00">update</text>
</g>
<!-- 989d0b75&#45;ad68&#45;4403&#45;b032&#45;976bc6b807cc&#45;&gt;45e4c589&#45;cc1b&#45;41d8&#45;a13b&#45;15f1bc6a6d11 -->
<g id="edge23" class="edge">
<title>989d0b75&#45;ad68&#45;4403&#45;b032&#45;976bc6b807cc&#45;&gt;45e4c589&#45;cc1b&#45;41d8&#45;a13b&#45;15f1bc6a6d11</title>
<path fill="none" stroke="#64c3cc" d="M98.96,-532.35C115.23,-500.15 152.08,-432.44 196,-385.22 226.96,-351.94 269.63,-321.77 299.65,-302.5"/>
<polygon fill="#64c3cc" stroke="#64c3cc" points="301.45,-305.51 308.04,-297.21 297.71,-299.59 301.45,-305.51"/>
<text text-anchor="middle" x="230.12" y="-388.62" font-family="Times New Roman,serif" font-size="8.00" fill="#64c3cc">admin_user EC=18s</text>
</g>
<!-- 1de4b4e7&#45;10de&#45;49ed&#45;8c07&#45;4149c3aba3e1 -->
<g id="node20" class="node">
<title>1de4b4e7&#45;10de&#45;49ed&#45;8c07&#45;4149c3aba3e1</title>
<polygon fill="none" stroke="none" points="391.25,-747.72 282.25,-747.72 282.25,-711.72 391.25,-711.72 391.25,-747.72"/>
<polyline fill="none" stroke="black" points="282.25,-711.72 391.25,-711.72"/>
<text text-anchor="middle" x="336.75" y="-724.3" font-family="Times New Roman,serif" font-size="14.00" fill="#672dc5">it_working_desk</text>
</g>
<!-- 989d0b75&#45;ad68&#45;4403&#45;b032&#45;976bc6b807cc&#45;&gt;1de4b4e7&#45;10de&#45;49ed&#45;8c07&#45;4149c3aba3e1 -->
<g id="edge39" class="edge">
<title>989d0b75&#45;ad68&#45;4403&#45;b032&#45;976bc6b807cc&#45;&gt;1de4b4e7&#45;10de&#45;49ed&#45;8c07&#45;4149c3aba3e1</title>
<path fill="none" stroke="#672dc5" d="M97.8,-568.9C112.28,-600.39 146.44,-664.86 196,-697.72 217.95,-712.28 245.62,-720.27 270.54,-724.63"/>
<polygon fill="#672dc5" stroke="#672dc5" points="269.85,-728.07 280.27,-726.16 270.93,-721.15 269.85,-728.07"/>
</g>
<!-- 7ebf44af&#45;2e9f&#45;42a9&#45;bfc2&#45;4d8a7946613d -->
<g id="node2" class="node">
<title>7ebf44af&#45;2e9f&#45;42a9&#45;bfc2&#45;4d8a7946613d</title>
<polygon fill="none" stroke="black" points="2102.31,-594.72 1941.56,-594.72 1941.56,-558.72 2102.31,-558.72 2102.31,-594.72"/>
<text text-anchor="middle" x="2021.94" y="-571.3" font-family="Times New Roman,serif" font-size="14.00">Install and configure asset</text>
</g>
<!-- 7ebf44af&#45;2e9f&#45;42a9&#45;bfc2&#45;4d8a7946613d&#45;&gt;989d0b75&#45;ad68&#45;4403&#45;b032&#45;976bc6b807cc -->
<g id="edge10" class="edge">
<title>7ebf44af&#45;2e9f&#45;42a9&#45;bfc2&#45;4d8a7946613d&#45;&gt;989d0b75&#45;ad68&#45;4403&#45;b032&#45;976bc6b807cc</title>
<path fill="none" stroke="#6e143b" d="M1999.45,-595.13C1978.07,-612.4 1943.58,-637.48 1909.31,-650.72 1818.93,-685.64 1790.71,-683.72 1693.81,-683.72 335.75,-683.72 335.75,-683.72 335.75,-683.72 271.93,-683.72 252.19,-680.99 196,-650.72 161.98,-632.4 130.83,-600.35 111.23,-577.47"/>
<polygon fill="#6e143b" stroke="#6e143b" points="114.12,-575.48 105.02,-570.06 108.76,-579.97 114.12,-575.48"/>
<text text-anchor="middle" x="924.15" y="-686.62" font-family="Times New Roman,serif" font-size="8.00" fill="#6e143b">item_asset EC=38s</text>
</g>
<!-- 7ebf44af&#45;2e9f&#45;42a9&#45;bfc2&#45;4d8a7946613d&#45;&gt;989d0b75&#45;ad68&#45;4403&#45;b032&#45;976bc6b807cc -->
<g id="edge18" class="edge">
<title>7ebf44af&#45;2e9f&#45;42a9&#45;bfc2&#45;4d8a7946613d&#45;&gt;989d0b75&#45;ad68&#45;4403&#45;b032&#45;976bc6b807cc</title>
<path fill="none" stroke="#64c3cc" d="M1958.24,-595.21C1892.85,-612.84 1787.06,-636.72 1693.81,-636.72 335.75,-636.72 335.75,-636.72 335.75,-636.72 260.16,-636.72 178.46,-600.02 130.89,-574.57"/>
<polygon fill="#64c3cc" stroke="#64c3cc" points="132.77,-571.61 122.31,-569.9 129.42,-577.76 132.77,-571.61"/>
<text text-anchor="middle" x="924.15" y="-639.62" font-family="Times New Roman,serif" font-size="8.00" fill="#64c3cc">admin_user EC=38s</text>
</g>
<!-- 7ebf44af&#45;2e9f&#45;42a9&#45;bfc2&#45;4d8a7946613d&#45;&gt;989d0b75&#45;ad68&#45;4403&#45;b032&#45;976bc6b807cc -->
<g id="edge27" class="edge">
<title>7ebf44af&#45;2e9f&#45;42a9&#45;bfc2&#45;4d8a7946613d&#45;&gt;989d0b75&#45;ad68&#45;4403&#45;b032&#45;976bc6b807cc</title>
<path fill="none" stroke="#672dc5" d="M1941.32,-581.65C1875.1,-585.33 1778.36,-589.72 1693.81,-589.72 335.75,-589.72 335.75,-589.72 335.75,-589.72 282.76,-589.72 224.13,-580.77 177.43,-571.44"/>
<polygon fill="#672dc5" stroke="#672dc5" points="178.42,-568.07 167.92,-569.5 177.01,-574.93 178.42,-568.07"/>
<text text-anchor="middle" x="924.15" y="-592.62" font-family="Times New Roman,serif" font-size="8.00" fill="#672dc5">it_working_desk EC=38s</text>
</g>
<!-- a8ee891b&#45;27c7&#45;4e8b&#45;ac32&#45;4134ff9cb585 -->
<g id="node4" class="node">
<title>a8ee891b&#45;27c7&#45;4e8b&#45;ac32&#45;4134ff9cb585</title>
<polygon fill="none" stroke="black" points="1023.65,-494.72 824.65,-494.72 824.65,-458.72 1023.65,-458.72 1023.65,-494.72"/>
<text text-anchor="middle" x="924.15" y="-471.3" font-family="Times New Roman,serif" font-size="14.00">Pick asset from self service desk</text>
</g>
<!-- 26723ea4&#45;26e2&#45;497b&#45;a679&#45;4196a10fb05a&#45;&gt;a8ee891b&#45;27c7&#45;4e8b&#45;ac32&#45;4134ff9cb585 -->
<g id="edge21" class="edge">
<title>26723ea4&#45;26e2&#45;497b&#45;a679&#45;4196a10fb05a&#45;&gt;a8ee891b&#45;27c7&#45;4e8b&#45;ac32&#45;4134ff9cb585</title>
<path fill="none" stroke="#64c3cc" d="M647.48,-288.48C702.15,-295.29 770.87,-305.58 780.24,-315.22 820.11,-356.27 760.39,-399.8 798.24,-442.72 802.97,-448.09 808.45,-452.64 814.43,-456.51"/>
<polygon fill="#64c3cc" stroke="#64c3cc" points="812.45,-459.41 822.88,-461.29 815.9,-453.32 812.45,-459.41"/>
<text text-anchor="middle" x="731.11" y="-318.62" font-family="Times New Roman,serif" font-size="8.00" fill="#64c3cc">admin_user EC=14s</text>
</g>
<!-- 87392ba4&#45;256d&#45;416a&#45;a9cc&#45;7018806e9f5d -->
<g id="node10" class="node">
<title>87392ba4&#45;256d&#45;416a&#45;a9cc&#45;7018806e9f5d</title>
<polygon fill="none" stroke="black" points="1409.56,-209.72 1171.56,-209.72 1171.56,-173.72 1409.56,-173.72 1409.56,-209.72"/>
<text text-anchor="middle" x="1290.56" y="-186.3" font-family="Times New Roman,serif" font-size="14.00">reed_switch_mouse_cupboard_opened</text>
</g>
<!-- 26723ea4&#45;26e2&#45;497b&#45;a679&#45;4196a10fb05a&#45;&gt;87392ba4&#45;256d&#45;416a&#45;a9cc&#45;7018806e9f5d -->
<g id="edge4" class="edge">
<title>26723ea4&#45;26e2&#45;497b&#45;a679&#45;4196a10fb05a&#45;&gt;87392ba4&#45;256d&#45;416a&#45;a9cc&#45;7018806e9f5d</title>
<path fill="none" stroke="#fd3827" d="M647.13,-267.44C653.54,-263.88 659.35,-259.38 663.99,-253.72 687.76,-224.66 654.32,-111.11 681.99,-85.72 836.44,55.99 956.57,-6.08 1153.56,-77.72 1201.11,-95.01 1243.62,-137.04 1267.99,-164.94"/>
<polygon fill="#fd3827" stroke="#fd3827" points="1265.12,-166.96 1274.27,-172.3 1270.44,-162.42 1265.12,-166.96"/>
<text text-anchor="middle" x="924.15" y="-42.62" font-family="Times New Roman,serif" font-size="8.00" fill="#fd3827">mouse_cupboard EC=5s</text>
</g>
<!-- 46834fd8&#45;b28a&#45;4671&#45;ad3e&#45;20732f19cbbd -->
<g id="node19" class="node">
<title>46834fd8&#45;b28a&#45;4671&#45;ad3e&#45;20732f19cbbd</title>
<polygon fill="none" stroke="none" points="964.4,-325.72 883.9,-325.72 883.9,-289.72 964.4,-289.72 964.4,-325.72"/>
<polyline fill="none" stroke="black" points="883.9,-289.72 964.4,-289.72"/>
<text text-anchor="middle" x="924.15" y="-302.3" font-family="Times New Roman,serif" font-size="14.00" fill="#64c3cc">admin_user</text>
</g>
<!-- 26723ea4&#45;26e2&#45;497b&#45;a679&#45;4196a10fb05a&#45;&gt;46834fd8&#45;b28a&#45;4671&#45;ad3e&#45;20732f19cbbd -->
<g id="edge38" class="edge">
<title>26723ea4&#45;26e2&#45;497b&#45;a679&#45;4196a10fb05a&#45;&gt;46834fd8&#45;b28a&#45;4671&#45;ad3e&#45;20732f19cbbd</title>
<path fill="none" stroke="#64c3cc" d="M647.15,-285.12C686.19,-287.71 735.96,-291.17 780.24,-294.72 810.77,-297.17 844.93,-300.26 872.2,-302.82"/>
<polygon fill="#64c3cc" stroke="#64c3cc" points="871.64,-306.28 881.93,-303.74 872.3,-299.31 871.64,-306.28"/>
</g>
<!-- 9e4f1b13&#45;953b&#45;4919&#45;8ce6&#45;146681f1bfcd -->
<g id="node22" class="node">
<title>9e4f1b13&#45;953b&#45;4919&#45;8ce6&#45;146681f1bfcd</title>
<polygon fill="none" stroke="none" points="961.4,-271.72 886.9,-271.72 886.9,-235.72 961.4,-235.72 961.4,-271.72"/>
<polyline fill="none" stroke="black" points="886.9,-235.72 961.4,-235.72"/>
<text text-anchor="middle" x="924.15" y="-248.3" font-family="Times New Roman,serif" font-size="14.00" fill="#6e143b">item_asset</text>
</g>
<!-- 26723ea4&#45;26e2&#45;497b&#45;a679&#45;4196a10fb05a&#45;&gt;9e4f1b13&#45;953b&#45;4919&#45;8ce6&#45;146681f1bfcd -->
<g id="edge41" class="edge">
<title>26723ea4&#45;26e2&#45;497b&#45;a679&#45;4196a10fb05a&#45;&gt;9e4f1b13&#45;953b&#45;4919&#45;8ce6&#45;146681f1bfcd</title>
<path fill="none" stroke="#6e143b" stroke-width="2.6" d="M647.41,-275.32C714.01,-270.11 813.32,-262.33 872.81,-257.66"/>
<polygon fill="#6e143b" stroke="#6e143b" stroke-width="2.6" points="873.06,-261.16 882.75,-256.89 872.51,-254.18 873.06,-261.16"/>
</g>
<!-- f00109e6&#45;a7e9&#45;4b4e&#45;a6fa&#45;a8ec1985d861 -->
<g id="node25" class="node">
<title>f00109e6&#45;a7e9&#45;4b4e&#45;a6fa&#45;a8ec1985d861</title>
<polygon fill="none" stroke="none" points="989.15,-163.72 859.15,-163.72 859.15,-127.72 989.15,-127.72 989.15,-163.72"/>
<polyline fill="none" stroke="black" points="859.15,-127.72 989.15,-127.72"/>
<text text-anchor="middle" x="924.15" y="-140.3" font-family="Times New Roman,serif" font-size="14.00" fill="#3831f1">self_service_storage</text>
</g>
<!-- 26723ea4&#45;26e2&#45;497b&#45;a679&#45;4196a10fb05a&#45;&gt;f00109e6&#45;a7e9&#45;4b4e&#45;a6fa&#45;a8ec1985d861 -->
<g id="edge44" class="edge">
<title>26723ea4&#45;26e2&#45;497b&#45;a679&#45;4196a10fb05a&#45;&gt;f00109e6&#45;a7e9&#45;4b4e&#45;a6fa&#45;a8ec1985d861</title>
<path fill="none" stroke="#3831f1" d="M642.61,-262.31C649.92,-259.67 657.18,-256.8 663.99,-253.72 727.49,-225.03 733.47,-198.43 798.24,-172.72 813.88,-166.51 831.23,-161.61 847.89,-157.79"/>
<polygon fill="#3831f1" stroke="#3831f1" points="848.21,-161.3 857.24,-155.75 846.72,-154.46 848.21,-161.3"/>
</g>
<!-- a8ee891b&#45;27c7&#45;4e8b&#45;ac32&#45;4134ff9cb585&#45;&gt;26723ea4&#45;26e2&#45;497b&#45;a679&#45;4196a10fb05a -->
<g id="edge29" class="edge">
<title>a8ee891b&#45;27c7&#45;4e8b&#45;ac32&#45;4134ff9cb585&#45;&gt;26723ea4&#45;26e2&#45;497b&#45;a679&#45;4196a10fb05a</title>
<path fill="none" stroke="#3831f1" d="M832.81,-458.25C820.78,-454.05 808.92,-448.94 798.24,-442.72 797.09,-442.06 665.11,-308.41 663.99,-307.72 661.82,-306.41 659.59,-305.15 657.31,-303.95"/>
<polygon fill="#3831f1" stroke="#3831f1" points="658.92,-300.84 648.38,-299.69 655.9,-307.15 658.92,-300.84"/>
<text text-anchor="middle" x="731.11" y="-426.62" font-family="Times New Roman,serif" font-size="8.00" fill="#3831f1">self_service_storage EC=1m</text>
</g>
<!-- a8ee891b&#45;27c7&#45;4e8b&#45;ac32&#45;4134ff9cb585&#45;&gt;13eb1e69&#45;d865&#45;4b16&#45;99de&#45;234e5f105810 -->
<g id="edge13" class="edge">
<title>a8ee891b&#45;27c7&#45;4e8b&#45;ac32&#45;4134ff9cb585&#45;&gt;13eb1e69&#45;d865&#45;4b16&#45;99de&#45;234e5f105810</title>
<path fill="none" stroke="#6e143b" d="M1023.76,-478.62C1091.07,-479.91 1177.79,-481.57 1233.55,-482.65"/>
<polygon fill="#6e143b" stroke="#6e143b" points="1233.38,-486.14 1243.44,-482.84 1233.51,-479.14 1233.38,-486.14"/>
<text text-anchor="middle" x="1110.81" y="-483.62" font-family="Times New Roman,serif" font-size="8.00" fill="#6e143b">item_asset EC=3s</text>
</g>
<!-- a8ee891b&#45;27c7&#45;4e8b&#45;ac32&#45;4134ff9cb585&#45;&gt;13eb1e69&#45;d865&#45;4b16&#45;99de&#45;234e5f105810 -->
<g id="edge22" class="edge">
<title>a8ee891b&#45;27c7&#45;4e8b&#45;ac32&#45;4134ff9cb585&#45;&gt;13eb1e69&#45;d865&#45;4b16&#45;99de&#45;234e5f105810</title>
<path fill="none" stroke="#64c3cc" d="M1023.77,-491.56C1038.58,-493.29 1053.7,-494.77 1068.06,-495.72 1105.98,-498.23 1115.6,-497.39 1153.56,-495.72 1179.83,-494.56 1208.87,-492.16 1233.35,-489.8"/>
<polygon fill="#64c3cc" stroke="#64c3cc" points="1233.49,-493.3 1243.1,-488.84 1232.8,-486.34 1233.49,-493.3"/>
<text text-anchor="middle" x="1110.81" y="-499.62" font-family="Times New Roman,serif" font-size="8.00" fill="#64c3cc">admin_user EC=3s</text>
</g>
<!-- b89302ce&#45;c51b&#45;4a11&#45;859a&#45;3d0a04bc74bd -->
<g id="node5" class="node">
<title>b89302ce&#45;c51b&#45;4a11&#45;859a&#45;3d0a04bc74bd</title>
<polygon fill="none" stroke="black" points="1007.15,-433.72 841.15,-433.72 841.15,-397.72 1007.15,-397.72 1007.15,-433.72"/>
<text text-anchor="middle" x="924.15" y="-410.3" font-family="Times New Roman,serif" font-size="14.00">Pick asset from warehouse</text>
</g>
<!-- b89302ce&#45;c51b&#45;4a11&#45;859a&#45;3d0a04bc74bd&#45;&gt;13eb1e69&#45;d865&#45;4b16&#45;99de&#45;234e5f105810 -->
<g id="edge7" class="edge">
<title>b89302ce&#45;c51b&#45;4a11&#45;859a&#45;3d0a04bc74bd&#45;&gt;13eb1e69&#45;d865&#45;4b16&#45;99de&#45;234e5f105810</title>
<path fill="none" stroke="#6e143b" d="M1007.38,-431.07C1076.41,-443.95 1173.15,-462 1233.55,-473.27"/>
<polygon fill="#6e143b" stroke="#6e143b" points="1232.8,-476.69 1243.27,-475.08 1234.08,-469.81 1232.8,-476.69"/>
<text text-anchor="middle" x="1110.81" y="-461.62" font-family="Times New Roman,serif" font-size="8.00" fill="#6e143b">item_asset EC=11s</text>
</g>
<!-- b89302ce&#45;c51b&#45;4a11&#45;859a&#45;3d0a04bc74bd&#45;&gt;13eb1e69&#45;d865&#45;4b16&#45;99de&#45;234e5f105810 -->
<g id="edge15" class="edge">
<title>b89302ce&#45;c51b&#45;4a11&#45;859a&#45;3d0a04bc74bd&#45;&gt;13eb1e69&#45;d865&#45;4b16&#45;99de&#45;234e5f105810</title>
<path fill="none" stroke="#64c3cc" d="M1007.43,-414.23C1051.29,-415.02 1105.88,-418.55 1153.56,-429.22 1184.32,-436.1 1217.17,-449.09 1242.88,-460.67"/>
<polygon fill="#64c3cc" stroke="#64c3cc" points="1241.15,-463.72 1251.7,-464.72 1244.07,-457.36 1241.15,-463.72"/>
<text text-anchor="middle" x="1110.81" y="-432.62" font-family="Times New Roman,serif" font-size="8.00" fill="#64c3cc">admin_user EC=11s</text>
</g>
<!-- b89302ce&#45;c51b&#45;4a11&#45;859a&#45;3d0a04bc74bd&#45;&gt;87392ba4&#45;256d&#45;416a&#45;a9cc&#45;7018806e9f5d -->
<g id="edge1" class="edge">
<title>b89302ce&#45;c51b&#45;4a11&#45;859a&#45;3d0a04bc74bd&#45;&gt;87392ba4&#45;256d&#45;416a&#45;a9cc&#45;7018806e9f5d</title>
<path fill="none" stroke="#fd3827" d="M1007.32,-403.8C1021.97,-400.06 1036.78,-395.15 1050.06,-388.72 1140.06,-345.18 1225.52,-261.14 1265.66,-218.28"/>
<polygon fill="#fd3827" stroke="#fd3827" points="1268.05,-220.85 1272.27,-211.14 1262.91,-216.1 1268.05,-220.85"/>
<text text-anchor="middle" x="1110.81" y="-380.62" font-family="Times New Roman,serif" font-size="8.00" fill="#fd3827">mouse_cupboard EC=5s</text>
</g>
<!-- 6f23bf9a&#45;756e&#45;4a39&#45;a692&#45;729d39eebda3 -->
<g id="node6" class="node">
<title>6f23bf9a&#45;756e&#45;4a39&#45;a692&#45;729d39eebda3</title>
<polygon fill="none" stroke="black" points="1797.19,-524.72 1588.44,-524.72 1588.44,-488.72 1797.19,-488.72 1797.19,-524.72"/>
<text text-anchor="middle" x="1692.81" y="-501.3" font-family="Times New Roman,serif" font-size="14.00">Test asset quality and functionality</text>
</g>
<!-- 6f23bf9a&#45;756e&#45;4a39&#45;a692&#45;729d39eebda3&#45;&gt;7ebf44af&#45;2e9f&#45;42a9&#45;bfc2&#45;4d8a7946613d -->
<g id="edge9" class="edge">
<title>6f23bf9a&#45;756e&#45;4a39&#45;a692&#45;729d39eebda3&#45;&gt;7ebf44af&#45;2e9f&#45;42a9&#45;bfc2&#45;4d8a7946613d</title>
<path fill="none" stroke="#6e143b" d="M1790.93,-488.23C1828.67,-484.69 1871.77,-485.22 1909.31,-497.22 1942.03,-507.68 1973.35,-531.63 1994.44,-550.52"/>
<polygon fill="#6e143b" stroke="#6e143b" points="1991.99,-553.03 2001.71,-557.23 1996.73,-547.88 1991.99,-553.03"/>
<text text-anchor="middle" x="1868.44" y="-499.62" font-family="Times New Roman,serif" font-size="8.00" fill="#6e143b">item_asset EC=6s</text>
</g>
<!-- 6f23bf9a&#45;756e&#45;4a39&#45;a692&#45;729d39eebda3&#45;&gt;7ebf44af&#45;2e9f&#45;42a9&#45;bfc2&#45;4d8a7946613d -->
<g id="edge17" class="edge">
<title>6f23bf9a&#45;756e&#45;4a39&#45;a692&#45;729d39eebda3&#45;&gt;7ebf44af&#45;2e9f&#45;42a9&#45;bfc2&#45;4d8a7946613d</title>
<path fill="none" stroke="#64c3cc" d="M1760.24,-525.18C1781.65,-530.84 1805.53,-536.85 1827.56,-541.72 1860.79,-549.06 1897.48,-556 1929.89,-561.73"/>
<polygon fill="#64c3cc" stroke="#64c3cc" points="1929.22,-565.16 1939.67,-563.44 1930.42,-558.27 1929.22,-565.16"/>
<text text-anchor="middle" x="1868.44" y="-559.62" font-family="Times New Roman,serif" font-size="8.00" fill="#64c3cc">admin_user EC=6s</text>
</g>
<!-- 6f23bf9a&#45;756e&#45;4a39&#45;a692&#45;729d39eebda3&#45;&gt;7ebf44af&#45;2e9f&#45;42a9&#45;bfc2&#45;4d8a7946613d -->
<g id="edge26" class="edge">
<title>6f23bf9a&#45;756e&#45;4a39&#45;a692&#45;729d39eebda3&#45;&gt;7ebf44af&#45;2e9f&#45;42a9&#45;bfc2&#45;4d8a7946613d</title>
<path fill="none" stroke="#672dc5" d="M1797.42,-511.25C1833.27,-514.47 1873.44,-519.94 1909.31,-529.22 1931.61,-534.99 1955.22,-544.5 1974.96,-553.5"/>
<polygon fill="#672dc5" stroke="#672dc5" points="1973.28,-556.58 1983.83,-557.63 1976.25,-550.23 1973.28,-556.58"/>
<text text-anchor="middle" x="1868.44" y="-531.62" font-family="Times New Roman,serif" font-size="8.00" fill="#672dc5">it_working_desk EC=6s</text>
</g>
<!-- 13eb1e69&#45;d865&#45;4b16&#45;99de&#45;234e5f105810&#45;&gt;6f23bf9a&#45;756e&#45;4a39&#45;a692&#45;729d39eebda3 -->
<g id="edge8" class="edge">
<title>13eb1e69&#45;d865&#45;4b16&#45;99de&#45;234e5f105810&#45;&gt;6f23bf9a&#45;756e&#45;4a39&#45;a692&#45;729d39eebda3</title>
<path fill="none" stroke="#6e143b" d="M1336.37,-485.71C1389.34,-488.13 1480.15,-492.48 1558.06,-497.22 1564.16,-497.59 1570.42,-497.99 1576.73,-498.4"/>
<polygon fill="#6e143b" stroke="#6e143b" points="1576.42,-501.88 1586.63,-499.05 1576.88,-494.9 1576.42,-501.88"/>
<text text-anchor="middle" x="1492.81" y="-499.62" font-family="Times New Roman,serif" font-size="8.00" fill="#6e143b">item_asset EC=9s</text>
</g>
<!-- 13eb1e69&#45;d865&#45;4b16&#45;99de&#45;234e5f105810&#45;&gt;6f23bf9a&#45;756e&#45;4a39&#45;a692&#45;729d39eebda3 -->
<g id="edge16" class="edge">
<title>13eb1e69&#45;d865&#45;4b16&#45;99de&#45;234e5f105810&#45;&gt;6f23bf9a&#45;756e&#45;4a39&#45;a692&#45;729d39eebda3</title>
<path fill="none" stroke="#64c3cc" d="M1336.53,-478.27C1389.64,-472.75 1480.58,-466.22 1558.06,-475.22 1576.99,-477.42 1597.13,-481.31 1615.88,-485.63"/>
<polygon fill="#64c3cc" stroke="#64c3cc" points="1615.03,-489.03 1625.57,-487.94 1616.65,-482.22 1615.03,-489.03"/>
<text text-anchor="middle" x="1492.81" y="-478.62" font-family="Times New Roman,serif" font-size="8.00" fill="#64c3cc">admin_user EC=9s</text>
</g>
<!-- 13eb1e69&#45;d865&#45;4b16&#45;99de&#45;234e5f105810&#45;&gt;6f23bf9a&#45;756e&#45;4a39&#45;a692&#45;729d39eebda3 -->
<g id="edge25" class="edge">
<title>13eb1e69&#45;d865&#45;4b16&#45;99de&#45;234e5f105810&#45;&gt;6f23bf9a&#45;756e&#45;4a39&#45;a692&#45;729d39eebda3</title>
<path fill="none" stroke="#672dc5" d="M1336.32,-493.65C1362.72,-499 1396.87,-505.03 1427.56,-507.72 1476.33,-511.99 1530.35,-512.53 1576.77,-511.7"/>
<polygon fill="#672dc5" stroke="#672dc5" points="1576.65,-515.21 1586.58,-511.5 1576.51,-508.21 1576.65,-515.21"/>
<text text-anchor="middle" x="1492.81" y="-514.62" font-family="Times New Roman,serif" font-size="8.00" fill="#672dc5">it_working_desk EC=9s</text>
</g>
<!-- a3fa6169&#45;c971&#45;49c3&#45;915e&#45;c7d88f01242c&#45;&gt;26723ea4&#45;26e2&#45;497b&#45;a679&#45;4196a10fb05a -->
<g id="edge12" class="edge">
<title>a3fa6169&#45;c971&#45;49c3&#45;915e&#45;c7d88f01242c&#45;&gt;26723ea4&#45;26e2&#45;497b&#45;a679&#45;4196a10fb05a</title>
<path fill="none" stroke="#6e143b" d="M362.65,-385.33C392.08,-364.27 443.12,-329.84 491,-307.72 494.32,-306.19 497.75,-304.71 501.25,-303.28"/>
<polygon fill="#6e143b" stroke="#6e143b" points="502.38,-306.6 510.45,-299.74 499.86,-300.07 502.38,-306.6"/>
<text text-anchor="middle" x="441.12" y="-356.62" font-family="Times New Roman,serif" font-size="8.00" fill="#6e143b">item_asset EC=8s</text>
</g>
<!-- a3fa6169&#45;c971&#45;49c3&#45;915e&#45;c7d88f01242c&#45;&gt;26723ea4&#45;26e2&#45;497b&#45;a679&#45;4196a10fb05a -->
<g id="edge20" class="edge">
<title>a3fa6169&#45;c971&#45;49c3&#45;915e&#45;c7d88f01242c&#45;&gt;26723ea4&#45;26e2&#45;497b&#45;a679&#45;4196a10fb05a</title>
<path fill="none" stroke="#64c3cc" d="M364.05,-403.97C394.31,-402.8 443.6,-396.22 473,-367.72 492.99,-348.35 471.46,-327.55 491,-307.72 493.18,-305.51 495.54,-303.48 498.03,-301.62"/>
<polygon fill="#64c3cc" stroke="#64c3cc" points="499.74,-304.68 506.32,-296.38 496,-298.76 499.74,-304.68"/>
<text text-anchor="middle" x="441.12" y="-401.62" font-family="Times New Roman,serif" font-size="8.00" fill="#64c3cc">admin_user EC=8s</text>
</g>
<!-- 9b36adb3&#45;a8e1&#45;4cf6&#45;a7e4&#45;cbaa1f5e587a -->
<g id="node9" class="node">
<title>9b36adb3&#45;a8e1&#45;4cf6&#45;a7e4&#45;cbaa1f5e587a</title>
<polygon fill="none" stroke="black" points="1809.56,-183.72 1576.06,-183.72 1576.06,-147.72 1809.56,-147.72 1809.56,-183.72"/>
<text text-anchor="middle" x="1692.81" y="-160.3" font-family="Times New Roman,serif" font-size="14.00">reed_switch_mouse_cupboard_closed</text>
</g>
<!-- 9b36adb3&#45;a8e1&#45;4cf6&#45;a7e4&#45;cbaa1f5e587a&#45;&gt;26723ea4&#45;26e2&#45;497b&#45;a679&#45;4196a10fb05a -->
<g id="edge3" class="edge">
<title>9b36adb3&#45;a8e1&#45;4cf6&#45;a7e4&#45;cbaa1f5e587a&#45;&gt;26723ea4&#45;26e2&#45;497b&#45;a679&#45;4196a10fb05a</title>
<path fill="none" stroke="#fd3827" d="M1616.03,-147.28C1460.26,-112.51 1093.93,-46.91 798.24,-118.72 741.73,-132.44 717.86,-132.97 681.99,-178.72 660.83,-205.7 687.36,-228.64 663.99,-253.72 661.75,-256.12 659.3,-258.31 656.69,-260.31"/>
<polygon fill="#fd3827" stroke="#fd3827" points="655.05,-257.2 648.53,-265.55 658.83,-263.09 655.05,-257.2"/>
<text text-anchor="middle" x="1110.81" y="-90.62" font-family="Times New Roman,serif" font-size="8.00" fill="#fd3827">mouse_cupboard EC=1m</text>
</g>
<!-- 9b36adb3&#45;a8e1&#45;4cf6&#45;a7e4&#45;cbaa1f5e587a&#45;&gt;87392ba4&#45;256d&#45;416a&#45;a9cc&#45;7018806e9f5d -->
<g id="edge6" class="edge">
<title>9b36adb3&#45;a8e1&#45;4cf6&#45;a7e4&#45;cbaa1f5e587a&#45;&gt;87392ba4&#45;256d&#45;416a&#45;a9cc&#45;7018806e9f5d</title>
<path fill="none" stroke="#af1951" d="M1620.43,-184.15C1600.39,-188.51 1578.5,-192.53 1558.06,-194.72 1513.62,-199.48 1464.78,-200.23 1421.18,-199.3"/>
<polygon fill="#af1951" stroke="#af1951" points="1421.52,-195.81 1411.43,-199.06 1421.34,-202.81 1421.52,-195.81"/>
<text text-anchor="middle" x="1492.81" y="-202.62" font-family="Times New Roman,serif" font-size="8.00" fill="#af1951">reed_switch_mouse_cupboard EC=1m</text>
</g>
<!-- 62f6b069&#45;68fd&#45;4c23&#45;acb6&#45;b30b776f8b87 -->
<g id="node23" class="node">
<title>62f6b069&#45;68fd&#45;4c23&#45;acb6&#45;b30b776f8b87</title>
<polygon fill="none" stroke="none" points="2079.06,-210.72 1964.81,-210.72 1964.81,-174.72 2079.06,-174.72 2079.06,-210.72"/>
<polyline fill="none" stroke="black" points="1964.81,-174.72 2079.06,-174.72"/>
<text text-anchor="middle" x="2021.94" y="-187.3" font-family="Times New Roman,serif" font-size="14.00" fill="#fd3827">mouse_cupboard</text>
</g>
<!-- 9b36adb3&#45;a8e1&#45;4cf6&#45;a7e4&#45;cbaa1f5e587a&#45;&gt;62f6b069&#45;68fd&#45;4c23&#45;acb6&#45;b30b776f8b87 -->
<g id="edge42" class="edge">
<title>9b36adb3&#45;a8e1&#45;4cf6&#45;a7e4&#45;cbaa1f5e587a&#45;&gt;62f6b069&#45;68fd&#45;4c23&#45;acb6&#45;b30b776f8b87</title>
<path fill="none" stroke="#fd3827" d="M1809.6,-175.28C1857.65,-179.24 1911.73,-183.71 1953.15,-187.13"/>
<polygon fill="#fd3827" stroke="#fd3827" points="1952.72,-190.6 1962.98,-187.94 1953.3,-183.63 1952.72,-190.6"/>
</g>
<!-- 9f4c786e&#45;8bef&#45;4fde&#45;89d8&#45;5375a3c2f20a -->
<g id="node24" class="node">
<title>9f4c786e&#45;8bef&#45;4fde&#45;89d8&#45;5375a3c2f20a</title>
<polygon fill="none" stroke="none" points="2116.56,-156.72 1927.31,-156.72 1927.31,-120.72 2116.56,-120.72 2116.56,-156.72"/>
<polyline fill="none" stroke="black" points="1927.31,-120.72 2116.56,-120.72"/>
<text text-anchor="middle" x="2021.94" y="-133.3" font-family="Times New Roman,serif" font-size="14.00" fill="#af1951">reed_switch_mouse_cupboard</text>
</g>
<!-- 9b36adb3&#45;a8e1&#45;4cf6&#45;a7e4&#45;cbaa1f5e587a&#45;&gt;9f4c786e&#45;8bef&#45;4fde&#45;89d8&#45;5375a3c2f20a -->
<g id="edge43" class="edge">
<title>9b36adb3&#45;a8e1&#45;4cf6&#45;a7e4&#45;cbaa1f5e587a&#45;&gt;9f4c786e&#45;8bef&#45;4fde&#45;89d8&#45;5375a3c2f20a</title>
<path fill="none" stroke="#af1951" d="M1809.6,-156.16C1844.12,-153.32 1881.74,-150.21 1915.55,-147.42"/>
<polygon fill="#af1951" stroke="#af1951" points="1915.67,-150.92 1925.35,-146.61 1915.1,-143.95 1915.67,-150.92"/>
</g>
<!-- 87392ba4&#45;256d&#45;416a&#45;a9cc&#45;7018806e9f5d&#45;&gt;9b36adb3&#45;a8e1&#45;4cf6&#45;a7e4&#45;cbaa1f5e587a -->
<g id="edge2" class="edge">
<title>87392ba4&#45;256d&#45;416a&#45;a9cc&#45;7018806e9f5d&#45;&gt;9b36adb3&#45;a8e1&#45;4cf6&#45;a7e4&#45;cbaa1f5e587a</title>
<path fill="none" stroke="#fd3827" d="M1410.03,-184.03C1458.57,-180.87 1514.85,-177.22 1564.3,-174"/>
<polygon fill="#fd3827" stroke="#fd3827" points="1564.46,-177.5 1574.21,-173.36 1564,-170.52 1564.46,-177.5"/>
<text text-anchor="middle" x="1492.81" y="-185.62" font-family="Times New Roman,serif" font-size="8.00" fill="#fd3827">mouse_cupboard EC=3s</text>
</g>
<!-- 87392ba4&#45;256d&#45;416a&#45;a9cc&#45;7018806e9f5d&#45;&gt;9b36adb3&#45;a8e1&#45;4cf6&#45;a7e4&#45;cbaa1f5e587a -->
<g id="edge5" class="edge">
<title>87392ba4&#45;256d&#45;416a&#45;a9cc&#45;7018806e9f5d&#45;&gt;9b36adb3&#45;a8e1&#45;4cf6&#45;a7e4&#45;cbaa1f5e587a</title>
<path fill="none" stroke="#af1951" d="M1360.25,-173.22C1381.65,-168.3 1405.44,-163.67 1427.56,-161.22 1472.03,-156.3 1520.96,-155.78 1564.51,-157.02"/>
<polygon fill="#af1951" stroke="#af1951" points="1564.13,-160.51 1574.24,-157.33 1564.35,-153.51 1564.13,-160.51"/>
<text text-anchor="middle" x="1492.81" y="-164.62" font-family="Times New Roman,serif" font-size="8.00" fill="#af1951">reed_switch_mouse_cupboard EC=3s</text>
</g>
<!-- 45e4c589&#45;cc1b&#45;41d8&#45;a13b&#45;15f1bc6a6d11&#45;&gt;26723ea4&#45;26e2&#45;497b&#45;a679&#45;4196a10fb05a -->
<g id="edge24" class="edge">
<title>45e4c589&#45;cc1b&#45;41d8&#45;a13b&#45;15f1bc6a6d11&#45;&gt;26723ea4&#45;26e2&#45;497b&#45;a679&#45;4196a10fb05a</title>
<path fill="none" stroke="#64c3cc" d="M364.21,-280.72C395.89,-280.72 450.4,-280.72 496.25,-280.72"/>
<polygon fill="#64c3cc" stroke="#64c3cc" points="496.19,-284.22 506.19,-280.72 496.19,-277.22 496.19,-284.22"/>
<text text-anchor="middle" x="441.12" y="-283.62" font-family="Times New Roman,serif" font-size="8.00" fill="#64c3cc">admin_user EC=1s</text>
</g>
<!-- bc7e113a&#45;e65c&#45;449a&#45;bbab&#45;9fd79ad62870 -->
<g id="node21" class="node">
<title>bc7e113a&#45;e65c&#45;449a&#45;bbab&#45;9fd79ad62870</title>
<polygon fill="none" stroke="none" points="628.99,-244.72 525.99,-244.72 525.99,-208.72 628.99,-208.72 628.99,-244.72"/>
<polyline fill="none" stroke="black" points="525.99,-208.72 628.99,-208.72"/>
<text text-anchor="middle" x="577.49" y="-221.3" font-family="Times New Roman,serif" font-size="14.00" fill="#9c1563">item_accessory</text>
</g>
<!-- 45e4c589&#45;cc1b&#45;41d8&#45;a13b&#45;15f1bc6a6d11&#45;&gt;bc7e113a&#45;e65c&#45;449a&#45;bbab&#45;9fd79ad62870 -->
<g id="edge40" class="edge">
<title>45e4c589&#45;cc1b&#45;41d8&#45;a13b&#45;15f1bc6a6d11&#45;&gt;bc7e113a&#45;e65c&#45;449a&#45;bbab&#45;9fd79ad62870</title>
<path fill="none" stroke="#9c1563" d="M364.21,-274.74C400.25,-266.58 465.87,-251.74 514.65,-240.71"/>
<polygon fill="#9c1563" stroke="#9c1563" points="515.26,-244.16 524.24,-238.54 513.71,-237.33 515.26,-244.16"/>
</g>
<!-- 8bf804df&#45;6984&#45;4b5d&#45;9cb2&#45;e8a859de8a13 -->
<g id="node12" class="node">
<title>8bf804df&#45;6984&#45;4b5d&#45;9cb2&#45;e8a859de8a13</title>
<ellipse fill="#64c3cc" stroke="black" cx="577.49" cy="-388.72" rx="53.56" ry="18"/>
<text text-anchor="middle" x="577.49" y="-383.3" font-family="Times New Roman,serif" font-size="14.00">admin_user</text>
</g>
<!-- 8bf804df&#45;6984&#45;4b5d&#45;9cb2&#45;e8a859de8a13&#45;&gt;b89302ce&#45;c51b&#45;4a11&#45;859a&#45;3d0a04bc74bd -->
<g id="edge30" class="edge">
<title>8bf804df&#45;6984&#45;4b5d&#45;9cb2&#45;e8a859de8a13&#45;&gt;b89302ce&#45;c51b&#45;4a11&#45;859a&#45;3d0a04bc74bd</title>
<path fill="none" stroke="#64c3cc" d="M630.09,-392.76C682.62,-396.88 765.21,-403.35 829.35,-408.37"/>
<polygon fill="#64c3cc" stroke="#64c3cc" points="828.94,-411.85 839.18,-409.14 829.49,-404.87 828.94,-411.85"/>
</g>
<!-- 646e4ce3&#45;e429&#45;468f&#45;ab3e&#45;e7e9491b4259 -->
<g id="node13" class="node">
<title>646e4ce3&#45;e429&#45;468f&#45;ab3e&#45;e7e9491b4259</title>
<ellipse fill="#672dc5" stroke="black" cx="924.15" cy="-361.72" rx="72.52" ry="18"/>
<text text-anchor="middle" x="924.15" y="-356.3" font-family="Times New Roman,serif" font-size="14.00">it_working_desk</text>
</g>
<!-- 646e4ce3&#45;e429&#45;468f&#45;ab3e&#45;e7e9491b4259&#45;&gt;13eb1e69&#45;d865&#45;4b16&#45;99de&#45;234e5f105810 -->
<g id="edge31" class="edge">
<title>646e4ce3&#45;e429&#45;468f&#45;ab3e&#45;e7e9491b4259&#45;&gt;13eb1e69&#45;d865&#45;4b16&#45;99de&#45;234e5f105810</title>
<path fill="none" stroke="#672dc5" d="M983.06,-350.96C1030.52,-344.7 1098.57,-341.66 1153.56,-362.72 1202.56,-381.49 1245.21,-426.81 1269.13,-456.35"/>
<polygon fill="#672dc5" stroke="#672dc5" points="1266.34,-458.46 1275.29,-464.14 1271.84,-454.12 1266.34,-458.46"/>
</g>
<!-- 174150c2&#45;1ecf&#45;48e0&#45;8a7f&#45;6703f8f6078c -->
<g id="node14" class="node">
<title>174150c2&#45;1ecf&#45;48e0&#45;8a7f&#45;6703f8f6078c</title>
<ellipse fill="#9c1563" stroke="black" cx="89" cy="-280.72" rx="68.53" ry="18"/>
<text text-anchor="middle" x="89" y="-275.3" font-family="Times New Roman,serif" font-size="14.00">item_accessory</text>
</g>
<!-- 174150c2&#45;1ecf&#45;48e0&#45;8a7f&#45;6703f8f6078c&#45;&gt;45e4c589&#45;cc1b&#45;41d8&#45;a13b&#45;15f1bc6a6d11 -->
<g id="edge32" class="edge">
<title>174150c2&#45;1ecf&#45;48e0&#45;8a7f&#45;6703f8f6078c&#45;&gt;45e4c589&#45;cc1b&#45;41d8&#45;a13b&#45;15f1bc6a6d11</title>
<path fill="none" stroke="#9c1563" d="M157.8,-280.72C203.06,-280.72 260.88,-280.72 298.11,-280.72"/>
<polygon fill="#9c1563" stroke="#9c1563" points="297.92,-284.22 307.92,-280.72 297.92,-277.22 297.92,-284.22"/>
</g>
<!-- 1b6e06e2&#45;ce2a&#45;479d&#45;a5d9&#45;0b943bda9d1c -->
<g id="node15" class="node">
<title>1b6e06e2&#45;ce2a&#45;479d&#45;a5d9&#45;0b943bda9d1c</title>
<ellipse fill="#6e143b" stroke="black" cx="577.49" cy="-496.72" rx="49.57" ry="18"/>
<text text-anchor="middle" x="577.49" y="-491.3" font-family="Times New Roman,serif" font-size="14.00">item_asset</text>
</g>
<!-- 1b6e06e2&#45;ce2a&#45;479d&#45;a5d9&#45;0b943bda9d1c&#45;&gt;a8ee891b&#45;27c7&#45;4e8b&#45;ac32&#45;4134ff9cb585 -->
<g id="edge33" class="edge">
<title>1b6e06e2&#45;ce2a&#45;479d&#45;a5d9&#45;0b943bda9d1c&#45;&gt;a8ee891b&#45;27c7&#45;4e8b&#45;ac32&#45;4134ff9cb585</title>
<path fill="none" stroke="#6e143b" d="M626.78,-493.92C674.84,-491.13 750.28,-486.75 813.02,-483.11"/>
<polygon fill="#6e143b" stroke="#6e143b" points="812.89,-486.63 822.67,-482.55 812.48,-479.64 812.89,-486.63"/>
</g>
<!-- 1b6e06e2&#45;ce2a&#45;479d&#45;a5d9&#45;0b943bda9d1c&#45;&gt;b89302ce&#45;c51b&#45;4a11&#45;859a&#45;3d0a04bc74bd -->
<g id="edge34" class="edge">
<title>1b6e06e2&#45;ce2a&#45;479d&#45;a5d9&#45;0b943bda9d1c&#45;&gt;b89302ce&#45;c51b&#45;4a11&#45;859a&#45;3d0a04bc74bd</title>
<path fill="none" stroke="#6e143b" d="M619.72,-487.03C672.3,-474.68 764.67,-452.97 833.72,-436.74"/>
<polygon fill="#6e143b" stroke="#6e143b" points="834.18,-440.23 843.12,-434.53 832.58,-433.41 834.18,-440.23"/>
</g>
<!-- d4a51c8a&#45;5ee6&#45;47e6&#45;a7ee&#45;19a52fcbef74 -->
<g id="node16" class="node">
<title>d4a51c8a&#45;5ee6&#45;47e6&#45;a7ee&#45;19a52fcbef74</title>
<ellipse fill="#fd3827" stroke="black" cx="577.49" cy="-334.72" rx="76.01" ry="18"/>
<text text-anchor="middle" x="577.49" y="-329.3" font-family="Times New Roman,serif" font-size="14.00">mouse_cupboard</text>
</g>
<!-- d4a51c8a&#45;5ee6&#45;47e6&#45;a7ee&#45;19a52fcbef74&#45;&gt;b89302ce&#45;c51b&#45;4a11&#45;859a&#45;3d0a04bc74bd -->
<g id="edge35" class="edge">
<title>d4a51c8a&#45;5ee6&#45;47e6&#45;a7ee&#45;19a52fcbef74&#45;&gt;b89302ce&#45;c51b&#45;4a11&#45;859a&#45;3d0a04bc74bd</title>
<path fill="none" stroke="#fd3827" d="M630.34,-347.9C674.81,-359.09 740.63,-375.42 798.24,-388.72 808.42,-391.07 819.09,-393.48 829.72,-395.83"/>
<polygon fill="#fd3827" stroke="#fd3827" points="828.77,-399.2 839.29,-397.93 830.27,-392.37 828.77,-399.2"/>
</g>
<!-- fca4cc0b&#45;cfdb&#45;441c&#45;a682&#45;56ea905e87da -->
<g id="node17" class="node">
<title>fca4cc0b&#45;cfdb&#45;441c&#45;a682&#45;56ea905e87da</title>
<ellipse fill="#af1951" stroke="black" cx="924.15" cy="-199.72" rx="125.91" ry="18"/>
<text text-anchor="middle" x="924.15" y="-194.3" font-family="Times New Roman,serif" font-size="14.00">reed_switch_mouse_cupboard</text>
</g>
<!-- fca4cc0b&#45;cfdb&#45;441c&#45;a682&#45;56ea905e87da&#45;&gt;87392ba4&#45;256d&#45;416a&#45;a9cc&#45;7018806e9f5d -->
<g id="edge36" class="edge">
<title>fca4cc0b&#45;cfdb&#45;441c&#45;a682&#45;56ea905e87da&#45;&gt;87392ba4&#45;256d&#45;416a&#45;a9cc&#45;7018806e9f5d</title>
<path fill="none" stroke="#af1951" d="M1049.03,-197C1084.84,-196.22 1124.01,-195.36 1160.15,-194.56"/>
<polygon fill="#af1951" stroke="#af1951" points="1159.82,-198.07 1169.74,-194.35 1159.67,-191.07 1159.82,-198.07"/>
</g>
<!-- 7278e598&#45;44c9&#45;411d&#45;a6bf&#45;7647d80a7e01 -->
<g id="node18" class="node">
<title>7278e598&#45;44c9&#45;411d&#45;a6bf&#45;7647d80a7e01</title>
<ellipse fill="#3831f1" stroke="black" cx="577.49" cy="-442.72" rx="86.49" ry="18"/>
<text text-anchor="middle" x="577.49" y="-437.3" font-family="Times New Roman,serif" font-size="14.00">self_service_storage</text>
</g>
<!-- 7278e598&#45;44c9&#45;411d&#45;a6bf&#45;7647d80a7e01&#45;&gt;a8ee891b&#45;27c7&#45;4e8b&#45;ac32&#45;4134ff9cb585 -->
<g id="edge37" class="edge">
<title>7278e598&#45;44c9&#45;411d&#45;a6bf&#45;7647d80a7e01&#45;&gt;a8ee891b&#45;27c7&#45;4e8b&#45;ac32&#45;4134ff9cb585</title>
<path fill="none" stroke="#3831f1" d="M656.27,-450.39C702.51,-454.96 761.9,-460.81 812.91,-465.85"/>
<polygon fill="#3831f1" stroke="#3831f1" points="812.53,-469.33 822.82,-466.82 813.22,-462.36 812.53,-469.33"/>
</g>
</g>
</svg>
