<?xml version="1.0" encoding="UTF-8" standalone="no"?>
<!DOCTYPE svg PUBLIC "-//W3C//DTD SVG 1.1//EN"
 "http://www.w3.org/Graphics/SVG/1.1/DTD/svg11.dtd">
<!-- Generated by graphviz version 9.0.0 (20230911.1827)
 -->
<!-- Title: ocdfg Pages: 1 -->
<svg width="2517pt" height="722pt"
 viewBox="0.00 0.00 2517.28 722.00" xmlns="http://www.w3.org/2000/svg" xmlns:xlink="http://www.w3.org/1999/xlink">
<g id="graph0" class="graph" transform="scale(1 1) rotate(0) translate(4 718)">
<title>ocdfg</title>
<polygon fill="white" stroke="none" points="-4,4 -4,-718 2513.28,-718 2513.28,4 -4,4"/>
<!-- ca02b397&#45;b7fe&#45;49fa&#45;8f5c&#45;117f44238b81 -->
<g id="node1" class="node">
<title>ca02b397&#45;b7fe&#45;49fa&#45;8f5c&#45;117f44238b81</title>
<polygon fill="none" stroke="black" points="1001.43,-655 505.43,-655 505.43,-619 1001.43,-619 1001.43,-655"/>
<text text-anchor="middle" x="753.43" y="-631.58" font-family="Times New Roman,serif" font-size="14.00">Carry out repair/Check asset quality/Update asset status in the system/other, see notes</text>
</g>
<!-- ca02b397&#45;b7fe&#45;49fa&#45;8f5c&#45;117f44238b81&#45;&gt;ca02b397&#45;b7fe&#45;49fa&#45;8f5c&#45;117f44238b81 -->
<g id="edge6" class="edge">
<title>ca02b397&#45;b7fe&#45;49fa&#45;8f5c&#45;117f44238b81&#45;&gt;ca02b397&#45;b7fe&#45;49fa&#45;8f5c&#45;117f44238b81</title>
<path fill="none" stroke="#2b2238" d="M726.32,-655.15C722.15,-664.54 731.19,-673 753.43,-673 765.95,-673 774.28,-670.32 778.44,-666.31"/>
<polygon fill="#2b2238" stroke="#2b2238" points="781.85,-667.12 780.26,-656.64 774.97,-665.82 781.85,-667.12"/>
<text text-anchor="middle" x="753.43" y="-675.9" font-family="Times New Roman,serif" font-size="8.00" fill="#2b2238">admin_user EC=3s</text>
</g>
<!-- ca02b397&#45;b7fe&#45;49fa&#45;8f5c&#45;117f44238b81&#45;&gt;ca02b397&#45;b7fe&#45;49fa&#45;8f5c&#45;117f44238b81 -->
<g id="edge15" class="edge">
<title>ca02b397&#45;b7fe&#45;49fa&#45;8f5c&#45;117f44238b81&#45;&gt;ca02b397&#45;b7fe&#45;49fa&#45;8f5c&#45;117f44238b81</title>
<path fill="none" stroke="#756855" d="M707.99,-655.26C684.42,-672.4 699.57,-691 753.43,-691 798.88,-691 816.76,-677.76 807.09,-663.32"/>
<polygon fill="#756855" stroke="#756855" points="809.54,-660.83 799.96,-656.32 804.64,-665.82 809.54,-660.83"/>
<text text-anchor="middle" x="753.43" y="-693.9" font-family="Times New Roman,serif" font-size="8.00" fill="#756855">repair_desk EC=3s</text>
</g>
<!-- d17aeb24&#45;1e37&#45;411c&#45;a503&#45;a63751725dfd -->
<g id="node13" class="node">
<title>d17aeb24&#45;1e37&#45;411c&#45;a503&#45;a63751725dfd</title>
<polygon fill="none" stroke="black" points="1232.18,-604 1178.18,-604 1178.18,-568 1232.18,-568 1232.18,-604"/>
<text text-anchor="middle" x="1205.18" y="-580.58" font-family="Times New Roman,serif" font-size="14.00">update</text>
</g>
<!-- ca02b397&#45;b7fe&#45;49fa&#45;8f5c&#45;117f44238b81&#45;&gt;d17aeb24&#45;1e37&#45;411c&#45;a503&#45;a63751725dfd -->
<g id="edge12" class="edge">
<title>ca02b397&#45;b7fe&#45;49fa&#45;8f5c&#45;117f44238b81&#45;&gt;d17aeb24&#45;1e37&#45;411c&#45;a503&#45;a63751725dfd</title>
<path fill="none" stroke="#2b2238" d="M925.2,-618.53C950.75,-615.71 976.79,-612.81 1001.43,-610 1059.13,-603.43 1126.01,-595.44 1166.7,-590.54"/>
<polygon fill="#2b2238" stroke="#2b2238" points="1166.93,-594.04 1176.44,-589.36 1166.1,-587.09 1166.93,-594.04"/>
<text text-anchor="middle" x="1053.56" y="-610.9" font-family="Times New Roman,serif" font-size="8.00" fill="#2b2238">admin_user EC=20s</text>
</g>
<!-- 557348ff&#45;7053&#45;4359&#45;aee4&#45;d9bb78714e6c -->
<g id="node32" class="node">
<title>557348ff&#45;7053&#45;4359&#45;aee4&#45;d9bb78714e6c</title>
<polygon fill="none" stroke="none" points="1245.81,-660 1164.56,-660 1164.56,-624 1245.81,-624 1245.81,-660"/>
<polyline fill="none" stroke="black" points="1164.56,-624 1245.81,-624"/>
<text text-anchor="middle" x="1205.18" y="-636.58" font-family="Times New Roman,serif" font-size="14.00" fill="#756855">repair_desk</text>
</g>
<!-- ca02b397&#45;b7fe&#45;49fa&#45;8f5c&#45;117f44238b81&#45;&gt;557348ff&#45;7053&#45;4359&#45;aee4&#45;d9bb78714e6c -->
<g id="edge51" class="edge">
<title>ca02b397&#45;b7fe&#45;49fa&#45;8f5c&#45;117f44238b81&#45;&gt;557348ff&#45;7053&#45;4359&#45;aee4&#45;d9bb78714e6c</title>
<path fill="none" stroke="#756855" d="M1001.67,-639.75C1059.2,-640.39 1114.76,-641.01 1153.08,-641.43"/>
<polygon fill="#756855" stroke="#756855" points="1152.86,-644.93 1162.89,-641.54 1152.93,-637.93 1152.86,-644.93"/>
</g>
<!-- 8e54106d&#45;0514&#45;45b5&#45;8fc1&#45;7e723590f08d -->
<g id="node2" class="node">
<title>8e54106d&#45;0514&#45;45b5&#45;8fc1&#45;7e723590f08d</title>
<polygon fill="none" stroke="black" points="828.18,-221 678.68,-221 678.68,-185 828.18,-185 828.18,-221"/>
<text text-anchor="middle" x="753.43" y="-197.57" font-family="Times New Roman,serif" font-size="14.00">Enter room/Leave room</text>
</g>
<!-- 858590f1&#45;fcb5&#45;41e2&#45;b896&#45;802199a471a2 -->
<g id="node5" class="node">
<title>858590f1&#45;fcb5&#45;41e2&#45;b896&#45;802199a471a2</title>
<polygon fill="none" stroke="black" points="1304.68,-66 1105.68,-66 1105.68,-30 1304.68,-30 1304.68,-66"/>
<text text-anchor="middle" x="1205.18" y="-42.58" font-family="Times New Roman,serif" font-size="14.00">Pick asset from self service desk</text>
</g>
<!-- 8e54106d&#45;0514&#45;45b5&#45;8fc1&#45;7e723590f08d&#45;&gt;858590f1&#45;fcb5&#45;41e2&#45;b896&#45;802199a471a2 -->
<g id="edge8" class="edge">
<title>8e54106d&#45;0514&#45;45b5&#45;8fc1&#45;7e723590f08d&#45;&gt;858590f1&#45;fcb5&#45;41e2&#45;b896&#45;802199a471a2</title>
<path fill="none" stroke="#2b2238" d="M790.4,-184.55C840.55,-159.48 934.86,-114.67 1019.43,-87.5 1043.37,-79.81 1069.54,-73.18 1094.45,-67.67"/>
<polygon fill="#2b2238" stroke="#2b2238" points="1094.91,-71.16 1103.94,-65.62 1093.43,-64.31 1094.91,-71.16"/>
<text text-anchor="middle" x="1053.56" y="-90.9" font-family="Times New Roman,serif" font-size="8.00" fill="#2b2238">admin_user EC=2s</text>
</g>
<!-- 16f475ea&#45;17a0&#45;46ab&#45;8c38&#45;ed6e5c5d35b1 -->
<g id="node6" class="node">
<title>16f475ea&#45;17a0&#45;46ab&#45;8c38&#45;ed6e5c5d35b1</title>
<polygon fill="none" stroke="black" points="1238.31,-436 1172.06,-436 1172.06,-400 1238.31,-400 1238.31,-436"/>
<text text-anchor="middle" x="1205.18" y="-412.57" font-family="Times New Roman,serif" font-size="14.00">accepted</text>
</g>
<!-- 8e54106d&#45;0514&#45;45b5&#45;8fc1&#45;7e723590f08d&#45;&gt;16f475ea&#45;17a0&#45;46ab&#45;8c38&#45;ed6e5c5d35b1 -->
<g id="edge11" class="edge">
<title>8e54106d&#45;0514&#45;45b5&#45;8fc1&#45;7e723590f08d&#45;&gt;16f475ea&#45;17a0&#45;46ab&#45;8c38&#45;ed6e5c5d35b1</title>
<path fill="none" stroke="#2b2238" d="M783.42,-221.43C842.18,-258.11 980.4,-341.04 1105.68,-391 1123.25,-398 1143.27,-403.86 1160.65,-408.31"/>
<polygon fill="#2b2238" stroke="#2b2238" points="1159.63,-411.66 1170.18,-410.66 1161.31,-404.86 1159.63,-411.66"/>
<text text-anchor="middle" x="1053.56" y="-385.9" font-family="Times New Roman,serif" font-size="8.00" fill="#2b2238">admin_user EC=35s</text>
</g>
<!-- a4282f2f&#45;3a72&#45;44de&#45;848c&#45;1c54cf347c1d -->
<g id="node10" class="node">
<title>a4282f2f&#45;3a72&#45;44de&#45;848c&#45;1c54cf347c1d</title>
<polygon fill="none" stroke="black" points="1286.31,-177 1124.06,-177 1124.06,-141 1286.31,-141 1286.31,-177"/>
<text text-anchor="middle" x="1205.18" y="-153.57" font-family="Times New Roman,serif" font-size="14.00">reed_switch_door_closed</text>
</g>
<!-- 8e54106d&#45;0514&#45;45b5&#45;8fc1&#45;7e723590f08d&#45;&gt;a4282f2f&#45;3a72&#45;44de&#45;848c&#45;1c54cf347c1d -->
<g id="edge17" class="edge">
<title>8e54106d&#45;0514&#45;45b5&#45;8fc1&#45;7e723590f08d&#45;&gt;a4282f2f&#45;3a72&#45;44de&#45;848c&#45;1c54cf347c1d</title>
<path fill="none" stroke="#56f9c1" d="M828.53,-186.8C881.43,-176.09 954.43,-163.04 1019.43,-157.5 1049.66,-154.92 1057.35,-157.3 1087.68,-157.5 1095.68,-157.55 1103.98,-157.62 1112.31,-157.71"/>
<polygon fill="#56f9c1" stroke="#56f9c1" points="1112.1,-161.2 1122.14,-157.81 1112.18,-154.2 1112.1,-161.2"/>
<text text-anchor="middle" x="1053.56" y="-160.9" font-family="Times New Roman,serif" font-size="8.00" fill="#56f9c1">door EC=5s</text>
</g>
<!-- 93646828&#45;c794&#45;45df&#45;ac70&#45;5fe7d1fa7f54 -->
<g id="node11" class="node">
<title>93646828&#45;c794&#45;45df&#45;ac70&#45;5fe7d1fa7f54</title>
<polygon fill="none" stroke="black" points="1630.98,-256 1464.23,-256 1464.23,-220 1630.98,-220 1630.98,-256"/>
<text text-anchor="middle" x="1547.6" y="-232.57" font-family="Times New Roman,serif" font-size="14.00">reed_switch_door_opened</text>
</g>
<!-- 8e54106d&#45;0514&#45;45b5&#45;8fc1&#45;7e723590f08d&#45;&gt;93646828&#45;c794&#45;45df&#45;ac70&#45;5fe7d1fa7f54 -->
<g id="edge19" class="edge">
<title>8e54106d&#45;0514&#45;45b5&#45;8fc1&#45;7e723590f08d&#45;&gt;93646828&#45;c794&#45;45df&#45;ac70&#45;5fe7d1fa7f54</title>
<path fill="none" stroke="#56f9c1" d="M828.6,-206.28C973.4,-212.67 1293.44,-226.81 1452.74,-233.85"/>
<polygon fill="#56f9c1" stroke="#56f9c1" points="1452.27,-237.34 1462.42,-234.28 1452.58,-230.34 1452.27,-237.34"/>
<text text-anchor="middle" x="1205.18" y="-229.9" font-family="Times New Roman,serif" font-size="8.00" fill="#56f9c1">door EC=2s</text>
</g>
<!-- 50afdefe&#45;56ee&#45;4230&#45;8536&#45;53dc1567712f -->
<g id="node3" class="node">
<title>50afdefe&#45;56ee&#45;4230&#45;8536&#45;53dc1567712f</title>
<polygon fill="none" stroke="black" points="1617.1,-646 1478.1,-646 1478.1,-610 1617.1,-610 1617.1,-646"/>
<text text-anchor="middle" x="1547.6" y="-622.58" font-family="Times New Roman,serif" font-size="14.00">Move asset to storage</text>
</g>
<!-- 50afdefe&#45;56ee&#45;4230&#45;8536&#45;53dc1567712f&#45;&gt;50afdefe&#45;56ee&#45;4230&#45;8536&#45;53dc1567712f -->
<g id="edge14" class="edge">
<title>50afdefe&#45;56ee&#45;4230&#45;8536&#45;53dc1567712f&#45;&gt;50afdefe&#45;56ee&#45;4230&#45;8536&#45;53dc1567712f</title>
<path fill="none" stroke="#2b2238" d="M1531.91,-646.15C1529.49,-655.54 1534.72,-664 1547.6,-664 1554.85,-664 1559.68,-661.32 1562.08,-657.31"/>
<polygon fill="#2b2238" stroke="#2b2238" points="1565.53,-657.98 1563.14,-647.66 1558.57,-657.22 1565.53,-657.98"/>
<text text-anchor="middle" x="1547.6" y="-666.9" font-family="Times New Roman,serif" font-size="8.00" fill="#2b2238">admin_user EC=2s</text>
</g>
<!-- 50afdefe&#45;56ee&#45;4230&#45;8536&#45;53dc1567712f&#45;&gt;50afdefe&#45;56ee&#45;4230&#45;8536&#45;53dc1567712f -->
<g id="edge28" class="edge">
<title>50afdefe&#45;56ee&#45;4230&#45;8536&#45;53dc1567712f&#45;&gt;50afdefe&#45;56ee&#45;4230&#45;8536&#45;53dc1567712f</title>
<path fill="none" stroke="#e00551" d="M1521.29,-646.26C1507.65,-663.4 1516.42,-682 1547.6,-682 1572.7,-682 1583.28,-669.96 1579.35,-656.32"/>
<polygon fill="#e00551" stroke="#e00551" points="1582.46,-654.73 1574.63,-647.59 1576.3,-658.05 1582.46,-654.73"/>
<text text-anchor="middle" x="1547.6" y="-684.9" font-family="Times New Roman,serif" font-size="8.00" fill="#e00551">laptop_shelf EC=0ns</text>
</g>
<!-- eedd819a&#45;f7fa&#45;46e3&#45;a0e2&#45;1b48942dcc44 -->
<g id="node8" class="node">
<title>eedd819a&#45;f7fa&#45;46e3&#45;a0e2&#45;1b48942dcc44</title>
<polygon fill="none" stroke="black" points="1943.03,-536 1773.28,-536 1773.28,-500 1943.03,-500 1943.03,-536"/>
<text text-anchor="middle" x="1858.15" y="-512.58" font-family="Times New Roman,serif" font-size="14.00">laptop_shelf_laptop_added</text>
</g>
<!-- 50afdefe&#45;56ee&#45;4230&#45;8536&#45;53dc1567712f&#45;&gt;eedd819a&#45;f7fa&#45;46e3&#45;a0e2&#45;1b48942dcc44 -->
<g id="edge25" class="edge">
<title>50afdefe&#45;56ee&#45;4230&#45;8536&#45;53dc1567712f&#45;&gt;eedd819a&#45;f7fa&#45;46e3&#45;a0e2&#45;1b48942dcc44</title>
<path fill="none" stroke="#e00551" d="M1617.48,-621.08C1635.25,-617.08 1653.68,-610.81 1669.03,-601 1680.11,-593.91 1676.46,-585.34 1687.03,-577.5 1719.91,-553.08 1734.6,-558.5 1773.28,-545 1778.04,-543.34 1782.96,-541.66 1787.93,-539.99"/>
<polygon fill="#e00551" stroke="#e00551" points="1789,-543.32 1797.39,-536.85 1786.79,-536.68 1789,-543.32"/>
<text text-anchor="middle" x="1721.15" y="-580.9" font-family="Times New Roman,serif" font-size="8.00" fill="#e00551">laptop_shelf EC=1s</text>
</g>
<!-- f02293f8&#45;462a&#45;4590&#45;bc74&#45;c1e5bf310f86 -->
<g id="node25" class="node">
<title>f02293f8&#45;462a&#45;4590&#45;bc74&#45;c1e5bf310f86</title>
<polygon fill="none" stroke="none" points="1898.4,-590 1817.9,-590 1817.9,-554 1898.4,-554 1898.4,-590"/>
<polyline fill="none" stroke="black" points="1817.9,-554 1898.4,-554"/>
<text text-anchor="middle" x="1858.15" y="-566.58" font-family="Times New Roman,serif" font-size="14.00" fill="#2b2238">admin_user</text>
</g>
<!-- 50afdefe&#45;56ee&#45;4230&#45;8536&#45;53dc1567712f&#45;&gt;f02293f8&#45;462a&#45;4590&#45;bc74&#45;c1e5bf310f86 -->
<g id="edge43" class="edge">
<title>50afdefe&#45;56ee&#45;4230&#45;8536&#45;53dc1567712f&#45;&gt;f02293f8&#45;462a&#45;4590&#45;bc74&#45;c1e5bf310f86</title>
<path fill="none" stroke="#2b2238" d="M1617.46,-615.5C1674.76,-605.1 1755.01,-590.54 1806.54,-581.19"/>
<polygon fill="#2b2238" stroke="#2b2238" points="1807.02,-584.66 1816.23,-579.43 1805.77,-577.77 1807.02,-584.66"/>
</g>
<!-- 2d9e5667&#45;796a&#45;4123&#45;b7ce&#45;77bc07db87e1 -->
<g id="node30" class="node">
<title>2d9e5667&#45;796a&#45;4123&#45;b7ce&#45;77bc07db87e1</title>
<polygon fill="none" stroke="none" points="1900.65,-691 1815.65,-691 1815.65,-655 1900.65,-655 1900.65,-691"/>
<polyline fill="none" stroke="black" points="1815.65,-655 1900.65,-655"/>
<text text-anchor="middle" x="1858.15" y="-667.58" font-family="Times New Roman,serif" font-size="14.00" fill="#e00551">laptop_shelf</text>
</g>
<!-- 50afdefe&#45;56ee&#45;4230&#45;8536&#45;53dc1567712f&#45;&gt;2d9e5667&#45;796a&#45;4123&#45;b7ce&#45;77bc07db87e1 -->
<g id="edge49" class="edge">
<title>50afdefe&#45;56ee&#45;4230&#45;8536&#45;53dc1567712f&#45;&gt;2d9e5667&#45;796a&#45;4123&#45;b7ce&#45;77bc07db87e1</title>
<path fill="none" stroke="#e00551" d="M1617.46,-638.04C1673.94,-646.28 1752.7,-657.77 1804.3,-665.29"/>
<polygon fill="#e00551" stroke="#e00551" points="1803.62,-668.73 1814.02,-666.71 1804.63,-661.8 1803.62,-668.73"/>
</g>
<!-- 457659f1&#45;0321&#45;4608&#45;902a&#45;f82bcd36d00c -->
<g id="node4" class="node">
<title>457659f1&#45;0321&#45;4608&#45;902a&#45;f82bcd36d00c</title>
<polygon fill="none" stroke="black" points="335.37,-544 240.62,-544 240.62,-508 335.37,-508 335.37,-544"/>
<text text-anchor="middle" x="287.99" y="-520.58" font-family="Times New Roman,serif" font-size="14.00">Open window</text>
</g>
<!-- 457659f1&#45;0321&#45;4608&#45;902a&#45;f82bcd36d00c&#45;&gt;ca02b397&#45;b7fe&#45;49fa&#45;8f5c&#45;117f44238b81 -->
<g id="edge5" class="edge">
<title>457659f1&#45;0321&#45;4608&#45;902a&#45;f82bcd36d00c&#45;&gt;ca02b397&#45;b7fe&#45;49fa&#45;8f5c&#45;117f44238b81</title>
<path fill="none" stroke="#2b2238" d="M327.49,-544.49C370.02,-564.07 441.02,-594.27 505.43,-610 514.95,-612.32 524.72,-614.45 534.62,-616.39"/>
<polygon fill="#2b2238" stroke="#2b2238" points="533.89,-619.81 544.37,-618.22 535.19,-612.93 533.89,-619.81"/>
<text text-anchor="middle" x="453.68" y="-608.9" font-family="Times New Roman,serif" font-size="8.00" fill="#2b2238">admin_user EC=1s</text>
</g>
<!-- 457659f1&#45;0321&#45;4608&#45;902a&#45;f82bcd36d00c&#45;&gt;457659f1&#45;0321&#45;4608&#45;902a&#45;f82bcd36d00c -->
<g id="edge1" class="edge">
<title>457659f1&#45;0321&#45;4608&#45;902a&#45;f82bcd36d00c&#45;&gt;457659f1&#45;0321&#45;4608&#45;902a&#45;f82bcd36d00c</title>
<path fill="none" stroke="#38e5b4" d="M276.02,-544.15C274.17,-553.54 278.17,-562 287.99,-562 293.52,-562 297.21,-559.32 299.04,-555.31"/>
<polygon fill="#38e5b4" stroke="#38e5b4" points="302.5,-555.92 299.85,-545.66 295.53,-555.33 302.5,-555.92"/>
<text text-anchor="middle" x="287.99" y="-564.9" font-family="Times New Roman,serif" font-size="8.00" fill="#38e5b4">window EC=6s</text>
</g>
<!-- 457659f1&#45;0321&#45;4608&#45;902a&#45;f82bcd36d00c&#45;&gt;457659f1&#45;0321&#45;4608&#45;902a&#45;f82bcd36d00c -->
<g id="edge4" class="edge">
<title>457659f1&#45;0321&#45;4608&#45;902a&#45;f82bcd36d00c&#45;&gt;457659f1&#45;0321&#45;4608&#45;902a&#45;f82bcd36d00c</title>
<path fill="none" stroke="#2b2238" d="M267.92,-544.26C257.5,-561.4 264.2,-580 287.99,-580 306.96,-580 315.06,-568.19 312.3,-554.72"/>
<polygon fill="#2b2238" stroke="#2b2238" points="315.63,-553.62 308.64,-545.66 309.14,-556.24 315.63,-553.62"/>
<text text-anchor="middle" x="287.99" y="-582.9" font-family="Times New Roman,serif" font-size="8.00" fill="#2b2238">admin_user EC=6s</text>
</g>
<!-- 4af83fea&#45;f4ff&#45;4eee&#45;ab1d&#45;68d1d43bd02b -->
<g id="node12" class="node">
<title>4af83fea&#45;f4ff&#45;4eee&#45;ab1d&#45;68d1d43bd02b</title>
<polygon fill="none" stroke="black" points="831.93,-490 674.93,-490 674.93,-454 831.93,-454 831.93,-490"/>
<text text-anchor="middle" x="753.43" y="-466.57" font-family="Times New Roman,serif" font-size="14.00">room_humidity_dropped</text>
</g>
<!-- 457659f1&#45;0321&#45;4608&#45;902a&#45;f82bcd36d00c&#45;&gt;4af83fea&#45;f4ff&#45;4eee&#45;ab1d&#45;68d1d43bd02b -->
<g id="edge2" class="edge">
<title>457659f1&#45;0321&#45;4608&#45;902a&#45;f82bcd36d00c&#45;&gt;4af83fea&#45;f4ff&#45;4eee&#45;ab1d&#45;68d1d43bd02b</title>
<path fill="none" stroke="#38e5b4" d="M335.55,-520.58C412.06,-511.66 565.62,-493.77 663.49,-482.36"/>
<polygon fill="#38e5b4" stroke="#38e5b4" points="663.82,-485.85 673.35,-481.22 663.01,-478.9 663.82,-485.85"/>
<text text-anchor="middle" x="453.68" y="-513.9" font-family="Times New Roman,serif" font-size="8.00" fill="#38e5b4">window EC=2m</text>
</g>
<!-- 858590f1&#45;fcb5&#45;41e2&#45;b896&#45;802199a471a2&#45;&gt;8e54106d&#45;0514&#45;45b5&#45;8fc1&#45;7e723590f08d -->
<g id="edge10" class="edge">
<title>858590f1&#45;fcb5&#45;41e2&#45;b896&#45;802199a471a2&#45;&gt;8e54106d&#45;0514&#45;45b5&#45;8fc1&#45;7e723590f08d</title>
<path fill="none" stroke="#2b2238" d="M1163.88,-66.48C1141.63,-76.38 1113.37,-88.47 1087.68,-98 1000.68,-130.28 898.65,-161.48 830.63,-181.36"/>
<polygon fill="#2b2238" stroke="#2b2238" points="829.67,-177.99 821.04,-184.15 831.62,-184.71 829.67,-177.99"/>
<text text-anchor="middle" x="1053.56" y="-123.9" font-family="Times New Roman,serif" font-size="8.00" fill="#2b2238">admin_user EC=8s</text>
</g>
<!-- 858590f1&#45;fcb5&#45;41e2&#45;b896&#45;802199a471a2&#45;&gt;858590f1&#45;fcb5&#45;41e2&#45;b896&#45;802199a471a2 -->
<g id="edge9" class="edge">
<title>858590f1&#45;fcb5&#45;41e2&#45;b896&#45;802199a471a2&#45;&gt;858590f1&#45;fcb5&#45;41e2&#45;b896&#45;802199a471a2</title>
<path fill="none" stroke="#2b2238" d="M1191.47,-66.15C1189.36,-75.54 1193.93,-84 1205.18,-84 1211.51,-84 1215.73,-81.32 1217.83,-77.31"/>
<polygon fill="#2b2238" stroke="#2b2238" points="1221.28,-77.95 1218.75,-67.66 1214.32,-77.28 1221.28,-77.95"/>
<text text-anchor="middle" x="1205.18" y="-86.9" font-family="Times New Roman,serif" font-size="8.00" fill="#2b2238">admin_user EC=2s</text>
</g>
<!-- 858590f1&#45;fcb5&#45;41e2&#45;b896&#45;802199a471a2&#45;&gt;858590f1&#45;fcb5&#45;41e2&#45;b896&#45;802199a471a2 -->
<g id="edge21" class="edge">
<title>858590f1&#45;fcb5&#45;41e2&#45;b896&#45;802199a471a2&#45;&gt;858590f1&#45;fcb5&#45;41e2&#45;b896&#45;802199a471a2</title>
<path fill="none" stroke="#6e79ea" d="M1182.19,-66.26C1170.27,-83.4 1177.94,-102 1205.18,-102 1227.11,-102 1236.35,-89.96 1232.91,-76.32"/>
<polygon fill="#6e79ea" stroke="#6e79ea" points="1236.25,-75.18 1228.82,-67.63 1229.91,-78.16 1236.25,-75.18"/>
<text text-anchor="middle" x="1205.18" y="-104.9" font-family="Times New Roman,serif" font-size="8.00" fill="#6e79ea">self_service_storage EC=2s</text>
</g>
<!-- a4cc1fec&#45;8f72&#45;4960&#45;9d6a&#45;402e2cdbe42f -->
<g id="node33" class="node">
<title>a4cc1fec&#45;8f72&#45;4960&#45;9d6a&#45;402e2cdbe42f</title>
<polygon fill="none" stroke="none" points="1612.6,-36 1482.6,-36 1482.6,0 1612.6,0 1612.6,-36"/>
<polyline fill="none" stroke="black" points="1482.6,0 1612.6,0"/>
<text text-anchor="middle" x="1547.6" y="-12.57" font-family="Times New Roman,serif" font-size="14.00" fill="#6e79ea">self_service_storage</text>
</g>
<!-- 858590f1&#45;fcb5&#45;41e2&#45;b896&#45;802199a471a2&#45;&gt;a4cc1fec&#45;8f72&#45;4960&#45;9d6a&#45;402e2cdbe42f -->
<g id="edge52" class="edge">
<title>858590f1&#45;fcb5&#45;41e2&#45;b896&#45;802199a471a2&#45;&gt;a4cc1fec&#45;8f72&#45;4960&#45;9d6a&#45;402e2cdbe42f</title>
<path fill="none" stroke="#6e79ea" d="M1305.1,-39.28C1357.9,-34.63 1421.86,-28.99 1470.7,-24.69"/>
<polygon fill="#6e79ea" stroke="#6e79ea" points="1470.97,-28.18 1480.63,-23.81 1470.36,-21.21 1470.97,-28.18"/>
</g>
<!-- 16f475ea&#45;17a0&#45;46ab&#45;8c38&#45;ed6e5c5d35b1&#45;&gt;f02293f8&#45;462a&#45;4590&#45;bc74&#45;c1e5bf310f86 -->
<g id="edge44" class="edge">
<title>16f475ea&#45;17a0&#45;46ab&#45;8c38&#45;ed6e5c5d35b1&#45;&gt;f02293f8&#45;462a&#45;4590&#45;bc74&#45;c1e5bf310f86</title>
<path fill="none" stroke="#2b2238" d="M1238.7,-425.03C1258.18,-429.7 1283.24,-436.53 1304.68,-445 1361.45,-467.42 1367.87,-490.97 1426.18,-509 1566.85,-552.5 1610.36,-520.96 1755.28,-547 1772.17,-550.04 1790.43,-554.22 1806.77,-558.31"/>
<polygon fill="#2b2238" stroke="#2b2238" points="1805.71,-561.65 1816.26,-560.73 1807.43,-554.86 1805.71,-561.65"/>
</g>
<!-- 769e0003&#45;c22f&#45;4250&#45;8614&#45;7d553ad037ae -->
<g id="node28" class="node">
<title>769e0003&#45;c22f&#45;4250&#45;8614&#45;7d553ad037ae</title>
<polygon fill="none" stroke="none" points="1599.1,-436 1496.1,-436 1496.1,-400 1599.1,-400 1599.1,-436"/>
<polyline fill="none" stroke="black" points="1496.1,-400 1599.1,-400"/>
<text text-anchor="middle" x="1547.6" y="-412.57" font-family="Times New Roman,serif" font-size="14.00" fill="#c04445">item_accessory</text>
</g>
<!-- 16f475ea&#45;17a0&#45;46ab&#45;8c38&#45;ed6e5c5d35b1&#45;&gt;769e0003&#45;c22f&#45;4250&#45;8614&#45;7d553ad037ae -->
<g id="edge47" class="edge">
<title>16f475ea&#45;17a0&#45;46ab&#45;8c38&#45;ed6e5c5d35b1&#45;&gt;769e0003&#45;c22f&#45;4250&#45;8614&#45;7d553ad037ae</title>
<path fill="none" stroke="#c04445" d="M1238.52,-418C1294.91,-418 1412.17,-418 1484.65,-418"/>
<polygon fill="#c04445" stroke="#c04445" points="1484.37,-421.5 1494.37,-418 1484.37,-414.5 1484.37,-421.5"/>
</g>
<!-- 87eb3df0&#45;ddf3&#45;44a9&#45;acf5&#45;9773dabfbae3 -->
<g id="node7" class="node">
<title>87eb3df0&#45;ddf3&#45;44a9&#45;acf5&#45;9773dabfbae3</title>
<polygon fill="none" stroke="black" points="321.49,-436 254.49,-436 254.49,-400 321.49,-400 321.49,-436"/>
<text text-anchor="middle" x="287.99" y="-412.57" font-family="Times New Roman,serif" font-size="14.00">checkout</text>
</g>
<!-- 87eb3df0&#45;ddf3&#45;44a9&#45;acf5&#45;9773dabfbae3&#45;&gt;8e54106d&#45;0514&#45;45b5&#45;8fc1&#45;7e723590f08d -->
<g id="edge7" class="edge">
<title>87eb3df0&#45;ddf3&#45;44a9&#45;acf5&#45;9773dabfbae3&#45;&gt;8e54106d&#45;0514&#45;45b5&#45;8fc1&#45;7e723590f08d</title>
<path fill="none" stroke="#2b2238" d="M321.95,-402.71C402.08,-365.54 607.47,-270.25 702.65,-226.1"/>
<polygon fill="#2b2238" stroke="#2b2238" points="703.9,-229.37 711.5,-221.99 700.95,-223.02 703.9,-229.37"/>
<text text-anchor="middle" x="453.68" y="-357.9" font-family="Times New Roman,serif" font-size="8.00" fill="#2b2238">admin_user EC=1m</text>
</g>
<!-- 87eb3df0&#45;ddf3&#45;44a9&#45;acf5&#45;9773dabfbae3&#45;&gt;16f475ea&#45;17a0&#45;46ab&#45;8c38&#45;ed6e5c5d35b1 -->
<g id="edge24" class="edge">
<title>87eb3df0&#45;ddf3&#45;44a9&#45;acf5&#45;9773dabfbae3&#45;&gt;16f475ea&#45;17a0&#45;46ab&#45;8c38&#45;ed6e5c5d35b1</title>
<path fill="none" stroke="#c04445" d="M321.84,-418C460.98,-418 1002.03,-418 1160.4,-418"/>
<polygon fill="#c04445" stroke="#c04445" points="1160.04,-421.5 1170.04,-418 1160.04,-414.5 1160.04,-421.5"/>
<text text-anchor="middle" x="753.43" y="-420.9" font-family="Times New Roman,serif" font-size="8.00" fill="#c04445">item_accessory EC=1m</text>
</g>
<!-- 8003e2ba&#45;c1f4&#45;4863&#45;a4b2&#45;1efc7ab1c3e1 -->
<g id="node9" class="node">
<title>8003e2ba&#45;c1f4&#45;4863&#45;a4b2&#45;1efc7ab1c3e1</title>
<polygon fill="none" stroke="black" points="2289.78,-570 2105.78,-570 2105.78,-534 2289.78,-534 2289.78,-570"/>
<text text-anchor="middle" x="2197.78" y="-546.58" font-family="Times New Roman,serif" font-size="14.00">laptop_shelf_laptop_removed</text>
</g>
<!-- eedd819a&#45;f7fa&#45;46e3&#45;a0e2&#45;1b48942dcc44&#45;&gt;8003e2ba&#45;c1f4&#45;4863&#45;a4b2&#45;1efc7ab1c3e1 -->
<g id="edge26" class="edge">
<title>eedd819a&#45;f7fa&#45;46e3&#45;a0e2&#45;1b48942dcc44&#45;&gt;8003e2ba&#45;c1f4&#45;4863&#45;a4b2&#45;1efc7ab1c3e1</title>
<path fill="none" stroke="#e00551" d="M1943.36,-528.08C1949.33,-528.75 1955.27,-529.39 1961.03,-530 2004.65,-534.6 2052.87,-539.19 2094.28,-542.98"/>
<polygon fill="#e00551" stroke="#e00551" points="2093.7,-546.44 2103.98,-543.86 2094.34,-539.47 2093.7,-546.44"/>
<text text-anchor="middle" x="2024.4" y="-544.9" font-family="Times New Roman,serif" font-size="8.00" fill="#e00551">laptop_shelf EC=2s</text>
</g>
<!-- eedd819a&#45;f7fa&#45;46e3&#45;a0e2&#45;1b48942dcc44&#45;&gt;8003e2ba&#45;c1f4&#45;4863&#45;a4b2&#45;1efc7ab1c3e1 -->
<g id="edge29" class="edge">
<title>eedd819a&#45;f7fa&#45;46e3&#45;a0e2&#45;1b48942dcc44&#45;&gt;8003e2ba&#45;c1f4&#45;4863&#45;a4b2&#45;1efc7ab1c3e1</title>
<path fill="none" stroke="#500757" d="M1943.5,-511.6C1986.86,-509.88 2040.41,-510.18 2087.78,-517.5 2104.75,-520.12 2122.71,-524.91 2139.04,-530.11"/>
<polygon fill="#500757" stroke="#500757" points="2137.48,-533.28 2148.07,-533.09 2139.67,-526.63 2137.48,-533.28"/>
<text text-anchor="middle" x="2024.4" y="-520.9" font-family="Times New Roman,serif" font-size="8.00" fill="#500757">distance_sensor_laptop_shelf EC=2s</text>
</g>
<!-- 8003e2ba&#45;c1f4&#45;4863&#45;a4b2&#45;1efc7ab1c3e1&#45;&gt;50afdefe&#45;56ee&#45;4230&#45;8536&#45;53dc1567712f -->
<g id="edge27" class="edge">
<title>8003e2ba&#45;c1f4&#45;4863&#45;a4b2&#45;1efc7ab1c3e1&#45;&gt;50afdefe&#45;56ee&#45;4230&#45;8536&#45;53dc1567712f</title>
<path fill="none" stroke="#e00551" d="M2110.24,-570.46C2061.36,-580.28 1999.01,-591.78 1943.03,-599 1834.8,-612.96 1708.93,-620.76 1629.04,-624.67"/>
<polygon fill="#e00551" stroke="#e00551" points="1628.93,-621.18 1619.1,-625.15 1629.26,-628.17 1628.93,-621.18"/>
<text text-anchor="middle" x="1858.15" y="-618.9" font-family="Times New Roman,serif" font-size="8.00" fill="#e00551">laptop_shelf EC=1s</text>
</g>
<!-- 5c0f14e0&#45;70ef&#45;476d&#45;b681&#45;d1154a246f84 -->
<g id="node26" class="node">
<title>5c0f14e0&#45;70ef&#45;476d&#45;b681&#45;d1154a246f84</title>
<polygon fill="none" stroke="none" points="2509.28,-570 2326.78,-570 2326.78,-534 2509.28,-534 2509.28,-570"/>
<polyline fill="none" stroke="black" points="2326.78,-534 2509.28,-534"/>
<text text-anchor="middle" x="2418.03" y="-546.58" font-family="Times New Roman,serif" font-size="14.00" fill="#500757">distance_sensor_laptop_shelf</text>
</g>
<!-- 8003e2ba&#45;c1f4&#45;4863&#45;a4b2&#45;1efc7ab1c3e1&#45;&gt;5c0f14e0&#45;70ef&#45;476d&#45;b681&#45;d1154a246f84 -->
<g id="edge45" class="edge">
<title>8003e2ba&#45;c1f4&#45;4863&#45;a4b2&#45;1efc7ab1c3e1&#45;&gt;5c0f14e0&#45;70ef&#45;476d&#45;b681&#45;d1154a246f84</title>
<path fill="none" stroke="#500757" d="M2290.07,-552C2298.34,-552 2306.75,-552 2315.11,-552"/>
<polygon fill="#500757" stroke="#500757" points="2314.94,-555.5 2324.94,-552 2314.94,-548.5 2314.94,-555.5"/>
</g>
<!-- a4282f2f&#45;3a72&#45;44de&#45;848c&#45;1c54cf347c1d&#45;&gt;8e54106d&#45;0514&#45;45b5&#45;8fc1&#45;7e723590f08d -->
<g id="edge18" class="edge">
<title>a4282f2f&#45;3a72&#45;44de&#45;848c&#45;1c54cf347c1d&#45;&gt;8e54106d&#45;0514&#45;45b5&#45;8fc1&#45;7e723590f08d</title>
<path fill="none" stroke="#56f9c1" d="M1123.63,-166.88C1043.6,-174.71 921.33,-186.67 839.69,-194.66"/>
<polygon fill="#56f9c1" stroke="#56f9c1" points="839.57,-191.15 829.95,-195.61 840.25,-198.12 839.57,-191.15"/>
<text text-anchor="middle" x="1053.56" y="-180.9" font-family="Times New Roman,serif" font-size="8.00" fill="#56f9c1">door EC=7s</text>
</g>
<!-- a4282f2f&#45;3a72&#45;44de&#45;848c&#45;1c54cf347c1d&#45;&gt;93646828&#45;c794&#45;45df&#45;ac70&#45;5fe7d1fa7f54 -->
<g id="edge23" class="edge">
<title>a4282f2f&#45;3a72&#45;44de&#45;848c&#45;1c54cf347c1d&#45;&gt;93646828&#45;c794&#45;45df&#45;ac70&#45;5fe7d1fa7f54</title>
<path fill="none" stroke="#646b23" d="M1273.19,-177.43C1289.36,-181.71 1306.6,-186.14 1322.68,-190 1365.26,-200.22 1412.66,-210.53 1452.84,-218.97"/>
<polygon fill="#646b23" stroke="#646b23" points="1451.98,-222.36 1462.49,-220.98 1453.41,-215.51 1451.98,-222.36"/>
<text text-anchor="middle" x="1365.43" y="-211.9" font-family="Times New Roman,serif" font-size="8.00" fill="#646b23">reed_switch_door EC=9s</text>
</g>
<!-- d71bae32&#45;f5f0&#45;4fdb&#45;8448&#45;ce3baf2c623c -->
<g id="node27" class="node">
<title>d71bae32&#45;f5f0&#45;4fdb&#45;8448&#45;ce3baf2c623c</title>
<polygon fill="none" stroke="none" points="1574.6,-144 1520.6,-144 1520.6,-108 1574.6,-108 1574.6,-144"/>
<polyline fill="none" stroke="black" points="1520.6,-108 1574.6,-108"/>
<text text-anchor="middle" x="1547.6" y="-120.58" font-family="Times New Roman,serif" font-size="14.00" fill="#56f9c1">door</text>
</g>
<!-- a4282f2f&#45;3a72&#45;44de&#45;848c&#45;1c54cf347c1d&#45;&gt;d71bae32&#45;f5f0&#45;4fdb&#45;8448&#45;ce3baf2c623c -->
<g id="edge46" class="edge">
<title>a4282f2f&#45;3a72&#45;44de&#45;848c&#45;1c54cf347c1d&#45;&gt;d71bae32&#45;f5f0&#45;4fdb&#45;8448&#45;ce3baf2c623c</title>
<path fill="none" stroke="#56f9c1" d="M1276.93,-140.56C1286.31,-137.83 1295.76,-134.95 1304.68,-132 1312.83,-129.31 1314.25,-126.58 1322.68,-125 1387.22,-112.89 1464.07,-117.2 1508.9,-121.53"/>
<polygon fill="#56f9c1" stroke="#56f9c1" points="1508.3,-124.98 1518.61,-122.52 1509.02,-118.02 1508.3,-124.98"/>
</g>
<!-- 9fe38631&#45;5750&#45;4db7&#45;81d0&#45;2cf5623d43c9 -->
<g id="node31" class="node">
<title>9fe38631&#45;5750&#45;4db7&#45;81d0&#45;2cf5623d43c9</title>
<polygon fill="none" stroke="none" points="1606.6,-90 1488.6,-90 1488.6,-54 1606.6,-54 1606.6,-90"/>
<polyline fill="none" stroke="black" points="1488.6,-54 1606.6,-54"/>
<text text-anchor="middle" x="1547.6" y="-66.58" font-family="Times New Roman,serif" font-size="14.00" fill="#646b23">reed_switch_door</text>
</g>
<!-- a4282f2f&#45;3a72&#45;44de&#45;848c&#45;1c54cf347c1d&#45;&gt;9fe38631&#45;5750&#45;4db7&#45;81d0&#45;2cf5623d43c9 -->
<g id="edge50" class="edge">
<title>a4282f2f&#45;3a72&#45;44de&#45;848c&#45;1c54cf347c1d&#45;&gt;9fe38631&#45;5750&#45;4db7&#45;81d0&#45;2cf5623d43c9</title>
<path fill="none" stroke="#646b23" d="M1286.65,-140.77C1292.92,-138.2 1299.01,-135.3 1304.68,-132 1314.46,-126.32 1312.68,-119.28 1322.68,-114 1370.41,-88.82 1430.87,-78.55 1476.93,-74.45"/>
<polygon fill="#646b23" stroke="#646b23" points="1477.12,-77.95 1486.81,-73.66 1476.56,-70.97 1477.12,-77.95"/>
</g>
<!-- 93646828&#45;c794&#45;45df&#45;ac70&#45;5fe7d1fa7f54&#45;&gt;8e54106d&#45;0514&#45;45b5&#45;8fc1&#45;7e723590f08d -->
<g id="edge16" class="edge">
<title>93646828&#45;c794&#45;45df&#45;ac70&#45;5fe7d1fa7f54&#45;&gt;8e54106d&#45;0514&#45;45b5&#45;8fc1&#45;7e723590f08d</title>
<path fill="none" stroke="#56f9c1" d="M1463.96,-245.65C1445.61,-247.04 1426.25,-248.28 1408.18,-249 1203.95,-257.1 964.43,-231.18 839.71,-215"/>
<polygon fill="#56f9c1" stroke="#56f9c1" points="840.24,-211.54 829.87,-213.71 839.33,-218.48 840.24,-211.54"/>
<text text-anchor="middle" x="1205.18" y="-253.9" font-family="Times New Roman,serif" font-size="8.00" fill="#56f9c1">door EC=0ns</text>
</g>
<!-- 93646828&#45;c794&#45;45df&#45;ac70&#45;5fe7d1fa7f54&#45;&gt;a4282f2f&#45;3a72&#45;44de&#45;848c&#45;1c54cf347c1d -->
<g id="edge20" class="edge">
<title>93646828&#45;c794&#45;45df&#45;ac70&#45;5fe7d1fa7f54&#45;&gt;a4282f2f&#45;3a72&#45;44de&#45;848c&#45;1c54cf347c1d</title>
<path fill="none" stroke="#56f9c1" d="M1511.2,-219.55C1483.83,-206.16 1444.58,-188.81 1408.18,-179.5 1372.75,-170.43 1332.85,-165.35 1297.93,-162.51"/>
<polygon fill="#56f9c1" stroke="#56f9c1" points="1298.52,-159.04 1288.28,-161.78 1297.99,-166.02 1298.52,-159.04"/>
<text text-anchor="middle" x="1365.43" y="-182.9" font-family="Times New Roman,serif" font-size="8.00" fill="#56f9c1">door EC=4s</text>
</g>
<!-- 93646828&#45;c794&#45;45df&#45;ac70&#45;5fe7d1fa7f54&#45;&gt;a4282f2f&#45;3a72&#45;44de&#45;848c&#45;1c54cf347c1d -->
<g id="edge22" class="edge">
<title>93646828&#45;c794&#45;45df&#45;ac70&#45;5fe7d1fa7f54&#45;&gt;a4282f2f&#45;3a72&#45;44de&#45;848c&#45;1c54cf347c1d</title>
<path fill="none" stroke="#646b23" d="M1525.91,-219.77C1500.34,-198.57 1454.49,-164.78 1408.18,-151.5 1373.02,-141.42 1333.01,-140.79 1297.93,-143.59"/>
<polygon fill="#646b23" stroke="#646b23" points="1297.87,-140.08 1288.23,-144.47 1298.51,-147.05 1297.87,-140.08"/>
<text text-anchor="middle" x="1365.43" y="-154.9" font-family="Times New Roman,serif" font-size="8.00" fill="#646b23">reed_switch_door EC=4s</text>
</g>
<!-- 4af83fea&#45;f4ff&#45;4eee&#45;ab1d&#45;68d1d43bd02b&#45;&gt;4af83fea&#45;f4ff&#45;4eee&#45;ab1d&#45;68d1d43bd02b -->
<g id="edge3" class="edge">
<title>4af83fea&#45;f4ff&#45;4eee&#45;ab1d&#45;68d1d43bd02b&#45;&gt;4af83fea&#45;f4ff&#45;4eee&#45;ab1d&#45;68d1d43bd02b</title>
<path fill="none" stroke="#38e5b4" d="M726.32,-490.15C722.15,-499.54 731.19,-508 753.43,-508 765.95,-508 774.28,-505.32 778.44,-501.31"/>
<polygon fill="#38e5b4" stroke="#38e5b4" points="781.85,-502.12 780.26,-491.64 774.97,-500.82 781.85,-502.12"/>
<text text-anchor="middle" x="753.43" y="-510.9" font-family="Times New Roman,serif" font-size="8.00" fill="#38e5b4">window EC=17s</text>
</g>
<!-- 4af83fea&#45;f4ff&#45;4eee&#45;ab1d&#45;68d1d43bd02b&#45;&gt;4af83fea&#45;f4ff&#45;4eee&#45;ab1d&#45;68d1d43bd02b -->
<g id="edge30" class="edge">
<title>4af83fea&#45;f4ff&#45;4eee&#45;ab1d&#45;68d1d43bd02b&#45;&gt;4af83fea&#45;f4ff&#45;4eee&#45;ab1d&#45;68d1d43bd02b</title>
<path fill="none" stroke="#6de530" d="M707.99,-490.26C684.42,-507.4 699.57,-526 753.43,-526 798.88,-526 816.76,-512.76 807.09,-498.32"/>
<polygon fill="#6de530" stroke="#6de530" points="809.54,-495.83 799.96,-491.32 804.64,-500.82 809.54,-495.83"/>
<text text-anchor="middle" x="753.43" y="-528.9" font-family="Times New Roman,serif" font-size="8.00" fill="#6de530">temp_hum_sensor_window EC=17s</text>
</g>
<!-- 288643ce&#45;951c&#45;45b1&#45;ba81&#45;b2331724121a -->
<g id="node34" class="node">
<title>288643ce&#45;951c&#45;45b1&#45;ba81&#45;b2331724121a</title>
<polygon fill="none" stroke="none" points="1290.81,-490 1119.56,-490 1119.56,-454 1290.81,-454 1290.81,-490"/>
<polyline fill="none" stroke="black" points="1119.56,-454 1290.81,-454"/>
<text text-anchor="middle" x="1205.18" y="-466.57" font-family="Times New Roman,serif" font-size="14.00" fill="#6de530">temp_hum_sensor_window</text>
</g>
<!-- 4af83fea&#45;f4ff&#45;4eee&#45;ab1d&#45;68d1d43bd02b&#45;&gt;288643ce&#45;951c&#45;45b1&#45;ba81&#45;b2331724121a -->
<g id="edge53" class="edge">
<title>4af83fea&#45;f4ff&#45;4eee&#45;ab1d&#45;68d1d43bd02b&#45;&gt;288643ce&#45;951c&#45;45b1&#45;ba81&#45;b2331724121a</title>
<path fill="none" stroke="#6de530" d="M832.26,-472C908.74,-472 1025.62,-472 1107.91,-472"/>
<polygon fill="#6de530" stroke="#6de530" points="1107.77,-475.5 1117.77,-472 1107.77,-468.5 1107.77,-475.5"/>
</g>
<!-- 74280db7&#45;941a&#45;444f&#45;aa09&#45;eee264133f87 -->
<g id="node35" class="node">
<title>74280db7&#45;941a&#45;444f&#45;aa09&#45;eee264133f87</title>
<polygon fill="none" stroke="none" points="1235.31,-544 1175.06,-544 1175.06,-508 1235.31,-508 1235.31,-544"/>
<polyline fill="none" stroke="black" points="1175.06,-508 1235.31,-508"/>
<text text-anchor="middle" x="1205.18" y="-520.58" font-family="Times New Roman,serif" font-size="14.00" fill="#38e5b4">window</text>
</g>
<!-- 4af83fea&#45;f4ff&#45;4eee&#45;ab1d&#45;68d1d43bd02b&#45;&gt;74280db7&#45;941a&#45;444f&#45;aa09&#45;eee264133f87 -->
<g id="edge54" class="edge">
<title>4af83fea&#45;f4ff&#45;4eee&#45;ab1d&#45;68d1d43bd02b&#45;&gt;74280db7&#45;941a&#45;444f&#45;aa09&#45;eee264133f87</title>
<path fill="none" stroke="#38e5b4" d="M832.26,-481.34C928.43,-492.89 1088.51,-512.11 1163.32,-521.09"/>
<polygon fill="#38e5b4" stroke="#38e5b4" points="1162.72,-524.55 1173.06,-522.26 1163.55,-517.6 1162.72,-524.55"/>
</g>
<!-- d17aeb24&#45;1e37&#45;411c&#45;a503&#45;a63751725dfd&#45;&gt;50afdefe&#45;56ee&#45;4230&#45;8536&#45;53dc1567712f -->
<g id="edge13" class="edge">
<title>d17aeb24&#45;1e37&#45;411c&#45;a503&#45;a63751725dfd&#45;&gt;50afdefe&#45;56ee&#45;4230&#45;8536&#45;53dc1567712f</title>
<path fill="none" stroke="#2b2238" d="M1232.61,-589.26C1282.17,-595.37 1390.84,-608.78 1466.36,-618.1"/>
<polygon fill="#2b2238" stroke="#2b2238" points="1465.86,-621.56 1476.22,-619.32 1466.72,-614.62 1465.86,-621.56"/>
<text text-anchor="middle" x="1365.43" y="-613.9" font-family="Times New Roman,serif" font-size="8.00" fill="#2b2238">admin_user EC=6s</text>
</g>
<!-- b4be09d0&#45;3b52&#45;4983&#45;9be3&#45;46e34280e5d6 -->
<g id="node29" class="node">
<title>b4be09d0&#45;3b52&#45;4983&#45;9be3&#45;46e34280e5d6</title>
<polygon fill="none" stroke="none" points="1584.85,-592 1510.35,-592 1510.35,-556 1584.85,-556 1584.85,-592"/>
<polyline fill="none" stroke="black" points="1510.35,-556 1584.85,-556"/>
<text text-anchor="middle" x="1547.6" y="-568.58" font-family="Times New Roman,serif" font-size="14.00" fill="#b5d637">item_asset</text>
</g>
<!-- d17aeb24&#45;1e37&#45;411c&#45;a503&#45;a63751725dfd&#45;&gt;b4be09d0&#45;3b52&#45;4983&#45;9be3&#45;46e34280e5d6 -->
<g id="edge48" class="edge">
<title>d17aeb24&#45;1e37&#45;411c&#45;a503&#45;a63751725dfd&#45;&gt;b4be09d0&#45;3b52&#45;4983&#45;9be3&#45;46e34280e5d6</title>
<path fill="none" stroke="#b5d637" d="M1232.61,-585.07C1289.85,-583.05 1425.97,-578.25 1498.75,-575.69"/>
<polygon fill="#b5d637" stroke="#b5d637" points="1498.49,-579.2 1508.36,-575.35 1498.24,-572.2 1498.49,-579.2"/>
</g>
<!-- 30b09555&#45;6526&#45;4205&#45;ac4b&#45;101ef81e9ba8 -->
<g id="node14" class="node">
<title>30b09555&#45;6526&#45;4205&#45;ac4b&#45;101ef81e9ba8</title>
<ellipse fill="#2b2238" stroke="black" cx="68.53" cy="-472" rx="53.56" ry="18"/>
<text text-anchor="middle" x="68.53" y="-466.57" font-family="Times New Roman,serif" font-size="14.00">admin_user</text>
</g>
<!-- 30b09555&#45;6526&#45;4205&#45;ac4b&#45;101ef81e9ba8&#45;&gt;457659f1&#45;0321&#45;4608&#45;902a&#45;f82bcd36d00c -->
<g id="edge31" class="edge">
<title>30b09555&#45;6526&#45;4205&#45;ac4b&#45;101ef81e9ba8&#45;&gt;457659f1&#45;0321&#45;4608&#45;902a&#45;f82bcd36d00c</title>
<path fill="none" stroke="#2b2238" d="M111.7,-483.08C130.73,-488.03 153.5,-493.89 174.06,-499 191.96,-503.45 211.49,-508.17 229.19,-512.39"/>
<polygon fill="#2b2238" stroke="#2b2238" points="228.23,-515.76 238.77,-514.67 229.85,-508.95 228.23,-515.76"/>
</g>
<!-- 30b09555&#45;6526&#45;4205&#45;ac4b&#45;101ef81e9ba8&#45;&gt;87eb3df0&#45;ddf3&#45;44a9&#45;acf5&#45;9773dabfbae3 -->
<g id="edge32" class="edge">
<title>30b09555&#45;6526&#45;4205&#45;ac4b&#45;101ef81e9ba8&#45;&gt;87eb3df0&#45;ddf3&#45;44a9&#45;acf5&#45;9773dabfbae3</title>
<path fill="none" stroke="#2b2238" d="M111.7,-460.92C130.73,-455.97 153.5,-450.11 174.06,-445 196.84,-439.34 222.26,-433.24 243.21,-428.27"/>
<polygon fill="#2b2238" stroke="#2b2238" points="243.94,-431.7 252.87,-425.99 242.33,-424.88 243.94,-431.7"/>
</g>
<!-- 8eb85cdc&#45;e46b&#45;4cc7&#45;933b&#45;bd1162840fe2 -->
<g id="node15" class="node">
<title>8eb85cdc&#45;e46b&#45;4cc7&#45;933b&#45;bd1162840fe2</title>
<ellipse fill="#500757" stroke="black" cx="1547.6" cy="-482" rx="121.42" ry="18"/>
<text text-anchor="middle" x="1547.6" y="-476.57" font-family="Times New Roman,serif" font-size="14.00">distance_sensor_laptop_shelf</text>
</g>
<!-- 8eb85cdc&#45;e46b&#45;4cc7&#45;933b&#45;bd1162840fe2&#45;&gt;eedd819a&#45;f7fa&#45;46e3&#45;a0e2&#45;1b48942dcc44 -->
<g id="edge33" class="edge">
<title>8eb85cdc&#45;e46b&#45;4cc7&#45;933b&#45;bd1162840fe2&#45;&gt;eedd819a&#45;f7fa&#45;46e3&#45;a0e2&#45;1b48942dcc44</title>
<path fill="none" stroke="#500757" d="M1644.54,-493.19C1681.81,-497.54 1724.42,-502.51 1761.65,-506.86"/>
<polygon fill="#500757" stroke="#500757" points="1761.18,-510.33 1771.52,-508.01 1761.99,-503.37 1761.18,-510.33"/>
</g>
<!-- f8234131&#45;6a89&#45;4478&#45;92fa&#45;0ac04f4ad44c -->
<g id="node16" class="node">
<title>f8234131&#45;6a89&#45;4478&#45;92fa&#45;0ac04f4ad44c</title>
<ellipse fill="#56f9c1" stroke="black" cx="1205.18" cy="-364" rx="28.61" ry="18"/>
<text text-anchor="middle" x="1205.18" y="-358.57" font-family="Times New Roman,serif" font-size="14.00">door</text>
</g>
<!-- f8234131&#45;6a89&#45;4478&#45;92fa&#45;0ac04f4ad44c&#45;&gt;93646828&#45;c794&#45;45df&#45;ac70&#45;5fe7d1fa7f54 -->
<g id="edge34" class="edge">
<title>f8234131&#45;6a89&#45;4478&#45;92fa&#45;0ac04f4ad44c&#45;&gt;93646828&#45;c794&#45;45df&#45;ac70&#45;5fe7d1fa7f54</title>
<path fill="none" stroke="#56f9c1" d="M1232.28,-357.49C1252.24,-352.35 1280.36,-344.78 1304.68,-337 1372.59,-315.27 1448.27,-282.92 1496.6,-261.17"/>
<polygon fill="#56f9c1" stroke="#56f9c1" points="1498.04,-264.37 1505.7,-257.06 1495.15,-257.99 1498.04,-264.37"/>
</g>
<!-- 7b269bb1&#45;b71e&#45;4ea3&#45;bea2&#45;b88224b9d904 -->
<g id="node17" class="node">
<title>7b269bb1&#45;b71e&#45;4ea3&#45;bea2&#45;b88224b9d904</title>
<ellipse fill="#c04445" stroke="black" cx="68.53" cy="-418" rx="68.53" ry="18"/>
<text text-anchor="middle" x="68.53" y="-412.57" font-family="Times New Roman,serif" font-size="14.00">item_accessory</text>
</g>
<!-- 7b269bb1&#45;b71e&#45;4ea3&#45;bea2&#45;b88224b9d904&#45;&gt;87eb3df0&#45;ddf3&#45;44a9&#45;acf5&#45;9773dabfbae3 -->
<g id="edge35" class="edge">
<title>7b269bb1&#45;b71e&#45;4ea3&#45;bea2&#45;b88224b9d904&#45;&gt;87eb3df0&#45;ddf3&#45;44a9&#45;acf5&#45;9773dabfbae3</title>
<path fill="none" stroke="#c04445" d="M137.44,-418C171.77,-418 212.44,-418 242.7,-418"/>
<polygon fill="#c04445" stroke="#c04445" points="242.65,-421.5 252.65,-418 242.65,-414.5 242.65,-421.5"/>
</g>
<!-- d8632194&#45;c3e5&#45;41b2&#45;93d4&#45;326ae964c7a5 -->
<g id="node18" class="node">
<title>d8632194&#45;c3e5&#45;41b2&#45;93d4&#45;326ae964c7a5</title>
<ellipse fill="#b5d637" stroke="black" cx="753.43" cy="-583" rx="49.57" ry="18"/>
<text text-anchor="middle" x="753.43" y="-577.58" font-family="Times New Roman,serif" font-size="14.00">item_asset</text>
</g>
<!-- d8632194&#45;c3e5&#45;41b2&#45;93d4&#45;326ae964c7a5&#45;&gt;d17aeb24&#45;1e37&#45;411c&#45;a503&#45;a63751725dfd -->
<g id="edge36" class="edge">
<title>d8632194&#45;c3e5&#45;41b2&#45;93d4&#45;326ae964c7a5&#45;&gt;d17aeb24&#45;1e37&#45;411c&#45;a503&#45;a63751725dfd</title>
<path fill="none" stroke="#b5d637" d="M803.42,-583.33C893.81,-583.93 1085.02,-585.21 1166.32,-585.75"/>
<polygon fill="#b5d637" stroke="#b5d637" points="1166.18,-589.25 1176.2,-585.81 1166.23,-582.25 1166.18,-589.25"/>
</g>
<!-- 9d26bf0b&#45;317d&#45;4b5e&#45;b068&#45;9ea271822b58 -->
<g id="node19" class="node">
<title>9d26bf0b&#45;317d&#45;4b5e&#45;b068&#45;9ea271822b58</title>
<ellipse fill="#e00551" stroke="black" cx="1205.18" cy="-696" rx="56.55" ry="18"/>
<text text-anchor="middle" x="1205.18" y="-690.58" font-family="Times New Roman,serif" font-size="14.00">laptop_shelf</text>
</g>
<!-- 9d26bf0b&#45;317d&#45;4b5e&#45;b068&#45;9ea271822b58&#45;&gt;50afdefe&#45;56ee&#45;4230&#45;8536&#45;53dc1567712f -->
<g id="edge37" class="edge">
<title>9d26bf0b&#45;317d&#45;4b5e&#45;b068&#45;9ea271822b58&#45;&gt;50afdefe&#45;56ee&#45;4230&#45;8536&#45;53dc1567712f</title>
<path fill="none" stroke="#e00551" d="M1253.87,-686.47C1308.97,-675.47 1400.49,-657.19 1466.55,-643.99"/>
<polygon fill="#e00551" stroke="#e00551" points="1467.14,-647.44 1476.26,-642.05 1465.77,-640.58 1467.14,-647.44"/>
</g>
<!-- e574725d&#45;ec8e&#45;4d07&#45;8da2&#45;e6d5eddc88c9 -->
<g id="node20" class="node">
<title>e574725d&#45;ec8e&#45;4d07&#45;8da2&#45;e6d5eddc88c9</title>
<ellipse fill="#646b23" stroke="black" cx="1205.18" cy="-310" rx="78.51" ry="18"/>
<text text-anchor="middle" x="1205.18" y="-304.57" font-family="Times New Roman,serif" font-size="14.00">reed_switch_door</text>
</g>
<!-- e574725d&#45;ec8e&#45;4d07&#45;8da2&#45;e6d5eddc88c9&#45;&gt;93646828&#45;c794&#45;45df&#45;ac70&#45;5fe7d1fa7f54 -->
<g id="edge38" class="edge">
<title>e574725d&#45;ec8e&#45;4d07&#45;8da2&#45;e6d5eddc88c9&#45;&gt;93646828&#45;c794&#45;45df&#45;ac70&#45;5fe7d1fa7f54</title>
<path fill="none" stroke="#646b23" d="M1273.88,-300.89C1313.28,-295.1 1363.78,-286.85 1408.18,-277 1430.29,-272.1 1454.1,-265.77 1475.64,-259.65"/>
<polygon fill="#646b23" stroke="#646b23" points="1476.58,-263.02 1485.22,-256.89 1474.65,-256.3 1476.58,-263.02"/>
</g>
<!-- 995ec737&#45;8719&#45;4e66&#45;abf5&#45;369a43e31629 -->
<g id="node21" class="node">
<title>995ec737&#45;8719&#45;4e66&#45;abf5&#45;369a43e31629</title>
<ellipse fill="#756855" stroke="black" cx="287.99" cy="-637" rx="54.06" ry="18"/>
<text text-anchor="middle" x="287.99" y="-631.58" font-family="Times New Roman,serif" font-size="14.00">repair_desk</text>
</g>
<!-- 995ec737&#45;8719&#45;4e66&#45;abf5&#45;369a43e31629&#45;&gt;ca02b397&#45;b7fe&#45;49fa&#45;8f5c&#45;117f44238b81 -->
<g id="edge39" class="edge">
<title>995ec737&#45;8719&#45;4e66&#45;abf5&#45;369a43e31629&#45;&gt;ca02b397&#45;b7fe&#45;49fa&#45;8f5c&#45;117f44238b81</title>
<path fill="none" stroke="#756855" d="M342.16,-637C380.8,-637 436.25,-637 493.94,-637"/>
<polygon fill="#756855" stroke="#756855" points="493.61,-640.5 503.61,-637 493.61,-633.5 493.61,-640.5"/>
</g>
<!-- 94576c1b&#45;d052&#45;44c3&#45;8ef8&#45;de2f3f06df2d -->
<g id="node22" class="node">
<title>94576c1b&#45;d052&#45;44c3&#45;8ef8&#45;de2f3f06df2d</title>
<ellipse fill="#6e79ea" stroke="black" cx="753.43" cy="-48" rx="86.49" ry="18"/>
<text text-anchor="middle" x="753.43" y="-42.58" font-family="Times New Roman,serif" font-size="14.00">self_service_storage</text>
</g>
<!-- 94576c1b&#45;d052&#45;44c3&#45;8ef8&#45;de2f3f06df2d&#45;&gt;858590f1&#45;fcb5&#45;41e2&#45;b896&#45;802199a471a2 -->
<g id="edge40" class="edge">
<title>94576c1b&#45;d052&#45;44c3&#45;8ef8&#45;de2f3f06df2d&#45;&gt;858590f1&#45;fcb5&#45;41e2&#45;b896&#45;802199a471a2</title>
<path fill="none" stroke="#6e79ea" d="M840.35,-48C912.4,-48 1015.76,-48 1093.91,-48"/>
<polygon fill="#6e79ea" stroke="#6e79ea" points="1093.74,-51.5 1103.74,-48 1093.74,-44.5 1093.74,-51.5"/>
</g>
<!-- 3b5aac4c&#45;6167&#45;4582&#45;be38&#45;a1b28e656a0a -->
<g id="node23" class="node">
<title>3b5aac4c&#45;6167&#45;4582&#45;be38&#45;a1b28e656a0a</title>
<ellipse fill="#6de530" stroke="black" cx="287.99" cy="-472" rx="113.94" ry="18"/>
<text text-anchor="middle" x="287.99" y="-466.57" font-family="Times New Roman,serif" font-size="14.00">temp_hum_sensor_window</text>
</g>
<!-- 3b5aac4c&#45;6167&#45;4582&#45;be38&#45;a1b28e656a0a&#45;&gt;4af83fea&#45;f4ff&#45;4eee&#45;ab1d&#45;68d1d43bd02b -->
<g id="edge41" class="edge">
<title>3b5aac4c&#45;6167&#45;4582&#45;be38&#45;a1b28e656a0a&#45;&gt;4af83fea&#45;f4ff&#45;4eee&#45;ab1d&#45;68d1d43bd02b</title>
<path fill="none" stroke="#6de530" d="M402.36,-472C482.78,-472 589.19,-472 663.5,-472"/>
<polygon fill="#6de530" stroke="#6de530" points="663.17,-475.5 673.17,-472 663.17,-468.5 663.17,-475.5"/>
</g>
<!-- 9b4d5ac5&#45;e7f7&#45;48ea&#45;a235&#45;eb7a43a1e024 -->
<g id="node24" class="node">
<title>9b4d5ac5&#45;e7f7&#45;48ea&#45;a235&#45;eb7a43a1e024</title>
<ellipse fill="#38e5b4" stroke="black" cx="68.53" cy="-526" rx="40.09" ry="18"/>
<text text-anchor="middle" x="68.53" y="-520.58" font-family="Times New Roman,serif" font-size="14.00">window</text>
</g>
<!-- 9b4d5ac5&#45;e7f7&#45;48ea&#45;a235&#45;eb7a43a1e024&#45;&gt;457659f1&#45;0321&#45;4608&#45;902a&#45;f82bcd36d00c -->
<g id="edge42" class="edge">
<title>9b4d5ac5&#45;e7f7&#45;48ea&#45;a235&#45;eb7a43a1e024&#45;&gt;457659f1&#45;0321&#45;4608&#45;902a&#45;f82bcd36d00c</title>
<path fill="none" stroke="#38e5b4" d="M108.91,-526C142.41,-526 190.98,-526 228.94,-526"/>
<polygon fill="#38e5b4" stroke="#38e5b4" points="228.84,-529.5 238.84,-526 228.84,-522.5 228.84,-529.5"/>
</g>
</g>
</svg>
